<?xml version="1.0" encoding="utf-8"?>
<!-- Generator: Adobe Illustrator 23.1.0, SVG Export Plug-In . SVG Version: 6.00 Build 0)  -->
<svg version="1.1" id="Layer_2" xmlns="http://www.w3.org/2000/svg" xmlns:xlink="http://www.w3.org/1999/xlink" x="0px" y="0px"
	 width="398px" height="389.1px" viewBox="0 0 398 389.1" style="enable-background:new 0 0 398 389.1;" xml:space="preserve">
<style type="text/css">
	.st0{fill-rule:evenodd;clip-rule:evenodd;fill:url(#SVGID_1_);stroke:#000000;stroke-width:0.3;stroke-miterlimit:10;}
	.st1{opacity:0.8;fill-rule:evenodd;clip-rule:evenodd;fill:url(#SVGID_2_);stroke:#000000;stroke-width:0.3;stroke-miterlimit:10;}
	.st2{fill-rule:evenodd;clip-rule:evenodd;fill:url(#SVGID_3_);stroke:#000000;stroke-width:0.3;stroke-miterlimit:10;}
	.st3{fill-rule:evenodd;clip-rule:evenodd;fill:#FFFFFF;stroke:#000000;stroke-width:0.3;stroke-miterlimit:10;}
	.st4{opacity:0.5;fill-rule:evenodd;clip-rule:evenodd;fill:#811734;stroke:#000000;stroke-width:0.3;stroke-miterlimit:10;}
	.st5{opacity:0.5;fill-rule:evenodd;clip-rule:evenodd;fill:url(#SVGID_4_);stroke:#000000;stroke-width:0.3;stroke-miterlimit:10;}
	.st6{opacity:0.5;fill-rule:evenodd;clip-rule:evenodd;fill:#A70034;stroke:#000000;stroke-width:0.3;stroke-miterlimit:10;}
	.st7{fill-rule:evenodd;clip-rule:evenodd;fill:#FFA425;stroke:#000000;stroke-width:0.3;stroke-miterlimit:10;}
	.st8{opacity:0.5;fill-rule:evenodd;clip-rule:evenodd;fill:url(#SVGID_5_);stroke:#000000;stroke-width:0.3;stroke-miterlimit:10;}
	.st9{fill-rule:evenodd;clip-rule:evenodd;fill:url(#SVGID_6_);stroke:#000000;stroke-width:0.3;stroke-miterlimit:10;}
	.st10{fill-rule:evenodd;clip-rule:evenodd;fill:url(#SVGID_7_);stroke:#000000;stroke-width:0.3;stroke-miterlimit:10;}
	.st11{fill-rule:evenodd;clip-rule:evenodd;fill:url(#SVGID_8_);stroke:#000000;stroke-width:0.3;stroke-miterlimit:10;}
	.st12{fill-rule:evenodd;clip-rule:evenodd;fill:url(#SVGID_9_);stroke:#000000;stroke-width:0.3;stroke-miterlimit:10;}
	.st13{fill-rule:evenodd;clip-rule:evenodd;fill:url(#SVGID_10_);stroke:#000000;stroke-width:0.3;stroke-miterlimit:10;}
	.st14{opacity:0.5;fill-rule:evenodd;clip-rule:evenodd;fill:#FBF9FA;stroke:#000000;stroke-width:0.3;stroke-miterlimit:10;}
	
		.st15{opacity:0.5;fill-rule:evenodd;clip-rule:evenodd;fill:url(#SVGID_11_);stroke:#000000;stroke-width:0.3;stroke-miterlimit:10;}
	.st16{opacity:0.6;fill-rule:evenodd;clip-rule:evenodd;fill:#FBF9FA;stroke:#000000;stroke-width:0.3;stroke-miterlimit:10;}
	
		.st17{opacity:0.5;fill-rule:evenodd;clip-rule:evenodd;fill:url(#SVGID_12_);stroke:#000000;stroke-width:0.3;stroke-miterlimit:10;}
	.st18{fill-rule:evenodd;clip-rule:evenodd;fill:url(#SVGID_13_);stroke:#000000;stroke-width:0.3;stroke-miterlimit:10;}
	.st19{fill-rule:evenodd;clip-rule:evenodd;fill:url(#SVGID_14_);stroke:#000000;stroke-width:0.3;stroke-miterlimit:10;}
	.st20{fill-rule:evenodd;clip-rule:evenodd;fill:url(#SVGID_15_);stroke:#000000;stroke-width:0.3;stroke-miterlimit:10;}
	.st21{fill-rule:evenodd;clip-rule:evenodd;fill:#5CE5FF;stroke:#000000;stroke-width:0.3;stroke-miterlimit:10;}
	.st22{fill-rule:evenodd;clip-rule:evenodd;fill:url(#SVGID_16_);stroke:#000000;stroke-width:0.3;stroke-miterlimit:10;}
	.st23{opacity:0.3;fill-rule:evenodd;clip-rule:evenodd;fill:#AFA4C6;stroke:#000000;stroke-width:0.3;stroke-miterlimit:10;}
	
		.st24{opacity:0.5;fill-rule:evenodd;clip-rule:evenodd;fill:url(#SVGID_17_);stroke:#000000;stroke-width:0.3;stroke-miterlimit:10;}
	.st25{fill-rule:evenodd;clip-rule:evenodd;fill:url(#SVGID_18_);stroke:#000000;stroke-width:0.3;stroke-miterlimit:10;}
	
		.st26{opacity:0.5;fill-rule:evenodd;clip-rule:evenodd;fill:url(#SVGID_19_);stroke:#000000;stroke-width:0.3;stroke-miterlimit:10;}
	.st27{fill-rule:evenodd;clip-rule:evenodd;fill:url(#SVGID_20_);stroke:#000000;stroke-width:0.3;stroke-miterlimit:10;}
	.st28{fill-rule:evenodd;clip-rule:evenodd;fill:url(#SVGID_21_);stroke:#000000;stroke-width:0.3;stroke-miterlimit:10;}
	.st29{fill-rule:evenodd;clip-rule:evenodd;fill:url(#SVGID_22_);stroke:#000000;stroke-width:0.3;stroke-miterlimit:10;}
	
		.st30{opacity:0.5;fill-rule:evenodd;clip-rule:evenodd;fill:url(#SVGID_23_);stroke:#000000;stroke-width:0.3;stroke-miterlimit:10;}
	
		.st31{opacity:0.5;fill-rule:evenodd;clip-rule:evenodd;fill:url(#SVGID_24_);stroke:#000000;stroke-width:0.3;stroke-miterlimit:10;}
	.st32{opacity:0.5;fill-rule:evenodd;clip-rule:evenodd;fill:#7E6DA5;stroke:#000000;stroke-width:0.3;stroke-miterlimit:10;}
	.st33{fill-rule:evenodd;clip-rule:evenodd;fill:url(#SVGID_25_);stroke:#000000;stroke-width:0.3;stroke-miterlimit:10;}
	.st34{fill-rule:evenodd;clip-rule:evenodd;fill:url(#SVGID_26_);stroke:#000000;stroke-width:0.3;stroke-miterlimit:10;}
	.st35{fill-rule:evenodd;clip-rule:evenodd;fill:url(#SVGID_27_);stroke:#000000;stroke-width:0.3;stroke-miterlimit:10;}
	.st36{fill-rule:evenodd;clip-rule:evenodd;fill:url(#SVGID_28_);stroke:#000000;stroke-width:0.3;stroke-miterlimit:10;}
	.st37{fill-rule:evenodd;clip-rule:evenodd;fill:url(#SVGID_29_);stroke:#000000;stroke-width:0.3;stroke-miterlimit:10;}
	
		.st38{opacity:0.5;fill-rule:evenodd;clip-rule:evenodd;fill:url(#SVGID_30_);stroke:#000000;stroke-width:0.3;stroke-miterlimit:10;}
	.st39{fill-rule:evenodd;clip-rule:evenodd;fill:url(#SVGID_31_);stroke:#000000;stroke-width:0.3;stroke-miterlimit:10;}
	.st40{fill-rule:evenodd;clip-rule:evenodd;fill:url(#SVGID_32_);stroke:#000000;stroke-width:0.3;stroke-miterlimit:10;}
	.st41{fill-rule:evenodd;clip-rule:evenodd;fill:url(#SVGID_33_);stroke:#000000;stroke-width:0.3;stroke-miterlimit:10;}
	.st42{fill-rule:evenodd;clip-rule:evenodd;fill:url(#SVGID_34_);stroke:#000000;stroke-width:0.3;stroke-miterlimit:10;}
	.st43{fill-rule:evenodd;clip-rule:evenodd;fill:url(#SVGID_35_);stroke:#000000;stroke-width:0.3;stroke-miterlimit:10;}
	
		.st44{opacity:0.5;fill-rule:evenodd;clip-rule:evenodd;fill:url(#SVGID_36_);stroke:#000000;stroke-width:0.3;stroke-miterlimit:10;}
	.st45{fill-rule:evenodd;clip-rule:evenodd;fill:url(#SVGID_37_);stroke:#000000;stroke-width:0.3;stroke-miterlimit:10;}
	.st46{fill-rule:evenodd;clip-rule:evenodd;fill:url(#SVGID_38_);stroke:#000000;stroke-width:0.3;stroke-miterlimit:10;}
	.st47{fill-rule:evenodd;clip-rule:evenodd;fill:url(#SVGID_39_);stroke:#000000;stroke-width:0.3;stroke-miterlimit:10;}
	.st48{fill-rule:evenodd;clip-rule:evenodd;fill:url(#SVGID_40_);stroke:#000000;stroke-width:0.3;stroke-miterlimit:10;}
	.st49{fill-rule:evenodd;clip-rule:evenodd;fill:url(#SVGID_41_);stroke:#000000;stroke-width:0.3;stroke-miterlimit:10;}
	
		.st50{opacity:0.5;fill-rule:evenodd;clip-rule:evenodd;fill:url(#SVGID_42_);stroke:#000000;stroke-width:0.3;stroke-miterlimit:10;}
	.st51{fill-rule:evenodd;clip-rule:evenodd;fill:url(#SVGID_43_);stroke:#000000;stroke-width:0.3;stroke-miterlimit:10;}
	.st52{fill-rule:evenodd;clip-rule:evenodd;fill:url(#SVGID_44_);stroke:#000000;stroke-width:0.3;stroke-miterlimit:10;}
	.st53{fill-rule:evenodd;clip-rule:evenodd;fill:url(#SVGID_45_);stroke:#000000;stroke-width:0.3;stroke-miterlimit:10;}
	.st54{fill-rule:evenodd;clip-rule:evenodd;fill:url(#SVGID_46_);stroke:#000000;stroke-width:0.3;stroke-miterlimit:10;}
	
		.st55{opacity:0.5;fill-rule:evenodd;clip-rule:evenodd;fill:url(#SVGID_47_);stroke:#000000;stroke-width:0.3;stroke-miterlimit:10;}
	.st56{fill-rule:evenodd;clip-rule:evenodd;fill:url(#SVGID_48_);stroke:#000000;stroke-width:0.3;stroke-miterlimit:10;}
	.st57{fill-rule:evenodd;clip-rule:evenodd;fill:url(#SVGID_49_);stroke:#000000;stroke-width:0.3;stroke-miterlimit:10;}
	.st58{fill-rule:evenodd;clip-rule:evenodd;fill:url(#SVGID_50_);stroke:#000000;stroke-width:0.3;stroke-miterlimit:10;}
	.st59{fill-rule:evenodd;clip-rule:evenodd;fill:url(#SVGID_51_);stroke:#000000;stroke-width:0.3;stroke-miterlimit:10;}
	
		.st60{opacity:0.5;fill-rule:evenodd;clip-rule:evenodd;fill:url(#SVGID_52_);stroke:#000000;stroke-width:0.3;stroke-miterlimit:10;}
	.st61{fill-rule:evenodd;clip-rule:evenodd;fill:url(#SVGID_53_);stroke:#000000;stroke-width:0.3;stroke-miterlimit:10;}
	.st62{fill-rule:evenodd;clip-rule:evenodd;fill:url(#SVGID_54_);stroke:#000000;stroke-width:0.3;stroke-miterlimit:10;}
	.st63{fill-rule:evenodd;clip-rule:evenodd;fill:url(#SVGID_55_);stroke:#000000;stroke-width:0.3;stroke-miterlimit:10;}
	.st64{fill-rule:evenodd;clip-rule:evenodd;fill:url(#SVGID_56_);stroke:#000000;stroke-width:0.3;stroke-miterlimit:10;}
	.st65{fill-rule:evenodd;clip-rule:evenodd;fill:url(#SVGID_57_);stroke:#000000;stroke-width:0.3;stroke-miterlimit:10;}
	
		.st66{opacity:0.5;fill-rule:evenodd;clip-rule:evenodd;fill:url(#SVGID_58_);stroke:#000000;stroke-width:0.3;stroke-miterlimit:10;}
	.st67{fill-rule:evenodd;clip-rule:evenodd;fill:url(#SVGID_59_);stroke:#000000;stroke-width:0.3;stroke-miterlimit:10;}
	.st68{fill-rule:evenodd;clip-rule:evenodd;fill:url(#SVGID_60_);stroke:#000000;stroke-width:0.3;stroke-miterlimit:10;}
	.st69{fill-rule:evenodd;clip-rule:evenodd;fill:url(#SVGID_61_);stroke:#000000;stroke-width:0.3;stroke-miterlimit:10;}
	.st70{fill-rule:evenodd;clip-rule:evenodd;fill:url(#SVGID_62_);stroke:#000000;stroke-width:0.3;stroke-miterlimit:10;}
	
		.st71{opacity:0.5;fill-rule:evenodd;clip-rule:evenodd;fill:url(#SVGID_63_);stroke:#000000;stroke-width:0.3;stroke-miterlimit:10;}
	.st72{fill-rule:evenodd;clip-rule:evenodd;fill:url(#SVGID_64_);stroke:#000000;stroke-width:0.3;stroke-miterlimit:10;}
	.st73{fill-rule:evenodd;clip-rule:evenodd;fill:url(#SVGID_65_);stroke:#000000;stroke-width:0.3;stroke-miterlimit:10;}
	.st74{fill-rule:evenodd;clip-rule:evenodd;fill:url(#SVGID_66_);stroke:#000000;stroke-width:0.3;stroke-miterlimit:10;}
	.st75{fill-rule:evenodd;clip-rule:evenodd;fill:url(#SVGID_67_);stroke:#000000;stroke-width:0.3;stroke-miterlimit:10;}
	.st76{fill-rule:evenodd;clip-rule:evenodd;fill:url(#SVGID_68_);stroke:#000000;stroke-width:0.3;stroke-miterlimit:10;}
	.st77{fill-rule:evenodd;clip-rule:evenodd;fill:url(#SVGID_69_);stroke:#000000;stroke-width:0.3;stroke-miterlimit:10;}
	.st78{fill-rule:evenodd;clip-rule:evenodd;fill:#D1B6CE;stroke:#000000;stroke-width:0.3;stroke-miterlimit:10;}
	.st79{fill-rule:evenodd;clip-rule:evenodd;fill:url(#SVGID_70_);stroke:#000000;stroke-width:0.3;stroke-miterlimit:10;}
	.st80{fill-rule:evenodd;clip-rule:evenodd;fill:url(#SVGID_71_);stroke:#000000;stroke-width:0.3;stroke-miterlimit:10;}
	.st81{fill-rule:evenodd;clip-rule:evenodd;fill:url(#SVGID_72_);stroke:#000000;stroke-width:0.3;stroke-miterlimit:10;}
	.st82{fill-rule:evenodd;clip-rule:evenodd;fill:url(#SVGID_73_);stroke:#000000;stroke-width:0.3;stroke-miterlimit:10;}
	.st83{fill-rule:evenodd;clip-rule:evenodd;fill:url(#SVGID_74_);stroke:#000000;stroke-width:0.3;stroke-miterlimit:10;}
	.st84{fill-rule:evenodd;clip-rule:evenodd;fill:url(#SVGID_75_);stroke:#000000;stroke-width:0.3;stroke-miterlimit:10;}
	.st85{fill-rule:evenodd;clip-rule:evenodd;fill:url(#SVGID_76_);stroke:#000000;stroke-width:0.3;stroke-miterlimit:10;}
	.st86{fill-rule:evenodd;clip-rule:evenodd;fill:url(#SVGID_77_);stroke:#000000;stroke-width:0.3;stroke-miterlimit:10;}
	.st87{fill-rule:evenodd;clip-rule:evenodd;fill:url(#SVGID_78_);stroke:#000000;stroke-width:0.3;stroke-miterlimit:10;}
	.st88{fill-rule:evenodd;clip-rule:evenodd;fill:url(#SVGID_79_);stroke:#000000;stroke-width:0.3;stroke-miterlimit:10;}
	.st89{fill-rule:evenodd;clip-rule:evenodd;fill:url(#SVGID_80_);stroke:#000000;stroke-width:0.3;stroke-miterlimit:10;}
	.st90{fill-rule:evenodd;clip-rule:evenodd;fill:url(#SVGID_81_);stroke:#000000;stroke-width:0.3;stroke-miterlimit:10;}
	.st91{fill-rule:evenodd;clip-rule:evenodd;fill:url(#SVGID_82_);stroke:#000000;stroke-width:0.3;stroke-miterlimit:10;}
	.st92{fill-rule:evenodd;clip-rule:evenodd;fill:url(#SVGID_83_);stroke:#000000;stroke-width:0.3;stroke-miterlimit:10;}
	.st93{fill-rule:evenodd;clip-rule:evenodd;fill:url(#SVGID_84_);stroke:#000000;stroke-width:0.3;stroke-miterlimit:10;}
	.st94{opacity:0.6;fill-rule:evenodd;clip-rule:evenodd;fill:#FBF9CE;stroke:#000000;stroke-width:0.3;stroke-miterlimit:10;}
	
		.st95{opacity:0.8;fill-rule:evenodd;clip-rule:evenodd;fill:url(#SVGID_85_);stroke:#000000;stroke-width:0.3;stroke-miterlimit:10;}
	.st96{fill-rule:evenodd;clip-rule:evenodd;fill:url(#SVGID_86_);stroke:#000000;stroke-width:0.3;stroke-miterlimit:10;}
	.st97{fill-rule:evenodd;clip-rule:evenodd;fill:url(#SVGID_87_);stroke:#000000;stroke-width:0.3;stroke-miterlimit:10;}
	.st98{fill-rule:evenodd;clip-rule:evenodd;fill:url(#SVGID_88_);stroke:#000000;stroke-width:0.3;stroke-miterlimit:10;}
	.st99{fill-rule:evenodd;clip-rule:evenodd;fill:url(#SVGID_89_);stroke:#000000;stroke-width:0.3;stroke-miterlimit:10;}
	.st100{fill-rule:evenodd;clip-rule:evenodd;fill:url(#SVGID_90_);stroke:#000000;stroke-width:0.3;stroke-miterlimit:10;}
	.st101{fill-rule:evenodd;clip-rule:evenodd;fill:url(#SVGID_91_);stroke:#000000;stroke-width:0.3;stroke-miterlimit:10;}
	.st102{fill-rule:evenodd;clip-rule:evenodd;fill:url(#SVGID_92_);stroke:#000000;stroke-width:0.3;stroke-miterlimit:10;}
	.st103{fill-rule:evenodd;clip-rule:evenodd;fill:url(#SVGID_93_);stroke:#000000;stroke-width:0.3;stroke-miterlimit:10;}
	.st104{fill-rule:evenodd;clip-rule:evenodd;fill:url(#SVGID_94_);stroke:#000000;stroke-width:0.3;stroke-miterlimit:10;}
	.st105{fill-rule:evenodd;clip-rule:evenodd;fill:url(#SVGID_95_);stroke:#000000;stroke-width:0.3;stroke-miterlimit:10;}
	.st106{fill-rule:evenodd;clip-rule:evenodd;fill:url(#SVGID_96_);stroke:#000000;stroke-width:0.3;stroke-miterlimit:10;}
	.st107{fill-rule:evenodd;clip-rule:evenodd;fill:url(#SVGID_97_);stroke:#000000;stroke-width:0.3;stroke-miterlimit:10;}
	.st108{fill-rule:evenodd;clip-rule:evenodd;fill:url(#SVGID_98_);stroke:#000000;stroke-width:0.3;stroke-miterlimit:10;}
	.st109{fill-rule:evenodd;clip-rule:evenodd;fill:url(#SVGID_99_);stroke:#000000;stroke-width:0.3;stroke-miterlimit:10;}
	
		.st110{opacity:0.5;fill-rule:evenodd;clip-rule:evenodd;fill:url(#SVGID_100_);stroke:#000000;stroke-width:0.3;stroke-miterlimit:10;}
	
		.st111{opacity:0.5;fill-rule:evenodd;clip-rule:evenodd;fill:url(#SVGID_101_);stroke:#000000;stroke-width:0.3;stroke-miterlimit:10;}
	.st112{fill-rule:evenodd;clip-rule:evenodd;fill:url(#SVGID_102_);stroke:#000000;stroke-width:0.3;stroke-miterlimit:10;}
	.st113{fill-rule:evenodd;clip-rule:evenodd;fill:url(#SVGID_103_);stroke:#000000;stroke-width:0.3;stroke-miterlimit:10;}
	.st114{fill-rule:evenodd;clip-rule:evenodd;fill:url(#SVGID_104_);stroke:#000000;stroke-width:0.3;stroke-miterlimit:10;}
	
		.st115{opacity:0.5;fill-rule:evenodd;clip-rule:evenodd;fill:url(#SVGID_105_);stroke:#000000;stroke-width:0.3;stroke-miterlimit:10;}
	.st116{fill:#29A9E0;stroke:#000000;stroke-width:0.2;stroke-miterlimit:10;}
	.st117{fill:#C1272D;stroke:#000000;stroke-width:0.2;stroke-miterlimit:10;}
	.st118{fill:#189BC9;stroke:#000000;stroke-width:0.2;stroke-miterlimit:10;}
	.st119{fill:#E20707;stroke:#000000;stroke-width:0.2;stroke-miterlimit:10;}
	.st120{fill:#ED1C24;stroke:#000000;stroke-width:0.2;stroke-miterlimit:10;}
	.st121{opacity:0.4;fill:#FFFFFF;stroke:#000000;stroke-width:0.2;stroke-miterlimit:10;enable-background:new    ;}
	.st122{fill:#53CAEA;stroke:#000000;stroke-width:0.2;stroke-miterlimit:10;}
	.st123{fill:#BBBDBF;stroke:#000000;stroke-width:0.2;stroke-miterlimit:10;}
	.st124{fill:#A6A8AB;stroke:#000000;stroke-width:0.2;stroke-miterlimit:10;}
	.st125{fill:#BF0000;stroke:#000000;stroke-width:0.2;stroke-miterlimit:10;}
	.st126{fill:#3E4768;stroke:#000000;stroke-width:0.2;stroke-miterlimit:10;}
	.st127{fill:#343D56;stroke:#000000;stroke-width:0.2;stroke-miterlimit:10;}
	.st128{fill:#D8EDEE;stroke:#000000;stroke-width:0.2;stroke-miterlimit:10;}
	.st129{fill:#BDD1D0;stroke:#000000;stroke-width:0.2;stroke-miterlimit:10;}
	.st130{fill:#B3B3B3;stroke:#000000;stroke-width:0.2;stroke-miterlimit:10;}
	.st131{fill:#808080;stroke:#000000;stroke-width:0.2;stroke-miterlimit:10;}
	.st132{fill:#B7E25A;stroke:#000000;stroke-width:0.2;stroke-miterlimit:10;}
	.st133{fill:#7BAD2D;stroke:#000000;stroke-width:0.2;stroke-miterlimit:10;}
	.st134{fill:#8BC543;stroke:#000000;stroke-width:0.2;stroke-miterlimit:10;}
	.st135{fill:#333333;}
</style>
<g>
	
		<linearGradient id="SVGID_1_" gradientUnits="userSpaceOnUse" x1="195.7908" y1="181.9532" x2="195.7908" y2="157.537" gradientTransform="matrix(0.9341 -0.3569 0.3569 0.9341 -59.7371 54.5399)">
		<stop  offset="0" style="stop-color:#93221B"/>
		<stop  offset="0.998" style="stop-color:#A63333"/>
	</linearGradient>
	<path class="st0" d="M134.8,159.9l17.3-7.8l-4-3.8l79.6-34.9L211,131.2l9.8,0.5c0,0-32.1,23.6-49.8,29.4
		C153.3,167,134.8,159.9,134.8,159.9z"/>
	<g>
		
			<linearGradient id="SVGID_2_" gradientUnits="userSpaceOnUse" x1="209.1204" y1="196.3156" x2="209.1204" y2="143.1957" gradientTransform="matrix(0.9882 -0.1532 0.1532 0.9882 -18.5119 -32.7139)">
			<stop  offset="0" style="stop-color:#FF6E27"/>
			<stop  offset="0.998" style="stop-color:#FF5747"/>
		</linearGradient>
		<path class="st1" d="M224.3,126.8c0,0-1.6,1.8-5.8,2.4c-4,0.6-6.3-0.6-6.3-0.6s-5.1-26.8-4.8-28.2c0.4-2,3.6-3.3,3.6-4.6
			c0,0,0-0.1,0-0.1c-0.2-1.2-1.9-2-2.6-3.6c0,0,0,0,0,0c-0.1-0.2-0.2-0.5-0.2-0.8c-0.4-2.2,0.5-13,0.9-13.7c0.5-0.7,0.7-0.7,0.7-0.7
			s0.2,0,0.9,0.5c0.7,0.5,5,10.6,5.3,12.8c0,0.3,0.1,0.6,0,0.8c-0.1,1.7-1.5,3-1.4,4.2c0,0.1,0,0.2,0.1,0.2c0.6,1.2,3.9,1.6,4.9,3.3
			C220.5,99.9,224.3,126.8,224.3,126.8z"/>
		
			<linearGradient id="SVGID_3_" gradientUnits="userSpaceOnUse" x1="209.1186" y1="195.0472" x2="209.1186" y2="145.33" gradientTransform="matrix(0.9882 -0.1532 0.1532 0.9882 -18.5119 -32.7139)">
			<stop  offset="5.405410e-03" style="stop-color:#FF9427"/>
			<stop  offset="0.998" style="stop-color:#E03347"/>
		</linearGradient>
		<path class="st2" d="M218.3,127.9c-2.4,0.3-4.1,0-4.9-0.3c-1.9-9.9-4.7-25.5-4.7-27.1c0.2-0.6,1-1.3,1.7-1.9
			c1.1-0.9,2.2-1.9,1.9-3.2c-0.2-1-0.9-1.7-1.5-2.3c-0.6-0.6-1.2-1.2-1.4-2c-0.3-1.7,0.3-9.4,0.7-12.1c1.3,2.5,4.3,9.6,4.6,11.4
			c0.1,0.8-0.2,1.6-0.6,2.3c-0.4,0.8-0.9,1.7-0.7,2.7c0.2,1.3,1.6,1.9,2.9,2.5c0.9,0.4,1.9,0.8,2.2,1.4c0.6,1.6,2.9,17.2,4.4,27.2
			C222.2,126.8,220.7,127.6,218.3,127.9z"/>
		<path class="st3" d="M209.5,84.9c0,0-1-2.6,0.2-4.5C209.8,80.4,210.7,82.6,209.5,84.9z"/>
		<path class="st4" d="M214.7,95c0,0.1,0,0.2,0.1,0.2c-0.8,0.2-2,0.4-3.8,0.4c0,0,0-0.1,0-0.1c-0.2-1.2-1.9-2-2.6-3.6
			c0.1,0.1,1,1,3.6,0.7c2.7-0.3,3.9-1.7,4-1.8C215.9,92.6,214.5,93.9,214.7,95z"/>
		
			<linearGradient id="SVGID_4_" gradientUnits="userSpaceOnUse" x1="211.9445" y1="181.1554" x2="215.5743" y2="181.1554" gradientTransform="matrix(0.9882 -0.1532 0.1532 0.9882 -18.5119 -32.7139)">
			<stop  offset="0.5973" style="stop-color:#000000"/>
			<stop  offset="1" style="stop-color:#FFDBCE"/>
		</linearGradient>
		<path class="st5" d="M219.7,98.6l-3.2,0.5l4.5,29.6c0,0,2.2-0.8,3.3-1.8C224.3,126.8,220.7,101.3,219.7,98.6z"/>
		<path class="st6" d="M210,111c0,0,5.6-0.5,10-3.1l2.8,18.4c0,0-3.1,2.6-9.4,1.3L210,111z"/>
		<path class="st7" d="M220,107.9c0,0-4.8,0.4-10,3.1C210,111,215.5,111.4,220,107.9z"/>
		<path class="st3" d="M208.2,101.4c0,0-0.1-2.5,1.7-3.3l2.5-0.2c0,0-0.8,1.5-0.8,3.1L208.2,101.4z"/>
		
			<linearGradient id="SVGID_5_" gradientUnits="userSpaceOnUse" x1="205.6938" y1="193.011" x2="205.6938" y2="167.2195" gradientTransform="matrix(0.9882 -0.1532 0.1532 0.9882 -18.5119 -32.7139)">
			<stop  offset="0" style="stop-color:#000000"/>
			<stop  offset="1" style="stop-color:#92ACC4"/>
		</linearGradient>
		<polygon class="st8" points="211.6,101.1 216.6,126.2 212.9,126.7 208.2,101.4 		"/>
	</g>
	<g>
		
			<radialGradient id="SVGID_6_" cx="191.6285" cy="266.4068" r="27.8743" gradientTransform="matrix(1.048 -0.2065 0.2211 0.9785 -63.9733 -82.2739)" gradientUnits="userSpaceOnUse">
			<stop  offset="0" style="stop-color:#5178FE"/>
			<stop  offset="0.9944" style="stop-color:#713592"/>
		</radialGradient>
		<path class="st9" d="M195.3,97.1l-0.2-3.7l-10.6,2.1l-10.4,2.1l1.4,3.5c-5,1.7-4.8,6.7-4.8,6.7l10.5,40.3c0,0,4.8,0.7,15-1.3
			c10.4-2,14.3-4.5,14.3-4.5l-7.9-40.8C202.5,101.5,200.7,96.9,195.3,97.1z"/>
		<path class="st4" d="M175.5,101c0,0,7.1,0.5,19.8-3.9l-0.1-2.1l-20.8,4.1L175.5,101z"/>
		<g>
			
				<linearGradient id="SVGID_7_" gradientUnits="userSpaceOnUse" x1="180.7628" y1="224.2701" x2="207.8981" y2="218.1839" gradientTransform="matrix(0.9785 -0.2065 0.2065 0.9785 -51.4153 -82.2739)">
				<stop  offset="0" style="stop-color:#EDE5F3"/>
				<stop  offset="0.9829" style="stop-color:#C7B5E3"/>
			</linearGradient>
			<path class="st10" d="M171.5,99.4c0,0,11.6-0.6,26.5-5.2l-0.7-5.4c0,0-12.5-0.8-27.3,5.6L171.5,99.4z"/>
			
				<linearGradient id="SVGID_8_" gradientUnits="userSpaceOnUse" x1="193.8708" y1="220.2686" x2="194.3203" y2="216.6904" gradientTransform="matrix(0.9785 -0.2065 0.2065 0.9785 -51.4153 -82.2739)">
				<stop  offset="0" style="stop-color:#FFF3FF"/>
				<stop  offset="0.9829" style="stop-color:#E7E2EE"/>
			</linearGradient>
			<path class="st11" d="M170,94.4c0,0,13.6-1.7,27.3-5.6C197.3,88.8,184.2,88.1,170,94.4z"/>
			
				<linearGradient id="SVGID_9_" gradientUnits="userSpaceOnUse" x1="182.2219" y1="220.6215" x2="205.6235" y2="215.3727" gradientTransform="matrix(0.9785 -0.2065 0.2065 0.9785 -51.4153 -82.2739)">
				<stop  offset="0" style="stop-color:#EDE5F3"/>
				<stop  offset="0.9829" style="stop-color:#C7B5E3"/>
			</linearGradient>
			<path class="st12" d="M195.4,88.8c0,0-10.4,3.3-24,5l-0.1-0.5c0,0,14.5-2.2,24-5L195.4,88.8z"/>
			
				<linearGradient id="SVGID_10_" gradientUnits="userSpaceOnUse" x1="193.7327" y1="219.2161" x2="194.1065" y2="216.24" gradientTransform="matrix(0.9785 -0.2065 0.2065 0.9785 -51.4153 -82.2739)">
				<stop  offset="0" style="stop-color:#FFF3FF"/>
				<stop  offset="0.9829" style="stop-color:#E7E2EE"/>
			</linearGradient>
			<path class="st13" d="M171.3,93.2c0,0,10.9-4.1,24-5C195.3,88.2,182.6,92,171.3,93.2z"/>
		</g>
		<path class="st14" d="M170.6,107.8c0,0,8.5,0.8,25.3-3.7c1.5-0.4,3,0.5,3.3,1.9l6.4,28.4c0.3,1.2-0.4,2.4-1.7,2.9
			c-3.8,1.3-12.5,3.8-24.7,3.9L170.6,107.8z"/>
		<path class="st14" d="M173.4,118.5c0,0,9.2,0.1,22-3.3l2.8,14.3c0,0-9.3,3-21.1,3.1L173.4,118.5z"/>
		
			<linearGradient id="SVGID_11_" gradientUnits="userSpaceOnUse" x1="201.158" y1="253.6004" x2="210.4787" y2="253.6004" gradientTransform="matrix(0.9785 -0.2065 0.2065 0.9785 -51.4153 -82.2739)">
			<stop  offset="0.5973" style="stop-color:#000000"/>
			<stop  offset="1" style="stop-color:#FFDBCE"/>
		</linearGradient>
		<path class="st15" d="M202.5,101.5l7.9,40.8c0,0-2.9,1.8-8.2,3.1l-8.2-42.2C194,103.2,200.2,102.5,202.5,101.5z"/>
		<path class="st16" d="M171.3,107.2c0,0,0.3-2.5,2.6-4.3l2,0.2c0,0-0.8,2.8-1,4.1L171.3,107.2z"/>
		
			<linearGradient id="SVGID_12_" gradientUnits="userSpaceOnUse" x1="183.236" y1="273.1555" x2="183.236" y2="226.9998" gradientTransform="matrix(0.9785 -0.2065 0.2065 0.9785 -51.4153 -82.2739)">
			<stop  offset="0" style="stop-color:#000000"/>
			<stop  offset="1" style="stop-color:#92ACC4"/>
		</linearGradient>
		<path class="st17" d="M171.3,107.2l11.6,39.4c0,0,0.8,0.4,5.3-0.3l-9-39.2c0,0-0.7-3.2,0.1-5.3L175,102
			C175,102,172.2,103.7,171.3,107.2z"/>
	</g>
	<g>
		
			<linearGradient id="SVGID_13_" gradientUnits="userSpaceOnUse" x1="249.5395" y1="193.2323" x2="247.1219" y2="156.5105" gradientTransform="matrix(0.9898 -0.1425 0.1425 0.9898 -60.1835 -9.2239)">
			<stop  offset="0" style="stop-color:#FF5C1B"/>
			<stop  offset="0.998" style="stop-color:#E03347"/>
		</linearGradient>
		<path class="st18" d="M215.1,111.6l-0.3-1.7l-7.2,1l-7.2,1l0.3,1.7c-2.5,2.3-2.5,5.3-2.5,5.3l4.9,27.4c0,0,3.1,1.3,9.9,0.4
			c7.3-1,9.6-3,9.6-3l-3.5-27.7C219.1,116,218.2,113.2,215.1,111.6z"/>
		
			<linearGradient id="SVGID_14_" gradientUnits="userSpaceOnUse" x1="240.6767" y1="158.6117" x2="255.2718" y2="158.6117" gradientTransform="matrix(0.9898 -0.1425 0.1425 0.9898 -60.1835 -9.2239)">
			<stop  offset="1.711450e-02" style="stop-color:#D697E3"/>
			<stop  offset="1" style="stop-color:#EDE5F3"/>
		</linearGradient>
		<path class="st19" d="M200.6,113.5c0,0,3,0.4,7.6-0.2c4.5-0.6,6.9-1.8,6.9-1.8l-0.1-1l-14.5,1.9L200.6,113.5z"/>
		<g>
			
				<radialGradient id="SVGID_15_" cx="242.7592" cy="155.2938" r="6.282" gradientTransform="matrix(1.0601 -0.1425 0.1526 0.9898 -73.3644 -9.2239)" gradientUnits="userSpaceOnUse">
				<stop  offset="0" style="stop-color:#00E0FF"/>
				<stop  offset="0.9944" style="stop-color:#1F84FF"/>
			</radialGradient>
			<path class="st20" d="M198.2,108.9l0.9,3.5c0,0,2.1,0.6,8.7-0.3c6.6-0.9,8.7-2,8.7-2l0-3.6c0,0-3.1,1-9.6,1.8
				C200.3,109.2,198.2,108.9,198.2,108.9z"/>
			<path class="st21" d="M198.2,108.9c0,0,8.3-3.2,18.2-2.5c0,0-3,1-9.6,1.8C200.2,109.2,198.2,108.9,198.2,108.9z"/>
			<path class="st21" d="M199.6,108.5l-0.4-0.8c0,0,7.6-2.4,16.2-2.3l-0.1,1.3c0,0-2.9,0.6-8.2,1.3
				C201.9,108.7,199.6,108.5,199.6,108.5z"/>
			
				<radialGradient id="SVGID_16_" cx="242.8728" cy="152.6181" r="5.4311" gradientTransform="matrix(1.0601 -0.1425 0.1526 0.9898 -73.3644 -9.2239)" gradientUnits="userSpaceOnUse">
				<stop  offset="0" style="stop-color:#00E0FF"/>
				<stop  offset="0.9944" style="stop-color:#1F84FF"/>
			</radialGradient>
			<path class="st22" d="M199.2,107.6c0,0,3.1,0,8-0.6c5-0.7,8.1-1.6,8.1-1.6l0,1.1c0,0-2.6,0.8-8.2,1.6c-5,0.7-7.5,0.5-7.5,0.5
				L199.2,107.6z"/>
			<polygon class="st23" points="199.4,112.2 198.7,109.2 199,109.1 199.6,112.2 			"/>
			<polygon class="st23" points="201,112.3 200.3,109.3 200.5,109.3 201.2,112.3 			"/>
			<polygon class="st23" points="202.7,112.3 202,109.3 202.2,109.2 202.9,112.3 			"/>
			<polygon class="st23" points="204.5,112.2 203.8,109.2 204,109.1 204.7,112.1 			"/>
			<polygon class="st23" points="213.8,110.7 213.4,107.7 213.6,107.6 214,110.7 			"/>
			<polygon class="st23" points="206.5,111.9 205.9,108.9 206.2,108.8 206.7,111.9 			"/>
			<polygon class="st23" points="209.2,111.5 208.7,108.5 208.9,108.5 209.4,111.5 			"/>
			<polygon class="st23" points="215.6,110.1 215.3,107.1 215.6,107 215.8,110.1 			"/>
			<polygon class="st23" points="211.7,111.2 211.2,108.2 211.4,108.1 211.9,111.2 			"/>
		</g>
		
			<linearGradient id="SVGID_17_" gradientUnits="userSpaceOnUse" x1="241.8321" y1="191.8187" x2="241.8321" y2="159.2327" gradientTransform="matrix(0.9898 -0.1425 0.1425 0.9898 -60.1835 -9.2239)">
			<stop  offset="0" style="stop-color:#000000"/>
			<stop  offset="1" style="stop-color:#C7AC75"/>
		</linearGradient>
		<path class="st24" d="M200.7,114.1c0,0-1.9,2.1-2.1,4.3l5.2,27.4c0,0,1.9,0.5,5.4,0l-4-28.3c0,0-0.1-2.3,0.4-3.5
			C205.7,114,202.7,114,200.7,114.1z"/>
		<path class="st16" d="M198.7,118.4c0,0,2.5,0.4,6.7-0.1c0,0-0.5-2.3,0.3-4.3l-5,0.1C200.7,114.1,198.9,116.3,198.7,118.4z"/>
		
			<linearGradient id="SVGID_18_" gradientUnits="userSpaceOnUse" x1="213.8651" y1="68.903" x2="232.9268" y2="63.4687" gradientTransform="matrix(0.9972 -7.506187e-02 7.506187e-02 0.9972 -15.441 82.6625)">
			<stop  offset="0" style="stop-color:#EDEDFF"/>
			<stop  offset="0.9829" style="stop-color:#D1D1EB"/>
		</linearGradient>
		<path class="st25" d="M203.6,121.1c2.4-0.1,8.5-0.4,13.6-2.1c0.5-0.2,1.1,0.2,1.2,0.7l2.8,22.3c0,0.4-0.2,0.7-0.5,0.9
			c-1.6,0.7-6.4,2.4-13.5,2.2c-0.4,0-0.8-0.3-0.9-0.7l-3.6-22.2C202.7,121.6,203.1,121.1,203.6,121.1z"/>
		
			<linearGradient id="SVGID_19_" gradientUnits="userSpaceOnUse" x1="255.6625" y1="178.313" x2="258.1108" y2="178.313" gradientTransform="matrix(0.9898 -0.1425 0.1425 0.9898 -60.1835 -9.2239)">
			<stop  offset="0" style="stop-color:#000000"/>
			<stop  offset="1" style="stop-color:#C7AC75"/>
		</linearGradient>
		<polygon class="st26" points="220.2,144.3 216.8,117.9 218.8,117 221.9,143.5 		"/>
	</g>
	<g>
		
			<radialGradient id="SVGID_20_" cx="194.8598" cy="203.4057" r="23.3934" gradientTransform="matrix(0.8912 -0.5547 0.5942 0.8321 -130.7047 76.774)" gradientUnits="userSpaceOnUse">
			<stop  offset="0" style="stop-color:#B3819D"/>
			<stop  offset="1" style="stop-color:#785CA6"/>
		</radialGradient>
		<path class="st27" d="M160.7,168.5L131.7,129c-0.8-1-0.5-2.4,0.6-3.1l31.7-19.7c1.1-0.7,2.6-0.4,3.4,0.7l27.5,40.8
			c0.7,1,0.4,2.4-0.7,3.1L164,169.1C162.9,169.7,161.5,169.5,160.7,168.5z"/>
		
			<linearGradient id="SVGID_21_" gradientUnits="userSpaceOnUse" x1="204.8777" y1="234.5683" x2="189.7332" y2="173.8271" gradientTransform="matrix(0.8321 -0.5547 0.5547 0.8321 -113.7202 76.774)">
			<stop  offset="0" style="stop-color:#B2C9FF"/>
			<stop  offset="0.2117" style="stop-color:#8E7BBB"/>
			<stop  offset="1" style="stop-color:#F6ECF2"/>
		</linearGradient>
		<path class="st28" d="M160.5,168.2l-29.1-39.4c-0.8-1-0.5-2.4,0.6-3.1l31.7-19.7c1.1-0.7,2.6-0.4,3.4,0.7l27.5,40.8
			c0.7,1,0.4,2.4-0.7,3.1l-30.1,18.4C162.7,169.4,161.3,169.2,160.5,168.2z"/>
		
			<linearGradient id="SVGID_22_" gradientUnits="userSpaceOnUse" x1="195.0177" y1="203.7678" x2="198.9303" y2="203.9044" gradientTransform="matrix(0.8321 -0.5547 0.5547 0.8321 -113.7202 76.774)">
			<stop  offset="0" style="stop-color:#F6ECF2"/>
			<stop  offset="1" style="stop-color:#AA9CCC"/>
		</linearGradient>
		<polygon class="st29" points="177.3,157.9 148.4,116.8 149.3,116.3 178.1,157.4 		"/>
		
			<linearGradient id="SVGID_23_" gradientUnits="userSpaceOnUse" x1="195.6672" y1="202.81" x2="197.9052" y2="202.8881" gradientTransform="matrix(0.8321 -0.5547 0.5547 0.8321 -113.7202 76.774)">
			<stop  offset="0.3568" style="stop-color:#000000"/>
			<stop  offset="1" style="stop-color:#E5EFE5"/>
		</linearGradient>
		<path class="st30" d="M173.3,151.7c0,0-17.8-24.6-21.5-30.6C151.8,121.1,169.3,145.5,173.3,151.7z"/>
		<g>
			
				<linearGradient id="SVGID_24_" gradientUnits="userSpaceOnUse" x1="178.4444" y1="185.5541" x2="192.586" y2="185.5541" gradientTransform="matrix(0.8321 -0.5547 0.5547 0.8321 -113.7202 76.774)">
				<stop  offset="0" style="stop-color:#E5EFE5"/>
				<stop  offset="1" style="stop-color:#603157"/>
			</linearGradient>
			<path class="st31" d="M138.2,128.4l7.6-4.7c1.2-0.7,2.4-1.5,3.8,0.9l0,0c0.9,1.2,0.6,2.9-0.6,3.6l-7.6,4.7
				c-1.2,0.7-2.9,0.3-3.8-0.9l0,0C136.1,130.3,137,129.1,138.2,128.4z"/>
			<path class="st32" d="M139.3,128.9l6.5-4c1-0.6,2-1.3,3.1,0.6l0,0c0.7,1,0.4,2.2-0.6,2.9l-6.5,4c-1,0.6-2.4,0.4-3.1-0.6l0,0
				C137.6,130.5,138.3,129.5,139.3,128.9z"/>
			
				<radialGradient id="SVGID_25_" cx="184.6793" cy="184.501" r="4.3231" gradientTransform="matrix(0.8912 -0.5547 0.5942 0.8321 -130.7047 76.774)" gradientUnits="userSpaceOnUse">
				<stop  offset="0" style="stop-color:#EBD7E3"/>
				<stop  offset="0.379" style="stop-color:#D8C6DC"/>
				<stop  offset="0.9829" style="stop-color:#BDAFD2"/>
			</radialGradient>
			<path class="st33" d="M139,128.1l6.5-4c1-0.6,2-1.3,3.1,0.6l0,0c0.7,1,0.4,2.2-0.6,2.9l-6.5,4c-1,0.6-2.4,0.4-3.1-0.6l0,0
				C137.2,129.8,138,128.8,139,128.1z"/>
			
				<linearGradient id="SVGID_26_" gradientUnits="userSpaceOnUse" x1="186.868" y1="187.7549" x2="184.4419" y2="181.0168" gradientTransform="matrix(0.8321 -0.5547 0.5547 0.8321 -113.7202 76.774)">
				<stop  offset="1.711450e-02" style="stop-color:#D6CEE3"/>
				<stop  offset="1" style="stop-color:#F4EFFF"/>
			</linearGradient>
			<path class="st34" d="M138.6,127.5l6.5-4c1-0.6,2.4-0.4,3.1,0.6l0,0c0.7,1,0.4,2.2-0.6,2.9l-6.5,4c-1,0.6-2.4,0.4-3.1-0.6l0,0
				C137.3,129.4,137.5,128.1,138.6,127.5z"/>
			
				<linearGradient id="SVGID_27_" gradientUnits="userSpaceOnUse" x1="186.8074" y1="187.5868" x2="184.5023" y2="181.1848" gradientTransform="matrix(0.8321 -0.5547 0.5547 0.8321 -113.7202 76.774)">
				<stop  offset="1.711450e-02" style="stop-color:#E2DCEB"/>
				<stop  offset="1" style="stop-color:#FFFFFF"/>
			</linearGradient>
			<path class="st35" d="M138.8,127.5l6.2-3.8c1-0.6,2.3-0.4,2.9,0.5l0,0c0.6,0.9,0.4,2.1-0.6,2.7l-6.2,3.8c-1,0.6-2.3,0.4-2.9-0.5
				l0,0C137.6,129.3,137.8,128.1,138.8,127.5z"/>
			
				<linearGradient id="SVGID_28_" gradientUnits="userSpaceOnUse" x1="185.9439" y1="186.0807" x2="184.7214" y2="182.6855" gradientTransform="matrix(0.8321 -0.5547 0.5547 0.8321 -113.7202 76.774)">
				<stop  offset="1.711450e-02" style="stop-color:#D6CEE3"/>
				<stop  offset="1" style="stop-color:#F4EFFF"/>
			</linearGradient>
			<polygon class="st36" points="141.7,125.8 141.6,126.3 143.4,128.9 143.9,128.9 144,128.5 142.1,125.9 			"/>
			<polygon class="st23" points="141.7,125.8 143.9,128.9 144,128.5 142.1,125.9 			"/>
		</g>
		
			<linearGradient id="SVGID_29_" gradientUnits="userSpaceOnUse" x1="178.7545" y1="183.1872" x2="190.2898" y2="183.1872" gradientTransform="matrix(0.8321 -0.5547 0.5547 0.8321 -113.7202 76.774)">
			<stop  offset="0" style="stop-color:#FFFFFF"/>
			<stop  offset="1" style="stop-color:#000000"/>
		</linearGradient>
		<path class="st37" d="M137.3,130.8c0,0,0.3-1,1.2-1.6c0.8-0.6,8.1-5,8.1-5s-0.2-0.7-0.8-1c0,0-6.7,4-7.7,4.8
			c-0.9,0.8-1.2,2.2-1.2,2.2S136.9,130.7,137.3,130.8z"/>
		<g>
			
				<linearGradient id="SVGID_30_" gradientUnits="userSpaceOnUse" x1="178.8302" y1="197.5725" x2="192.9717" y2="197.5725" gradientTransform="matrix(0.8321 -0.5547 0.5547 0.8321 -113.7202 76.774)">
				<stop  offset="0" style="stop-color:#E5EFE5"/>
				<stop  offset="1" style="stop-color:#603157"/>
			</linearGradient>
			<path class="st38" d="M145.2,138.1l7.6-4.7c1.2-0.7,2.4-1.5,3.8,0.9l0,0c0.9,1.2,0.6,2.9-0.6,3.6l-7.6,4.7
				c-1.2,0.7-2.9,0.3-3.8-0.9l0,0C143.1,140.1,144,138.9,145.2,138.1z"/>
			<path class="st32" d="M146.3,138.7l6.5-4c1-0.6,2-1.3,3.1,0.6l0,0c0.7,1,0.4,2.2-0.6,2.9l-6.5,4c-1,0.6-2.4,0.4-3.1-0.6l0,0
				C144.6,140.3,145.3,139.3,146.3,138.7z"/>
			
				<radialGradient id="SVGID_31_" cx="184.6794" cy="196.2623" r="4.3231" gradientTransform="matrix(0.8912 -0.5547 0.5942 0.8321 -130.7047 76.774)" gradientUnits="userSpaceOnUse">
				<stop  offset="0" style="stop-color:#EBD7E3"/>
				<stop  offset="0.379" style="stop-color:#D8C6DC"/>
				<stop  offset="0.9829" style="stop-color:#BDAFD2"/>
			</radialGradient>
			<path class="st39" d="M146,137.9l6.5-4c1-0.6,2-1.3,3.1,0.6l0,0c0.7,1,0.4,2.2-0.6,2.9l-6.5,4c-1,0.6-2.4,0.4-3.1-0.6l0,0
				C144.2,139.6,145,138.6,146,137.9z"/>
			
				<linearGradient id="SVGID_32_" gradientUnits="userSpaceOnUse" x1="187.2537" y1="199.7733" x2="184.8276" y2="193.0352" gradientTransform="matrix(0.8321 -0.5547 0.5547 0.8321 -113.7202 76.774)">
				<stop  offset="1.711450e-02" style="stop-color:#D6CEE3"/>
				<stop  offset="1" style="stop-color:#F4EFFF"/>
			</linearGradient>
			<path class="st40" d="M145.5,137.3l6.5-4c1-0.6,2.4-0.4,3.1,0.6l0,0c0.7,1,0.4,2.2-0.6,2.9l-6.5,4c-1,0.6-2.4,0.4-3.1-0.6l0,0
				C144.3,139.2,144.5,137.9,145.5,137.3z"/>
			
				<linearGradient id="SVGID_33_" gradientUnits="userSpaceOnUse" x1="187.1932" y1="199.6052" x2="184.8882" y2="193.2033" gradientTransform="matrix(0.8321 -0.5547 0.5547 0.8321 -113.7202 76.774)">
				<stop  offset="1.711450e-02" style="stop-color:#E2DCEB"/>
				<stop  offset="1" style="stop-color:#FFFFFF"/>
			</linearGradient>
			<path class="st41" d="M145.8,137.3l6.2-3.8c1-0.6,2.3-0.4,2.9,0.5l0,0c0.6,0.9,0.4,2.1-0.6,2.7l-6.2,3.8c-1,0.6-2.3,0.4-2.9-0.5
				l0,0C144.5,139.1,144.8,137.9,145.8,137.3z"/>
			
				<linearGradient id="SVGID_34_" gradientUnits="userSpaceOnUse" x1="186.3297" y1="198.0991" x2="185.1072" y2="194.7039" gradientTransform="matrix(0.8321 -0.5547 0.5547 0.8321 -113.7202 76.774)">
				<stop  offset="1.711450e-02" style="stop-color:#D6CEE3"/>
				<stop  offset="1" style="stop-color:#F4EFFF"/>
			</linearGradient>
			<polygon class="st42" points="148.7,135.6 148.6,136.1 150.4,138.7 150.9,138.7 151,138.3 149.1,135.7 			"/>
			<polygon class="st23" points="148.7,135.6 150.9,138.7 151,138.3 149.1,135.7 			"/>
		</g>
		
			<linearGradient id="SVGID_35_" gradientUnits="userSpaceOnUse" x1="179.1403" y1="195.2056" x2="190.6756" y2="195.2056" gradientTransform="matrix(0.8321 -0.5547 0.5547 0.8321 -113.7202 76.774)">
			<stop  offset="0" style="stop-color:#FFFFFF"/>
			<stop  offset="1" style="stop-color:#000000"/>
		</linearGradient>
		<path class="st43" d="M144.3,140.6c0,0,0.3-1,1.2-1.6c0.8-0.6,8.1-5,8.1-5s-0.2-0.7-0.8-1c0,0-6.7,4-7.7,4.8
			c-0.9,0.8-1.2,2.2-1.2,2.2S143.9,140.5,144.3,140.6z"/>
		<g>
			
				<linearGradient id="SVGID_36_" gradientUnits="userSpaceOnUse" x1="179.211" y1="209.4361" x2="193.3526" y2="209.4361" gradientTransform="matrix(0.8321 -0.5547 0.5547 0.8321 -113.7202 76.774)">
				<stop  offset="0" style="stop-color:#E5EFE5"/>
				<stop  offset="1" style="stop-color:#603157"/>
			</linearGradient>
			<path class="st44" d="M152.1,147.8l7.6-4.7c1.2-0.7,2.4-1.5,3.8,0.9l0,0c0.9,1.2,0.6,2.9-0.6,3.6l-7.6,4.7
				c-1.2,0.7-2.9,0.3-3.8-0.9l0,0C150,149.8,150.9,148.6,152.1,147.8z"/>
			<path class="st32" d="M153.2,148.3l6.5-4c1-0.6,2-1.3,3.1,0.6l0,0c0.7,1,0.4,2.2-0.6,2.9l-6.5,4c-1,0.6-2.4,0.4-3.1-0.6l0,0
				C151.5,150,152.2,149,153.2,148.3z"/>
			
				<radialGradient id="SVGID_37_" cx="184.6795" cy="207.8721" r="4.3231" gradientTransform="matrix(0.8912 -0.5547 0.5942 0.8321 -130.7047 76.774)" gradientUnits="userSpaceOnUse">
				<stop  offset="0" style="stop-color:#EBD7E3"/>
				<stop  offset="0.379" style="stop-color:#D8C6DC"/>
				<stop  offset="0.9829" style="stop-color:#BDAFD2"/>
			</radialGradient>
			<path class="st45" d="M152.9,147.6l6.5-4c1-0.6,2-1.3,3.1,0.6l0,0c0.7,1,0.4,2.2-0.6,2.9l-6.5,4c-1,0.6-2.4,0.4-3.1-0.6l0,0
				C151.1,149.2,151.9,148.2,152.9,147.6z"/>
			
				<linearGradient id="SVGID_38_" gradientUnits="userSpaceOnUse" x1="187.6345" y1="211.6369" x2="185.2085" y2="204.8988" gradientTransform="matrix(0.8321 -0.5547 0.5547 0.8321 -113.7202 76.774)">
				<stop  offset="1.711450e-02" style="stop-color:#D6CEE3"/>
				<stop  offset="1" style="stop-color:#F4EFFF"/>
			</linearGradient>
			<path class="st46" d="M152.4,146.9l6.5-4c1-0.6,2.4-0.4,3.1,0.6l0,0c0.7,1,0.4,2.2-0.6,2.9l-6.5,4c-1,0.6-2.4,0.4-3.1-0.6l0,0
				C151.1,148.9,151.4,147.6,152.4,146.9z"/>
			
				<linearGradient id="SVGID_39_" gradientUnits="userSpaceOnUse" x1="187.574" y1="211.4688" x2="185.2689" y2="205.0669" gradientTransform="matrix(0.8321 -0.5547 0.5547 0.8321 -113.7202 76.774)">
				<stop  offset="1.711450e-02" style="stop-color:#E2DCEB"/>
				<stop  offset="1" style="stop-color:#FFFFFF"/>
			</linearGradient>
			<path class="st47" d="M152.7,146.9l6.2-3.8c1-0.6,2.3-0.4,2.9,0.5l0,0c0.6,0.9,0.4,2.1-0.6,2.7l-6.2,3.8c-1,0.6-2.3,0.4-2.9-0.5
				l0,0C151.4,148.8,151.7,147.5,152.7,146.9z"/>
			
				<linearGradient id="SVGID_40_" gradientUnits="userSpaceOnUse" x1="186.7105" y1="209.9627" x2="185.488" y2="206.5675" gradientTransform="matrix(0.8321 -0.5547 0.5547 0.8321 -113.7202 76.774)">
				<stop  offset="1.711450e-02" style="stop-color:#D6CEE3"/>
				<stop  offset="1" style="stop-color:#F4EFFF"/>
			</linearGradient>
			<polygon class="st48" points="155.6,145.3 155.5,145.7 157.3,148.3 157.8,148.4 157.9,148 156,145.3 			"/>
			<polygon class="st23" points="155.6,145.3 157.8,148.4 157.9,148 156,145.3 			"/>
		</g>
		
			<linearGradient id="SVGID_41_" gradientUnits="userSpaceOnUse" x1="179.5211" y1="207.0692" x2="191.0564" y2="207.0692" gradientTransform="matrix(0.8321 -0.5547 0.5547 0.8321 -113.7202 76.774)">
			<stop  offset="0" style="stop-color:#FFFFFF"/>
			<stop  offset="1" style="stop-color:#000000"/>
		</linearGradient>
		<path class="st49" d="M151.2,150.2c0,0,0.3-1,1.2-1.6c0.8-0.6,8.1-5,8.1-5s-0.2-0.7-0.8-1c0,0-6.7,4-7.7,4.8
			c-0.9,0.8-1.2,2.2-1.2,2.2S150.8,150.1,151.2,150.2z"/>
		<g>
			
				<linearGradient id="SVGID_42_" gradientUnits="userSpaceOnUse" x1="179.6261" y1="222.368" x2="193.7677" y2="222.368" gradientTransform="matrix(0.8321 -0.5547 0.5547 0.8321 -113.7202 76.774)">
				<stop  offset="0" style="stop-color:#E5EFE5"/>
				<stop  offset="1" style="stop-color:#603157"/>
			</linearGradient>
			<path class="st50" d="M159.6,158.3l7.6-4.7c1.2-0.7,2.4-1.5,3.8,0.9l0,0c0.9,1.2,0.6,2.9-0.6,3.6l-7.6,4.7
				c-1.2,0.7-2.9,0.3-3.8-0.9l0,0C157.5,160.3,158.4,159.1,159.6,158.3z"/>
			<path class="st32" d="M160.8,158.9l6.5-4c1-0.6,2-1.3,3.1,0.6l0,0c0.7,1,0.4,2.2-0.6,2.9l-6.5,4c-1,0.6-2.4,0.4-3.1-0.6l0,0
				C159,160.5,159.7,159.5,160.8,158.9z"/>
			
				<radialGradient id="SVGID_43_" cx="184.6796" cy="220.5274" r="4.3231" gradientTransform="matrix(0.8912 -0.5547 0.5942 0.8321 -130.7047 76.774)" gradientUnits="userSpaceOnUse">
				<stop  offset="0" style="stop-color:#EBD7E3"/>
				<stop  offset="0.379" style="stop-color:#D8C6DC"/>
				<stop  offset="0.9829" style="stop-color:#BDAFD2"/>
			</radialGradient>
			<path class="st51" d="M160.4,158.1l6.5-4c1-0.6,2-1.3,3.1,0.6l0,0c0.7,1,0.4,2.2-0.6,2.9l-6.5,4c-1,0.6-2.4,0.4-3.1-0.6l0,0
				C158.6,159.7,159.4,158.8,160.4,158.1z"/>
			
				<linearGradient id="SVGID_44_" gradientUnits="userSpaceOnUse" x1="188.0496" y1="224.5688" x2="185.6236" y2="217.8308" gradientTransform="matrix(0.8321 -0.5547 0.5547 0.8321 -113.7202 76.774)">
				<stop  offset="1.711450e-02" style="stop-color:#D6CEE3"/>
				<stop  offset="1" style="stop-color:#F4EFFF"/>
			</linearGradient>
			<path class="st52" d="M160,157.5l6.5-4c1-0.6,2.4-0.4,3.1,0.6l0,0c0.7,1,0.4,2.2-0.6,2.9l-6.5,4c-1,0.6-2.4,0.4-3.1-0.6l0,0
				C158.7,159.4,158.9,158.1,160,157.5z"/>
			
				<linearGradient id="SVGID_45_" gradientUnits="userSpaceOnUse" x1="187.9891" y1="224.4008" x2="185.6841" y2="217.9988" gradientTransform="matrix(0.8321 -0.5547 0.5547 0.8321 -113.7202 76.774)">
				<stop  offset="1.711450e-02" style="stop-color:#E2DCEB"/>
				<stop  offset="1" style="stop-color:#FFFFFF"/>
			</linearGradient>
			<path class="st53" d="M160.2,157.5l6.2-3.8c1-0.6,2.3-0.4,2.9,0.5l0,0c0.6,0.9,0.4,2.1-0.6,2.7l-6.2,3.8c-1,0.6-2.3,0.4-2.9-0.5
				l0,0C159,159.3,159.2,158.1,160.2,157.5z"/>
			
				<linearGradient id="SVGID_46_" gradientUnits="userSpaceOnUse" x1="187.1256" y1="222.8947" x2="185.9031" y2="219.4995" gradientTransform="matrix(0.8321 -0.5547 0.5547 0.8321 -113.7202 76.774)">
				<stop  offset="1.711450e-02" style="stop-color:#D6CEE3"/>
				<stop  offset="1" style="stop-color:#F4EFFF"/>
			</linearGradient>
			<polygon class="st54" points="163.1,155.8 163,156.3 164.9,158.8 165.3,158.9 165.4,158.5 163.5,155.9 			"/>
			<polygon class="st23" points="163.1,155.8 165.3,158.9 165.4,158.5 163.5,155.9 			"/>
		</g>
		<g>
			
				<linearGradient id="SVGID_47_" gradientUnits="userSpaceOnUse" x1="198.9712" y1="186.1955" x2="213.1127" y2="186.1955" gradientTransform="matrix(0.8321 -0.5547 0.5547 0.8321 -113.7202 76.774)">
				<stop  offset="0" style="stop-color:#E5EFE5"/>
				<stop  offset="1" style="stop-color:#603157"/>
			</linearGradient>
			<path class="st55" d="M155.6,117.5l7.6-4.7c1.2-0.7,2.4-1.5,3.8,0.9l0,0c0.9,1.2,0.6,2.9-0.6,3.6l-7.6,4.7
				c-1.2,0.7-2.9,0.3-3.8-0.9l0,0C153.5,119.5,154.4,118.3,155.6,117.5z"/>
			<path class="st32" d="M156.8,118l6.5-4c1-0.6,2-1.3,3.1,0.6l0,0c0.7,1,0.4,2.2-0.6,2.9l-6.5,4c-1,0.6-2.4,0.4-3.1-0.6l0,0
				C155,119.7,155.8,118.7,156.8,118z"/>
			
				<radialGradient id="SVGID_48_" cx="204.2438" cy="184.5009" r="4.3231" gradientTransform="matrix(0.8912 -0.5547 0.5942 0.8321 -130.7047 76.774)" gradientUnits="userSpaceOnUse">
				<stop  offset="0" style="stop-color:#EBD7E3"/>
				<stop  offset="0.379" style="stop-color:#D8C6DC"/>
				<stop  offset="0.9829" style="stop-color:#BDAFD2"/>
			</radialGradient>
			<path class="st56" d="M156.5,117.3l6.5-4c1-0.6,2-1.3,3.1,0.6l0,0c0.7,1,0.4,2.2-0.6,2.9l-6.5,4c-1,0.6-2.4,0.4-3.1-0.6l0,0
				C154.7,118.9,155.4,117.9,156.5,117.3z"/>
			
				<linearGradient id="SVGID_49_" gradientUnits="userSpaceOnUse" x1="207.3947" y1="188.3963" x2="204.9686" y2="181.6581" gradientTransform="matrix(0.8321 -0.5547 0.5547 0.8321 -113.7202 76.774)">
				<stop  offset="1.711450e-02" style="stop-color:#D6CEE3"/>
				<stop  offset="1" style="stop-color:#F4EFFF"/>
			</linearGradient>
			<path class="st57" d="M156,116.6l6.5-4c1-0.6,2.4-0.4,3.1,0.6l0,0c0.7,1,0.4,2.2-0.6,2.9l-6.5,4c-1,0.6-2.4,0.4-3.1-0.6l0,0
				C154.7,118.6,155,117.3,156,116.6z"/>
			
				<linearGradient id="SVGID_50_" gradientUnits="userSpaceOnUse" x1="207.3342" y1="188.2282" x2="205.0291" y2="181.8262" gradientTransform="matrix(0.8321 -0.5547 0.5547 0.8321 -113.7202 76.774)">
				<stop  offset="1.711450e-02" style="stop-color:#E2DCEB"/>
				<stop  offset="1" style="stop-color:#FFFFFF"/>
			</linearGradient>
			<path class="st58" d="M156.2,116.6l6.2-3.8c1-0.6,2.3-0.4,2.9,0.5l0,0c0.6,0.9,0.4,2.1-0.6,2.7l-6.2,3.8c-1,0.6-2.3,0.4-2.9-0.5
				l0,0C155,118.5,155.2,117.2,156.2,116.6z"/>
			
				<linearGradient id="SVGID_51_" gradientUnits="userSpaceOnUse" x1="206.4707" y1="186.722" x2="205.2482" y2="183.3269" gradientTransform="matrix(0.8321 -0.5547 0.5547 0.8321 -113.7202 76.774)">
				<stop  offset="1.711450e-02" style="stop-color:#D6CEE3"/>
				<stop  offset="1" style="stop-color:#F4EFFF"/>
			</linearGradient>
			<polygon class="st59" points="159.1,115 159,115.4 160.9,118 161.3,118.1 161.4,117.7 159.6,115 			"/>
			<polygon class="st23" points="159.1,115 161.3,118.1 161.4,117.7 159.6,115 			"/>
		</g>
		<g>
			
				<linearGradient id="SVGID_52_" gradientUnits="userSpaceOnUse" x1="199.357" y1="198.2138" x2="213.4985" y2="198.2138" gradientTransform="matrix(0.8321 -0.5547 0.5547 0.8321 -113.7202 76.774)">
				<stop  offset="0" style="stop-color:#E5EFE5"/>
				<stop  offset="1" style="stop-color:#603157"/>
			</linearGradient>
			<path class="st60" d="M162.6,127.3l7.6-4.7c1.2-0.7,2.4-1.5,3.8,0.9l0,0c0.9,1.2,0.6,2.9-0.6,3.6l-7.6,4.7
				c-1.2,0.7-2.9,0.3-3.8-0.9l0,0C160.5,129.2,161.4,128,162.6,127.3z"/>
			<path class="st32" d="M163.8,127.8l6.5-4c1-0.6,2-1.3,3.1,0.6l0,0c0.7,1,0.4,2.2-0.6,2.9l-6.5,4c-1,0.6-2.4,0.4-3.1-0.6l0,0
				C162,129.4,162.8,128.5,163.8,127.8z"/>
			
				<radialGradient id="SVGID_53_" cx="204.2439" cy="196.2622" r="4.3231" gradientTransform="matrix(0.8912 -0.5547 0.5942 0.8321 -130.7047 76.774)" gradientUnits="userSpaceOnUse">
				<stop  offset="0" style="stop-color:#EBD7E3"/>
				<stop  offset="0.379" style="stop-color:#D8C6DC"/>
				<stop  offset="0.9829" style="stop-color:#BDAFD2"/>
			</radialGradient>
			<path class="st61" d="M163.4,127.1l6.5-4c1-0.6,2-1.3,3.1,0.6l0,0c0.7,1,0.4,2.2-0.6,2.9l-6.5,4c-1,0.6-2.4,0.4-3.1-0.6l0,0
				C161.7,128.7,162.4,127.7,163.4,127.1z"/>
			
				<linearGradient id="SVGID_54_" gradientUnits="userSpaceOnUse" x1="207.7805" y1="200.4147" x2="205.3544" y2="193.6766" gradientTransform="matrix(0.8321 -0.5547 0.5547 0.8321 -113.7202 76.774)">
				<stop  offset="1.711450e-02" style="stop-color:#D6CEE3"/>
				<stop  offset="1" style="stop-color:#F4EFFF"/>
			</linearGradient>
			<path class="st62" d="M163,126.4l6.5-4c1-0.6,2.4-0.4,3.1,0.6l0,0c0.7,1,0.4,2.2-0.6,2.9l-6.5,4c-1,0.6-2.4,0.4-3.1-0.6l0,0
				C161.7,128.4,162,127.1,163,126.4z"/>
			
				<linearGradient id="SVGID_55_" gradientUnits="userSpaceOnUse" x1="207.72" y1="200.2466" x2="205.4149" y2="193.8446" gradientTransform="matrix(0.8321 -0.5547 0.5547 0.8321 -113.7202 76.774)">
				<stop  offset="1.711450e-02" style="stop-color:#E2DCEB"/>
				<stop  offset="1" style="stop-color:#FFFFFF"/>
			</linearGradient>
			<path class="st63" d="M163.2,126.4l6.2-3.8c1-0.6,2.3-0.4,2.9,0.5l0,0c0.6,0.9,0.4,2.1-0.6,2.7l-6.2,3.8c-1,0.6-2.3,0.4-2.9-0.5
				l0,0C162,128.2,162.2,127,163.2,126.4z"/>
			
				<linearGradient id="SVGID_56_" gradientUnits="userSpaceOnUse" x1="206.8565" y1="198.7404" x2="205.634" y2="195.3453" gradientTransform="matrix(0.8321 -0.5547 0.5547 0.8321 -113.7202 76.774)">
				<stop  offset="1.711450e-02" style="stop-color:#D6CEE3"/>
				<stop  offset="1" style="stop-color:#F4EFFF"/>
			</linearGradient>
			<polygon class="st64" points="166.1,124.8 166,125.2 167.9,127.8 168.3,127.9 168.4,127.5 166.5,124.8 			"/>
			<polygon class="st23" points="166.1,124.8 168.3,127.9 168.4,127.5 166.5,124.8 			"/>
		</g>
		
			<linearGradient id="SVGID_57_" gradientUnits="userSpaceOnUse" x1="199.6671" y1="195.847" x2="211.2023" y2="195.847" gradientTransform="matrix(0.8321 -0.5547 0.5547 0.8321 -113.7202 76.774)">
			<stop  offset="0" style="stop-color:#FFFFFF"/>
			<stop  offset="1" style="stop-color:#000000"/>
		</linearGradient>
		<path class="st65" d="M161.7,129.7c0,0,0.3-1,1.2-1.6c0.8-0.6,8.1-5,8.1-5s-0.2-0.7-0.8-1c0,0-6.7,4-7.7,4.8
			c-0.9,0.8-1.2,2.2-1.2,2.2S161.3,129.6,161.7,129.7z"/>
		<g>
			
				<linearGradient id="SVGID_58_" gradientUnits="userSpaceOnUse" x1="199.7378" y1="210.0774" x2="213.8793" y2="210.0774" gradientTransform="matrix(0.8321 -0.5547 0.5547 0.8321 -113.7202 76.774)">
				<stop  offset="0" style="stop-color:#E5EFE5"/>
				<stop  offset="0.4811" style="stop-color:#603157"/>
				<stop  offset="0.9757" style="stop-color:#91708A"/>
			</linearGradient>
			<path class="st66" d="M169.5,137l7.6-4.7c1.2-0.7,2.4-1.5,3.8,0.9l0,0c0.9,1.2,0.6,2.9-0.6,3.6l-7.6,4.7
				c-1.2,0.7-2.9,0.3-3.8-0.9l0,0C167.4,138.9,168.3,137.7,169.5,137z"/>
			<path class="st32" d="M170.7,137.5l6.5-4c1-0.6,2-1.3,3.1,0.6l0,0c0.7,1,0.4,2.2-0.6,2.9l-6.5,4c-1,0.6-2.4,0.4-3.1-0.6l0,0
				C168.9,139.1,169.7,138.1,170.7,137.5z"/>
			
				<radialGradient id="SVGID_59_" cx="204.244" cy="207.8719" r="4.3231" gradientTransform="matrix(0.8912 -0.5547 0.5942 0.8321 -130.7047 76.774)" gradientUnits="userSpaceOnUse">
				<stop  offset="0" style="stop-color:#EBD7E3"/>
				<stop  offset="0.379" style="stop-color:#D8C6DC"/>
				<stop  offset="0.9829" style="stop-color:#BDAFD2"/>
			</radialGradient>
			<path class="st67" d="M170.3,136.7l6.5-4c1-0.6,2-1.3,3.1,0.6l0,0c0.7,1,0.4,2.2-0.6,2.9l-6.5,4c-1,0.6-2.4,0.4-3.1-0.6l0,0
				C168.6,138.4,169.3,137.4,170.3,136.7z"/>
			
				<linearGradient id="SVGID_60_" gradientUnits="userSpaceOnUse" x1="208.1613" y1="212.2782" x2="205.7352" y2="205.5401" gradientTransform="matrix(0.8321 -0.5547 0.5547 0.8321 -113.7202 76.774)">
				<stop  offset="1.711450e-02" style="stop-color:#D6CEE3"/>
				<stop  offset="1" style="stop-color:#F4EFFF"/>
			</linearGradient>
			<path class="st68" d="M169.9,136.1l6.5-4c1-0.6,2.4-0.4,3.1,0.6l0,0c0.7,1,0.4,2.2-0.6,2.9l-6.5,4c-1,0.6-2.4,0.4-3.1-0.6l0,0
				C168.6,138,168.9,136.7,169.9,136.1z"/>
			
				<linearGradient id="SVGID_61_" gradientUnits="userSpaceOnUse" x1="208.1008" y1="212.1101" x2="205.7957" y2="205.7082" gradientTransform="matrix(0.8321 -0.5547 0.5547 0.8321 -113.7202 76.774)">
				<stop  offset="1.711450e-02" style="stop-color:#E2DCEB"/>
				<stop  offset="1" style="stop-color:#FFFFFF"/>
			</linearGradient>
			<path class="st69" d="M170.1,136.1l6.2-3.8c1-0.6,2.3-0.4,2.9,0.5l0,0c0.6,0.9,0.4,2.1-0.6,2.7l-6.2,3.8c-1,0.6-2.3,0.4-2.9-0.5
				l0,0C168.9,137.9,169.1,136.7,170.1,136.1z"/>
			
				<linearGradient id="SVGID_62_" gradientUnits="userSpaceOnUse" x1="207.2373" y1="210.604" x2="206.0148" y2="207.2089" gradientTransform="matrix(0.8321 -0.5547 0.5547 0.8321 -113.7202 76.774)">
				<stop  offset="1.711450e-02" style="stop-color:#D6CEE3"/>
				<stop  offset="1" style="stop-color:#F4EFFF"/>
			</linearGradient>
			<polygon class="st70" points="173,134.4 172.9,134.9 174.8,137.5 175.2,137.5 175.3,137.1 173.4,134.5 			"/>
			<polygon class="st23" points="173,134.4 175.2,137.5 175.3,137.1 173.4,134.5 			"/>
		</g>
		<g>
			
				<linearGradient id="SVGID_63_" gradientUnits="userSpaceOnUse" x1="200.1529" y1="223.0094" x2="214.2944" y2="223.0094" gradientTransform="matrix(0.8321 -0.5547 0.5547 0.8321 -113.7202 76.774)">
				<stop  offset="0" style="stop-color:#E5EFE5"/>
				<stop  offset="0.4811" style="stop-color:#603157"/>
				<stop  offset="0.9757" style="stop-color:#91708A"/>
			</linearGradient>
			<path class="st71" d="M177,147.5l7.6-4.7c1.2-0.7,2.4-1.5,3.8,0.9l0,0c0.9,1.2,0.6,2.9-0.6,3.6l-7.6,4.7
				c-1.2,0.7-2.9,0.3-3.8-0.9l0,0C175,149.4,175.8,148.2,177,147.5z"/>
			<path class="st32" d="M178.2,148l6.5-4c1-0.6,2-1.3,3.1,0.6l0,0c0.7,1,0.4,2.2-0.6,2.9l-6.5,4c-1,0.6-2.4,0.4-3.1-0.6l0,0
				C176.4,149.6,177.2,148.6,178.2,148z"/>
			
				<radialGradient id="SVGID_64_" cx="204.2441" cy="220.5272" r="4.3231" gradientTransform="matrix(0.8912 -0.5547 0.5942 0.8321 -130.7047 76.774)" gradientUnits="userSpaceOnUse">
				<stop  offset="0" style="stop-color:#EBD7E3"/>
				<stop  offset="0.379" style="stop-color:#D8C6DC"/>
				<stop  offset="0.9829" style="stop-color:#BDAFD2"/>
			</radialGradient>
			<path class="st72" d="M177.9,147.3l6.5-4c1-0.6,2-1.3,3.1,0.6l0,0c0.7,1,0.4,2.2-0.6,2.9l-6.5,4c-1,0.6-2.4,0.4-3.1-0.6l0,0
				C176.1,148.9,176.8,147.9,177.9,147.3z"/>
			
				<linearGradient id="SVGID_65_" gradientUnits="userSpaceOnUse" x1="208.5764" y1="225.2102" x2="206.1503" y2="218.4721" gradientTransform="matrix(0.8321 -0.5547 0.5547 0.8321 -113.7202 76.774)">
				<stop  offset="1.711450e-02" style="stop-color:#D6CEE3"/>
				<stop  offset="1" style="stop-color:#F4EFFF"/>
			</linearGradient>
			<path class="st73" d="M177.4,146.6l6.5-4c1-0.6,2.4-0.4,3.1,0.6l0,0c0.7,1,0.4,2.2-0.6,2.9l-6.5,4c-1,0.6-2.4,0.4-3.1-0.6l0,0
				C176.1,148.5,176.4,147.3,177.4,146.6z"/>
			
				<linearGradient id="SVGID_66_" gradientUnits="userSpaceOnUse" x1="208.5159" y1="225.0422" x2="206.2108" y2="218.6402" gradientTransform="matrix(0.8321 -0.5547 0.5547 0.8321 -113.7202 76.774)">
				<stop  offset="1.711450e-02" style="stop-color:#E2DCEB"/>
				<stop  offset="1" style="stop-color:#FFFFFF"/>
			</linearGradient>
			<path class="st74" d="M177.6,146.6l6.2-3.8c1-0.6,2.3-0.4,2.9,0.5l0,0c0.6,0.9,0.4,2.1-0.6,2.7l-6.2,3.8c-1,0.6-2.3,0.4-2.9-0.5
				l0,0C176.4,148.4,176.7,147.2,177.6,146.6z"/>
			
				<linearGradient id="SVGID_67_" gradientUnits="userSpaceOnUse" x1="207.6523" y1="223.536" x2="206.4299" y2="220.1408" gradientTransform="matrix(0.8321 -0.5547 0.5547 0.8321 -113.7202 76.774)">
				<stop  offset="1.711450e-02" style="stop-color:#D6CEE3"/>
				<stop  offset="1" style="stop-color:#F4EFFF"/>
			</linearGradient>
			<polygon class="st75" points="180.5,145 180.4,145.4 182.3,148 182.7,148 182.8,147.7 181,145 			"/>
			<polygon class="st23" points="180.5,145 182.7,148 182.8,147.7 181,145 			"/>
		</g>
		
			<linearGradient id="SVGID_68_" gradientUnits="userSpaceOnUse" x1="179.9362" y1="220.0012" x2="191.4715" y2="220.0012" gradientTransform="matrix(0.8321 -0.5547 0.5547 0.8321 -113.7202 76.774)">
			<stop  offset="0" style="stop-color:#FFFFFF"/>
			<stop  offset="1" style="stop-color:#000000"/>
		</linearGradient>
		<path class="st76" d="M158.7,160.8c0,0,0.3-1,1.2-1.6c0.8-0.6,8.1-5,8.1-5s-0.2-0.7-0.8-1c0,0-6.7,4-7.7,4.8
			c-0.9,0.8-1.2,2.2-1.2,2.2S158.3,160.6,158.7,160.8z"/>
	</g>
	
		<linearGradient id="SVGID_69_" gradientUnits="userSpaceOnUse" x1="236.581" y1="272.7075" x2="236.581" y2="157.537" gradientTransform="matrix(0.9341 -0.3569 0.3569 0.9341 -59.7371 54.5399)">
		<stop  offset="0" style="stop-color:#FF691B"/>
		<stop  offset="0.998" style="stop-color:#FE6A3B"/>
	</linearGradient>
	<polygon class="st77" points="220.8,131.7 211,131.2 227.7,113.4 267.3,217 262.1,223.5 	"/>
	<polygon class="st78" points="267.3,217 257.6,213.8 220.8,131.7 211,131.2 227.7,113.4 	"/>
	<g>
		
			<linearGradient id="SVGID_70_" gradientUnits="userSpaceOnUse" x1="221.8199" y1="100.6107" x2="231.269" y2="100.6107" gradientTransform="matrix(0.6311 -0.7757 0.7757 0.6311 -61.2501 277.2344)">
			<stop  offset="0" style="stop-color:#E3E3FF"/>
			<stop  offset="0.9829" style="stop-color:#E0D1EB"/>
		</linearGradient>
		<path class="st79" d="M171.5,179.1L142.4,157c0,0,4-3.2,6.5-6.9l27.7,23C176.7,173.1,174.9,176.5,171.5,179.1z"/>
		
			<linearGradient id="SVGID_71_" gradientUnits="userSpaceOnUse" x1="223.0386" y1="120.7159" x2="230.9354" y2="120.7159" gradientTransform="matrix(0.6311 -0.7757 0.7757 0.6311 -61.2501 277.2344)">
			<stop  offset="0" style="stop-color:#E3E3FF"/>
			<stop  offset="0.9829" style="stop-color:#E0D1EB"/>
		</linearGradient>
		<path class="st80" d="M171.5,179.1c0,0,1.7-0.2,3.3-0.8l1.7,1.3l1.5-1.7l-1.6-1.2c0,0,0.9-2,0.3-3.5
			C176.7,173.1,174.1,176.9,171.5,179.1z"/>
		
			<linearGradient id="SVGID_72_" gradientUnits="userSpaceOnUse" x1="226.651" y1="107.7544" x2="226.651" y2="82.4895" gradientTransform="matrix(0.6311 -0.7757 0.7757 0.6311 -61.2501 277.2344)">
			<stop  offset="0" style="stop-color:#FFF3FF"/>
			<stop  offset="0.9829" style="stop-color:#E7E2EE"/>
		</linearGradient>
		<polygon class="st81" points="163.2,171.8 167.7,166.6 148.4,150.4 143.2,156.6 		"/>
		
			<radialGradient id="SVGID_73_" cx="173.5361" cy="106.33" r="2.7033" gradientTransform="matrix(0.5793 -0.6649 0.8308 0.6311 -21.6016 216.0949)" gradientUnits="userSpaceOnUse">
			<stop  offset="0" style="stop-color:#7C65E0"/>
			<stop  offset="0.9944" style="stop-color:#954CB8"/>
		</radialGradient>
		<path class="st82" d="M163.2,171.8l0.8,0.6c0,0,2.4,0,3.7-1.5c1.3-1.5,1-3.5,1-3.5l-1-0.7C167.7,166.6,165.6,168.9,163.2,171.8z"
			/>
		
			<linearGradient id="SVGID_74_" gradientUnits="userSpaceOnUse" x1="219.1653" y1="82.9747" x2="234.2269" y2="82.9747" gradientTransform="matrix(0.6311 -0.7757 0.7757 0.6311 -61.2501 277.2344)">
			<stop  offset="0" style="stop-color:#E3E3FF"/>
			<stop  offset="0.9829" style="stop-color:#E0D1EB"/>
		</linearGradient>
		<path class="st83" d="M140.4,158.7l0.9,0.5c0,0,2.7-0.9,5.9-4.5c3.6-4.1,4.1-6.2,4.1-6.2l-0.7-0.9L140.4,158.7z"/>
		
			<linearGradient id="SVGID_75_" gradientUnits="userSpaceOnUse" x1="219.1653" y1="82.2957" x2="234.2269" y2="82.2957" gradientTransform="matrix(0.6311 -0.7757 0.7757 0.6311 -61.2501 277.2344)">
			<stop  offset="0" style="stop-color:#FFF3FF"/>
			<stop  offset="0.9829" style="stop-color:#E7E2EE"/>
		</linearGradient>
		<path class="st84" d="M140.4,158.7c0,0,3.5-6.8,10.2-11.1c0,0-0.2,2.4-4.4,6.8C142.1,158.5,140.4,158.7,140.4,158.7z"/>
		
			<linearGradient id="SVGID_76_" gradientUnits="userSpaceOnUse" x1="221.9036" y1="82.0781" x2="231.489" y2="82.0781" gradientTransform="matrix(0.6311 -0.7757 0.7757 0.6311 -61.2501 277.2344)">
			<stop  offset="0" style="stop-color:#C2C9F3"/>
			<stop  offset="0.9829" style="stop-color:#C7B5E3"/>
		</linearGradient>
		<path class="st85" d="M142.2,156.7c0,0,0.5-1.4,2.6-3.8c2.2-2.5,3.9-3.3,3.9-3.3s-0.6,1.5-2.8,4
			C144,155.8,142.2,156.7,142.2,156.7z"/>
		
			<linearGradient id="SVGID_77_" gradientUnits="userSpaceOnUse" x1="226.4503" y1="82.6938" x2="226.4503" y2="61.9056" gradientTransform="matrix(0.6311 -0.7757 0.7757 0.6311 -61.2501 277.2344)">
			<stop  offset="0" style="stop-color:#FFF3FF"/>
			<stop  offset="0.9829" style="stop-color:#E7E2EE"/>
		</linearGradient>
		<path class="st86" d="M142.9,156.3l-12.7-10.1l-2-3.8l2.8-3.2l4.3,1.2l13,10.1C148.2,150.6,146.1,154.1,142.9,156.3z"/>
		
			<linearGradient id="SVGID_78_" gradientUnits="userSpaceOnUse" x1="221.9654" y1="87.4235" x2="231.2567" y2="87.4235" gradientTransform="matrix(0.6311 -0.7757 0.7757 0.6311 -61.2501 277.2344)">
			<stop  offset="1.711450e-02" style="stop-color:#D697E3"/>
			<stop  offset="1" style="stop-color:#EDE5F3"/>
		</linearGradient>
		<path class="st87" d="M143.7,157.8l0.8,0.6c0,0,5.1-5.1,10.9-3L150,151C150,151,147.1,155.4,143.7,157.8z"/>
		<path class="st16" d="M171.6,178.7l-24.8-18.8c0,0,1.3-1.4,2.4-1.5l24.5,18.6C173.7,177,172.1,178.3,171.6,178.7z"/>
		
			<linearGradient id="SVGID_79_" gradientUnits="userSpaceOnUse" x1="225.3578" y1="82.591" x2="225.3578" y2="63.4399" gradientTransform="matrix(0.6311 -0.7757 0.7757 0.6311 -61.2501 277.2344)">
			<stop  offset="0" style="stop-color:#FFF3FF"/>
			<stop  offset="0.9829" style="stop-color:#F6F4F9"/>
		</linearGradient>
		<polygon class="st88" points="144.8,154.7 132.4,145 130.2,142.5 130.5,142 132.8,144.5 145.3,154.2 		"/>
		
			<linearGradient id="SVGID_80_" gradientUnits="userSpaceOnUse" x1="226.3769" y1="82.7602" x2="226.3769" y2="63.4598" gradientTransform="matrix(0.6311 -0.7757 0.7757 0.6311 -61.2501 277.2344)">
			<stop  offset="0" style="stop-color:#EDE5F3"/>
			<stop  offset="0.9882" style="stop-color:#D6ACE3"/>
		</linearGradient>
		<polygon class="st89" points="131.3,141.2 146.4,153.1 145.3,154.2 132.8,144.5 130.5,142 		"/>
		
			<linearGradient id="SVGID_81_" gradientUnits="userSpaceOnUse" x1="226.4453" y1="69.4174" x2="226.4453" y2="63.2344" gradientTransform="matrix(0.6311 -0.7757 0.7757 0.6311 -61.2501 277.2344)">
			<stop  offset="0" style="stop-color:#EDE5F3"/>
			<stop  offset="0.9882" style="stop-color:#D6ACE3"/>
		</linearGradient>
		<polygon class="st90" points="129.9,145.7 132.8,145.3 132.4,145 131.3,143.7 131.7,143.3 135.5,144.6 137.9,142.5 135.3,140.4 
			132.6,139.7 128.9,143.7 		"/>
		
			<linearGradient id="SVGID_82_" gradientUnits="userSpaceOnUse" x1="218.8773" y1="62.1612" x2="233.9389" y2="62.1612" gradientTransform="matrix(0.6311 -0.7757 0.7757 0.6311 -61.2501 277.2344)">
			<stop  offset="0" style="stop-color:#E3E3FF"/>
			<stop  offset="0.9829" style="stop-color:#E0D1EB"/>
		</linearGradient>
		<path class="st91" d="M124,145.8l0.9,0.5c0,0,2.7-0.9,5.9-4.5c3.6-4.1,4.1-6.2,4.1-6.2l-0.7-0.9L124,145.8z"/>
		
			<linearGradient id="SVGID_83_" gradientUnits="userSpaceOnUse" x1="218.8773" y1="61.4822" x2="233.9389" y2="61.4822" gradientTransform="matrix(0.6311 -0.7757 0.7757 0.6311 -61.2501 277.2344)">
			<stop  offset="0" style="stop-color:#FFF3FF"/>
			<stop  offset="0.9829" style="stop-color:#E7E2EE"/>
		</linearGradient>
		<path class="st92" d="M124,145.8c0,0,3.5-6.8,10.2-11.1c0,0-0.2,2.4-4.4,6.8C125.8,145.6,124,145.8,124,145.8z"/>
	</g>
	
		<linearGradient id="SVGID_84_" gradientUnits="userSpaceOnUse" x1="192.244" y1="272.7075" x2="192.244" y2="167.8172" gradientTransform="matrix(0.9341 -0.3569 0.3569 0.9341 -59.7371 54.5399)">
		<stop  offset="0" style="stop-color:#FF8647"/>
		<stop  offset="1" style="stop-color:#FFB934"/>
	</linearGradient>
	<path class="st93" d="M188.1,251l-53.4-91.1c0,0,27.4,3.2,37.7-1c20.6-8.4,48.4-27.2,48.4-27.2l41.3,91.8L188.1,251z"/>
	<path class="st94" d="M135.7,160c0,0,27.3,19,48.2,23.5c0,0-6.9-4-10.4-8.3c-2.3-2.8-7.2-14.6-7.2-14.6S153.7,161.8,135.7,160z"/>
	
		<linearGradient id="SVGID_85_" gradientUnits="userSpaceOnUse" x1="203.8094" y1="206.2853" x2="203.8094" y2="172.1785" gradientTransform="matrix(0.9341 -0.3569 0.3569 0.9341 -59.7371 54.5399)">
		<stop  offset="0.3957" style="stop-color:#FFFFFF"/>
		<stop  offset="1" style="stop-color:#F492BB"/>
	</linearGradient>
	<path class="st95" d="M166.4,160.6c0,0,3,9.7,4.5,11.8c2.6,3.4,11.8,10.3,11.8,10.3s7.5-15.6,15.8-24.8
		c12.6-14,22.3-26.2,22.3-26.2s-25.1,16-36.1,21.5C173.6,158.7,166.4,160.6,166.4,160.6z"/>
	
		<linearGradient id="SVGID_86_" gradientUnits="userSpaceOnUse" x1="230.0805" y1="174.2225" x2="230.0805" y2="168.2109" gradientTransform="matrix(0.9341 -0.3569 0.3569 0.9341 -59.7371 54.5399)">
		<stop  offset="0" style="stop-color:#FF8647"/>
		<stop  offset="1" style="stop-color:#E68434"/>
	</linearGradient>
	<polygon class="st96" points="211,131.2 213.8,136.5 220.8,131.7 	"/>
	<g>
		
			<linearGradient id="SVGID_87_" gradientUnits="userSpaceOnUse" x1="225.6639" y1="134.2414" x2="225.6639" y2="119.5154" gradientTransform="matrix(0.8696 -0.4937 0.4937 0.8696 -93.9795 81.4166)">
			<stop  offset="1.711450e-02" style="stop-color:#A49AC6"/>
			<stop  offset="1" style="stop-color:#C8C7DF"/>
		</linearGradient>
		<path class="st97" d="M164.9,72c0,0-2,0.8-3.8,2.3c0,0-3.2,3.2-0.3,8.1c2.9,4.7,7.8,4,7.8,4s2.1-0.7,3.8-2L164.9,72z"/>
		
			<radialGradient id="SVGID_88_" cx="222.7617" cy="1084.1934" r="9.3415" gradientTransform="matrix(0.9314 -0.4938 0.4727 0.7773 -557.8956 -656.7695)" gradientUnits="userSpaceOnUse">
			<stop  offset="0" style="stop-color:#EBD7E3"/>
			<stop  offset="0.379" style="stop-color:#D8C6DC"/>
			<stop  offset="0.9829" style="stop-color:#BDAFD2"/>
		</radialGradient>
		<path class="st98" d="M165.4,71.4c0,0-2.1,0.8-3.9,2.4c0,0-3.4,3.3-0.3,8.4c3,4.9,8.1,4.2,8.1,4.2s2.2-0.7,4-2.1L165.4,71.4z"/>
		
			<linearGradient id="SVGID_89_" gradientUnits="userSpaceOnUse" x1="230.7246" y1="134.4043" x2="230.7246" y2="119.3669" gradientTransform="matrix(0.8696 -0.4937 0.4937 0.8696 -93.9795 81.4166)">
			<stop  offset="1.711450e-02" style="stop-color:#D6CEE3"/>
			<stop  offset="1" style="stop-color:#F4EFFF"/>
		</linearGradient>
		<path class="st99" d="M174.2,75.2c2.2,3.5,1.7,7.6-1,9c-2.7,1.4-6.7-0.3-8.8-3.8c-2.2-3.5-1.7-7.6,1-9
			C168.1,70,172.1,71.7,174.2,75.2z"/>
		
			<linearGradient id="SVGID_90_" gradientUnits="userSpaceOnUse" x1="230.9048" y1="133.8996" x2="230.9048" y2="119.8821" gradientTransform="matrix(0.8696 -0.4937 0.4937 0.8696 -93.9795 81.4166)">
			<stop  offset="1.711450e-02" style="stop-color:#E2DCEB"/>
			<stop  offset="1" style="stop-color:#FFFFFF"/>
		</linearGradient>
		<path class="st100" d="M174,75.3c2,3.3,1.6,7.1-0.9,8.4c-2.5,1.3-6.2-0.2-8.2-3.6c-2-3.3-1.6-7.1,0.9-8.4
			C168.4,70.4,172,72,174,75.3z"/>
		
			<radialGradient id="SVGID_91_" cx="227.6815" cy="-1877.7365" r="5.2058" gradientTransform="matrix(0.9314 -0.4938 0.7018 1.1539 1273.5607 2354.5483)" gradientUnits="userSpaceOnUse">
			<stop  offset="0" style="stop-color:#EBD7E3"/>
			<stop  offset="0.9829" style="stop-color:#BDAFD2"/>
		</radialGradient>
		<path class="st101" d="M164.8,71.8l8.2,12.6c0.5-0.3,0.9-0.5,1.4-0.9L166.5,71c0,0-1.2,0.4-1.3,0.5
			C164.9,71.6,164.9,71.7,164.8,71.8z"/>
		<polygon class="st23" points="166.5,71 165.2,71.5 173.6,84 174.3,83.5 		"/>
		<path class="st23" d="M164.9,85.9l0.9,0.1l3-1.6c0,0,2.2,1,4.4-0.1c0,0-1.4,1.2-4,2.1C169.2,86.4,167.1,86.8,164.9,85.9z"/>
		<path class="st14" d="M159.6,78l3.4-2.3c0,0-0.1-1.7,1.1-3.2l-3.2,2C160.9,74.5,159.6,76.4,159.6,78z"/>
	</g>
	<g>
		
			<linearGradient id="SVGID_92_" gradientUnits="userSpaceOnUse" x1="204.399" y1="134.2151" x2="204.399" y2="125.7729" gradientTransform="matrix(0.9206 -0.3907 0.3907 0.9206 -79.088 55.9429)">
			<stop  offset="1.711450e-02" style="stop-color:#A49AC6"/>
			<stop  offset="1" style="stop-color:#C8C7DF"/>
		</linearGradient>
		<path class="st102" d="M160.5,91c0,0-1.2,0.3-2.3,1.1c0,0-2.1,1.6-0.7,4.6c1.3,2.9,4.2,2.8,4.2,2.8s1.3-0.2,2.3-0.9L160.5,91z"/>
		
			<radialGradient id="SVGID_93_" cx="202.7255" cy="1090.8771" r="5.3902" gradientTransform="matrix(0.9859 -0.3907 0.374 0.8228 -449.3002 -725.3225)" gradientUnits="userSpaceOnUse">
			<stop  offset="0" style="stop-color:#EBD7E3"/>
			<stop  offset="0.379" style="stop-color:#D8C6DC"/>
			<stop  offset="0.9829" style="stop-color:#BDAFD2"/>
		</radialGradient>
		<path class="st103" d="M160.8,90.7c0,0-1.3,0.3-2.4,1.1c0,0-2.2,1.7-0.8,4.8c1.4,3,4.3,2.9,4.3,2.9s1.3-0.3,2.4-1L160.8,90.7z"/>
		
			<linearGradient id="SVGID_94_" gradientUnits="userSpaceOnUse" x1="207.347" y1="134.3019" x2="207.347" y2="125.6815" gradientTransform="matrix(0.9206 -0.3907 0.3907 0.9206 -79.088 55.9429)">
			<stop  offset="1.711450e-02" style="stop-color:#D6CEE3"/>
			<stop  offset="1" style="stop-color:#F4EFFF"/>
		</linearGradient>
		<path class="st104" d="M165.6,93.4c1,2.2,0.4,4.5-1.2,5.1c-1.7,0.7-3.8-0.6-4.8-2.7c-1-2.2-0.4-4.5,1.2-5.1
			C162.5,90,164.6,91.2,165.6,93.4z"/>
		
			<linearGradient id="SVGID_95_" gradientUnits="userSpaceOnUse" x1="207.4516" y1="134.012" x2="207.4516" y2="125.9764" gradientTransform="matrix(0.9206 -0.3907 0.3907 0.9206 -79.088 55.9429)">
			<stop  offset="1.711450e-02" style="stop-color:#E2DCEB"/>
			<stop  offset="1" style="stop-color:#FFFFFF"/>
		</linearGradient>
		<path class="st105" d="M165.5,93.4c0.9,2,0.4,4.2-1.1,4.8c-1.5,0.6-3.5-0.5-4.5-2.5c-0.9-2-0.4-4.2,1.1-4.8
			C162.6,90.3,164.6,91.4,165.5,93.4z"/>
		
			<radialGradient id="SVGID_96_" cx="205.5669" cy="-1873.9337" r="3.0038" gradientTransform="matrix(0.9859 -0.3907 0.5553 1.2215 999.7466 2462.4385)" gradientUnits="userSpaceOnUse">
			<stop  offset="0" style="stop-color:#EBD7E3"/>
			<stop  offset="0.9829" style="stop-color:#BDAFD2"/>
		</radialGradient>
		<path class="st106" d="M160.4,90.9l3.8,7.7c0.3-0.1,0.6-0.2,0.9-0.4l-3.6-7.6c0,0-0.7,0.2-0.8,0.2
			C160.5,90.8,160.5,90.8,160.4,90.9z"/>
		<polygon class="st23" points="161.5,90.5 160.7,90.7 164.6,98.4 165.1,98.1 		"/>
		<path class="st23" d="M159.5,98.9L160,99l1.9-0.7c0,0,1.2,0.7,2.5,0.2c0,0-0.9,0.6-2.4,1C161.9,99.5,160.7,99.6,159.5,98.9z"/>
		<path class="st14" d="M157,94.1l2.1-1.1c0,0,0.1-1,0.8-1.8l-2,1C158,92.2,157.1,93.2,157,94.1z"/>
	</g>
	<g>
		
			<radialGradient id="SVGID_97_" cx="235.221" cy="98.5472" r="4.3471" gradientTransform="matrix(0.9667 -0.4305 0.4611 0.9026 -90.7011 77.1662)" gradientUnits="userSpaceOnUse">
			<stop  offset="0" style="stop-color:#FFE534"/>
			<stop  offset="0.8" style="stop-color:#FF9A47"/>
			<stop  offset="0.9811" style="stop-color:#FFB83D"/>
		</radialGradient>
		<ellipse class="st107" cx="181.4" cy="66.1" rx="3.2" ry="3"/>
		<path class="st3" d="M183.2,64.3c0,0-0.2-0.4-0.7-0.6c-0.6-0.2-0.8,0.1-0.8,0.1S182.1,64.8,183.2,64.3z"/>
	</g>
	<g>
		
			<linearGradient id="SVGID_98_" gradientUnits="userSpaceOnUse" x1="593.241" y1="249.2095" x2="614.7881" y2="249.2095" gradientTransform="matrix(-0.7794 -0.6266 0.6266 -0.7794 450.9516 678.4343)">
			<stop  offset="0" style="stop-color:#FF6E27"/>
			<stop  offset="0.998" style="stop-color:#E03347"/>
		</linearGradient>
		<path class="st108" d="M128,98.9l0.2-0.2c1.5-1.4,3.8-1.4,5.4-0.2l6.2,4.8l4.6,3.6c1.6,1.2,1.9,3.4,0.8,5c-1.3,1.8-4,2.2-5.9,0.8
			l-10.9-8.2C126.4,103.1,126.3,100.5,128,98.9z"/>
		
			<linearGradient id="SVGID_99_" gradientUnits="userSpaceOnUse" x1="593.241" y1="249.3505" x2="602.7651" y2="249.3505" gradientTransform="matrix(-0.7794 -0.6266 0.6266 -0.7794 450.9516 678.4343)">
			<stop  offset="0" style="stop-color:#FFCB34"/>
			<stop  offset="1" style="stop-color:#FF9A47"/>
		</linearGradient>
		<path class="st109" d="M139.8,103.4l4.6,3.6c1.6,1.2,1.9,3.4,0.8,5c-1.3,1.8-4,2.2-5.9,0.8l-4.2-3.2
			C139.6,106.8,139.8,103.4,139.8,103.4z"/>
		
			<linearGradient id="SVGID_100_" gradientUnits="userSpaceOnUse" x1="604.2345" y1="247.9502" x2="604.2345" y2="245.1364" gradientTransform="matrix(-0.7794 -0.6266 0.6266 -0.7794 450.9516 678.4343)">
			<stop  offset="0.3568" style="stop-color:#000000"/>
			<stop  offset="1" style="stop-color:#E5EFE5"/>
		</linearGradient>
		<path class="st110" d="M139.6,113c0,0,1.6-1.6-2.5-5c-4.1-3.4-9.3-3.9-9.3-3.9S133.9,108.8,139.6,113z"/>
		
			<linearGradient id="SVGID_101_" gradientUnits="userSpaceOnUse" x1="597.4183" y1="252.4903" x2="608.9848" y2="252.4903" gradientTransform="matrix(-0.7794 -0.6266 0.6266 -0.7794 450.9516 678.4343)">
			<stop  offset="0" style="stop-color:#000000"/>
			<stop  offset="1" style="stop-color:#E5EFE5"/>
		</linearGradient>
		<path class="st111" d="M143.9,106.8c0,0-1.8-0.1-5-2.4c-3.1-2.3-4.1-4.7-4.1-4.7L143.9,106.8z"/>
		<path class="st3" d="M132.7,98.7c0,0-0.5-0.5-1.2-0.6c-0.8,0-1,0.4-1,0.4S131.4,99.7,132.7,98.7z"/>
	</g>
	<g>
		
			<radialGradient id="SVGID_102_" cx="168.058" cy="115.1598" r="4.3471" gradientTransform="matrix(0.9667 -0.4305 0.4611 0.9026 -90.7011 77.1662)" gradientUnits="userSpaceOnUse">
			<stop  offset="0" style="stop-color:#FFE534"/>
			<stop  offset="0.8" style="stop-color:#FF9A47"/>
			<stop  offset="0.9811" style="stop-color:#FFB83D"/>
		</radialGradient>
		<path class="st112" d="M127,108.8c0.8,1.5,0.1,3.3-1.5,4c-1.6,0.7-3.5,0.1-4.2-1.4s-0.1-3.3,1.5-4
			C124.3,106.6,126.2,107.3,127,108.8z"/>
		<path class="st3" d="M126,108.2c0,0-0.2-0.4-0.7-0.6c-0.6-0.2-0.8,0.1-0.8,0.1S124.8,108.7,126,108.2z"/>
	</g>
	<g>
		
			<radialGradient id="SVGID_103_" cx="169.8979" cy="106.7947" r="2.9242" gradientTransform="matrix(0.9667 -0.4305 0.4611 0.9026 -90.7011 77.1662)" gradientUnits="userSpaceOnUse">
			<stop  offset="0" style="stop-color:#FFE534"/>
			<stop  offset="0.8" style="stop-color:#FF9A47"/>
			<stop  offset="0.9811" style="stop-color:#FFB83D"/>
		</radialGradient>
		<path class="st113" d="M124.2,100.4c0.5,1,0.1,2.2-1,2.7c-1.1,0.5-2.3,0.1-2.9-0.9c-0.5-1-0.1-2.2,1-2.7
			C122.4,99,123.7,99.4,124.2,100.4z"/>
		<path class="st3" d="M123.5,100c0,0-0.2-0.3-0.5-0.4c-0.4-0.1-0.5,0.1-0.5,0.1S122.8,100.4,123.5,100z"/>
	</g>
	<g>
		
			<radialGradient id="SVGID_104_" cx="239.6984" cy="104.577" r="3.8782" gradientTransform="matrix(0.9667 -0.4305 0.4611 0.9026 -90.7011 77.1662)" gradientUnits="userSpaceOnUse">
			<stop  offset="0" style="stop-color:#FFE534"/>
			<stop  offset="0.8" style="stop-color:#FF9A47"/>
			<stop  offset="0.9811" style="stop-color:#FFB83D"/>
		</radialGradient>
		<path class="st114" d="M191.1,68.4c0.7,1.3,0.1,2.9-1.3,3.5c-1.4,0.6-3.1,0.1-3.8-1.3c-0.7-1.3-0.1-2.9,1.3-3.5
			C188.7,66.5,190.4,67,191.1,68.4z"/>
		<path class="st3" d="M190.2,67.9c0,0-0.2-0.4-0.7-0.6c-0.5-0.2-0.7,0.1-0.7,0.1S189.2,68.3,190.2,67.9z"/>
	</g>
	
		<linearGradient id="SVGID_105_" gradientUnits="userSpaceOnUse" x1="204.9584" y1="244.1437" x2="202.5258" y2="219.8243" gradientTransform="matrix(0.965 -0.2622 0.2622 0.965 -36.5284 55.7059)">
		<stop  offset="0" style="stop-color:#F4ABBB"/>
		<stop  offset="1" style="stop-color:#FFEAEC"/>
	</linearGradient>
	<polygon class="st115" points="262.1,223.5 224.5,216.8 194.6,223.1 188.1,251 	"/>
</g>
<g>
	<g>
		<path d="M22.7,15.6v10h-2.8v-7.1l-1.8,7.1h-1.9l-1.9-7.1v7.1h-2.3v-10h4l1.4,5.3l1.4-5.3H22.7z"/>
		<path d="M29.3,22.9l2.7,0.2c-0.2,0.7-0.6,1.4-1.2,1.8c-0.6,0.5-1.6,0.8-2.7,0.8c-1.2,0-2.2-0.4-3-1.1S24,23,24,21.9
			c0-1.1,0.4-2,1.1-2.8c0.7-0.8,1.7-1.1,3-1.1c1.2,0,2.1,0.4,2.9,1.1c0.7,0.7,1.1,1.7,1.1,3c0,0.1,0,0.2,0,0.4h-5
			c0,0.5,0.1,0.8,0.3,1c0.2,0.2,0.5,0.3,0.9,0.3C28.8,23.8,29.2,23.5,29.3,22.9z M29.1,20.9c0-0.5-0.1-0.8-0.3-1
			c-0.2-0.2-0.5-0.3-0.7-0.3c-0.7,0-1,0.4-1,1.3L29.1,20.9L29.1,20.9z"/>
		<path d="M40.4,25.5h-2.7v-1c-0.4,0.7-1.1,1.1-2,1.1c-0.8,0-1.6-0.3-2.1-1c-0.5-0.7-0.8-1.6-0.8-2.9c0-1.2,0.3-2.1,0.8-2.8
			c0.5-0.7,1.2-1,2.1-1c0.7,0,1.3,0.3,1.8,0.8v-3.1h2.9L40.4,25.5L40.4,25.5z M37.5,20.8c0-0.7-0.3-1-0.8-1c-0.4,0-0.6,0.2-0.7,0.6
			c-0.1,0.4-0.2,0.9-0.2,1.6c0,1.2,0.3,1.8,0.9,1.8c0.2,0,0.4-0.1,0.6-0.3c0.2-0.2,0.3-0.5,0.3-0.9V20.8z"/>
	</g>
	<g>
		<path d="M47.5,22.6l2.8-0.5c0.2,0.8,0.8,1.2,1.8,1.2c0.8,0,1.1-0.2,1.1-0.6c0-0.2-0.1-0.4-0.3-0.5c-0.2-0.1-0.5-0.2-0.9-0.3
			c-1.8-0.3-2.9-0.8-3.4-1.3C48.3,20,48,19.4,48,18.7c0-0.9,0.4-1.7,1.1-2.3c0.7-0.6,1.7-0.9,3.1-0.9c2,0,3.4,0.8,4,2.4l-2.5,0.8
			c-0.3-0.7-0.8-1-1.6-1c-0.7,0-1,0.2-1,0.6c0,0.2,0.1,0.3,0.2,0.4c0.2,0.1,0.5,0.2,0.9,0.3c1.2,0.3,2,0.5,2.5,0.7s0.9,0.5,1.3,1
			c0.3,0.5,0.5,1,0.5,1.7c0,1-0.4,1.8-1.2,2.4c-0.8,0.6-1.9,0.9-3.2,0.9C49.6,25.7,48.1,24.6,47.5,22.6z"/>
	</g>
	<g>
		<path d="M73.2,27.9h-2.9v-9.8h2.7v1c0.4-0.8,1.1-1.2,2.1-1.2c0.9,0,1.6,0.4,2.1,1c0.5,0.7,0.7,1.6,0.7,2.8c0,1.2-0.3,2.1-0.8,2.8
			c-0.5,0.7-1.2,1-2,1c-0.8,0-1.5-0.3-1.9-0.9L73.2,27.9L73.2,27.9L73.2,27.9z M73.2,22.8c0,0.3,0.1,0.6,0.2,0.8
			c0.2,0.2,0.3,0.3,0.6,0.3c0.4,0,0.6-0.2,0.7-0.5c0.1-0.3,0.2-0.8,0.2-1.5c0-0.8-0.1-1.3-0.2-1.6c-0.2-0.3-0.4-0.5-0.7-0.5
			c-0.2,0-0.4,0.1-0.6,0.2c-0.2,0.1-0.3,0.4-0.3,0.7L73.2,22.8L73.2,22.8z"/>
	</g>
	<g>
		<g>
			<path class="st116" d="M41.6,16.5c0-1.2,1-2.1,2.1-2.1H44c1.2,0,2.1,1,2.1,2.1v7c0,1.2-1,2.1-2.1,2.1h-0.3c-1.2,0-2.1-1-2.1-2.1
				V16.5z"/>
			<g>
				<path class="st117" d="M41.6,23.5c0,1.2,1,2.1,2.1,2.1H44c1.2,0,2.1-1,2.1-2.1V20h-4.6L41.6,23.5L41.6,23.5z"/>
			</g>
			<g>
				<path class="st118" d="M42.7,16.5c0-1,0.7-1.9,1.8-2.1c-0.1,0-0.3,0-0.4,0h-0.3c-1.2,0-2.1,1-2.1,2.1V20h1.1L42.7,16.5
					L42.7,16.5z"/>
				<path class="st119" d="M44.2,25.7c-0.1,0-0.1,0-0.2,0C44.1,25.7,44.2,25.7,44.2,25.7z"/>
				<path class="st120" d="M43.8,25.7H44c0.1,0,0.1,0,0.2,0c0.1,0,0.1,0,0.2,0c-1-0.2-1.8-1.1-1.8-2.1V20h-1.1v3.5
					C41.6,24.7,42.6,25.7,43.8,25.7z"/>
			</g>
			<path class="st121" d="M44.2,16.5c0-0.3,0.2-0.5,0.5-0.5h0.1c0.3,0,0.5,0.2,0.5,0.5v7.1c0,0.3-0.2,0.5-0.5,0.5h-0.1
				c-0.3,0-0.5-0.2-0.5-0.5V16.5z"/>
		</g>
		<g>
			<path class="st122" d="M45.3,12.2c0.9-0.9,0.9-2.4,0-3.3L42,12.2C43,13.1,44.4,13.1,45.3,12.2z"/>
			<path class="st118" d="M42,8.9c-0.9,0.9-0.9,2.4,0,3.3l3.3-3.3C44.4,8,43,8,42,8.9z"/>
			<path class="st116" d="M45.1,12c0.8-0.8,0.8-2.1,0-2.9L42.2,12C43,12.8,44.3,12.8,45.1,12z"/>
			<path class="st116" d="M42.2,9.1c-0.8,0.8-0.8,2.1,0,2.9l2.9-2.9C44.3,8.3,43,8.3,42.2,9.1z"/>
			<polygon class="st118" points="42,12.2 42.4,12.2 45.3,9.3 45.3,8.9 			"/>
			<polygon class="st122" points="42,12.2 42,11.8 44.9,8.9 45.3,8.9 			"/>
		</g>
	</g>
	<g>
		<rect x="59.7" y="10" class="st123" width="1.5" height="0.8"/>
		<rect x="58.2" y="10" class="st124" width="1.5" height="0.8"/>
		<polygon class="st123" points="59.9,32.9 59.9,26.4 59.7,26.4 59.7,33.2 		"/>
		<polygon class="st124" points="59.5,33.3 59.6,33.3 59.7,33.2 59.7,26.4 59.5,26.4 		"/>
		<polygon class="st119" points="60.2,26.9 61.2,26.1 61.2,20.7 59.7,20.7 59.7,26.9 		"/>
		<polygon class="st125" points="58.2,26.1 59.2,26.9 59.7,26.9 59.7,20.7 58.2,20.7 		"/>
		<rect x="59.7" y="10.1" class="st123" width="0.7" height="10.5"/>
		<rect x="59" y="10.1" class="st124" width="0.7" height="10.5"/>
		<rect x="59.7" y="19.7" class="st126" width="1.5" height="1"/>
		<rect x="58.2" y="19.7" class="st127" width="1.5" height="1"/>
		<rect x="59.7" y="26.9" class="st126" width="0.5" height="1"/>
		<rect x="59.2" y="26.9" class="st127" width="0.5" height="1"/>
		<g>
			<polygon class="st128" points="61.1,13.7 61.1,26.1 60.2,26.8 59.7,26.8 59.7,27 60.3,27 61.4,26.2 61.4,13.4 59.7,13.4 
				59.7,13.7 			"/>
			<polygon class="st129" points="58.1,26.2 59.1,27 59.7,27 59.7,26.8 59.2,26.8 58.3,26.1 58.3,13.7 59.7,13.7 59.7,13.4 
				58.1,13.4 			"/>
		</g>
		<rect x="59.9" y="13.1" class="st130" width="5.9" height="0.7"/>
		<rect x="54" y="13.1" class="st131" width="5.9" height="0.7"/>
		<rect x="59.7" y="24.9" class="st128" width="1.7" height="0.3"/>
		<rect x="60.4" y="23.7" class="st128" width="0.9" height="0.3"/>
		<rect x="59.7" y="22.4" class="st128" width="1.7" height="0.3"/>
		<rect x="60.5" y="21.2" class="st128" width="0.8" height="0.3"/>
		<rect x="59.7" y="20" class="st128" width="1.7" height="0.3"/>
		<rect x="60.4" y="18.8" class="st128" width="0.9" height="0.3"/>
		<rect x="59.7" y="17.5" class="st128" width="1.7" height="0.3"/>
		<rect x="60.5" y="16.3" class="st128" width="0.8" height="0.3"/>
		<rect x="59.7" y="15.1" class="st128" width="1.7" height="0.3"/>
	</g>
	<g>
		<path class="st132" d="M63.4,19c-1.4,1.4-1.4,3.8,0,5.2l5.2-5.2C67.1,17.5,64.8,17.5,63.4,19z"/>
		<path class="st133" d="M68.6,24.2c1.4-1.4,1.4-3.8,0-5.2l-5.2,5.2C64.8,25.6,67.1,25.6,68.6,24.2z"/>
		<path class="st134" d="M63.7,19.3c-1.3,1.3-1.3,3.3,0,4.6l4.6-4.6C67,18,64.9,18,63.7,19.3z"/>
		<path class="st134" d="M68.3,23.9c1.3-1.3,1.3-3.3,0-4.6l-4.6,4.6C64.9,25.1,67,25.1,68.3,23.9z"/>
		<polygon class="st133" points="68.6,19 68,19 63.4,23.5 63.4,24.2 		"/>
		<polygon class="st132" points="68.6,19 68.5,19.6 64,24.1 63.4,24.2 		"/>
	</g>
</g>
<g>
	<path class="st135" d="M111.3,275.6v10.7h-3v-7.6l-2,7.6h-2.1l-2.1-7.6v7.6h-2.5v-10.7h4.3l1.5,5.7l1.5-5.7H111.3z"/>
	<path class="st135" d="M118.3,283.4l2.9,0.2c-0.2,0.8-0.6,1.4-1.3,2c-0.7,0.5-1.7,0.8-2.9,0.8c-1.3,0-2.4-0.4-3.2-1.2
		s-1.2-1.7-1.2-2.9c0-1.2,0.4-2.2,1.2-3c0.8-0.8,1.8-1.2,3.1-1.2c1.3,0,2.3,0.4,3.1,1.2c0.8,0.8,1.2,1.8,1.2,3.1c0,0.1,0,0.3,0,0.5
		h-5.3c0,0.5,0.1,0.9,0.3,1.1c0.2,0.2,0.5,0.4,1,0.4C117.8,284.3,118.2,284,118.3,283.4z M118.1,281.3c0-0.5-0.1-0.9-0.3-1.1
		c-0.2-0.2-0.5-0.3-0.8-0.3c-0.7,0-1.1,0.5-1.1,1.4H118.1z"/>
	<path class="st135" d="M130.2,286.2h-2.9v-1.1c-0.4,0.8-1.1,1.2-2.1,1.2c-0.9,0-1.7-0.4-2.2-1.1s-0.9-1.8-0.9-3.1
		c0-1.3,0.3-2.3,0.9-3c0.6-0.8,1.3-1.1,2.3-1.1c0.8,0,1.4,0.3,1.9,0.9v-3.4h3.1V286.2z M127.2,281.1c0-0.7-0.3-1.1-0.9-1.1
		c-0.4,0-0.7,0.2-0.8,0.7c-0.1,0.5-0.2,1-0.2,1.7c0,1.3,0.3,1.9,1,1.9c0.3,0,0.5-0.1,0.6-0.3c0.2-0.2,0.3-0.5,0.3-0.9V281.1z"/>
	<path class="st135" d="M135,275.2v2.5h-3.1v-2.5H135z M135,278.3v7.9h-3.1v-7.9H135z"/>
	<path class="st135" d="M141.4,283l2.7,0.2c-0.1,0.9-0.5,1.7-1.2,2.3c-0.7,0.6-1.5,0.9-2.6,0.9c-1.2,0-2.2-0.4-3-1.1
		s-1.1-1.7-1.1-2.9c0-1.2,0.4-2.2,1.1-3c0.8-0.8,1.7-1.2,2.9-1.2c1.1,0,1.9,0.3,2.6,0.9s1.1,1.4,1.2,2.3l-2.7,0.2
		c-0.1-0.8-0.4-1.3-1-1.3c-0.3,0-0.6,0.2-0.7,0.5c-0.2,0.3-0.2,0.8-0.2,1.6c0,0.7,0.1,1.1,0.2,1.4c0.2,0.3,0.4,0.5,0.8,0.5
		C141,284.2,141.3,283.8,141.4,283z"/>
	<path class="st135" d="M148.1,275.2v2.5H145v-2.5H148.1z M148.1,278.3v7.9H145v-7.9H148.1z"/>
	<path class="st135" d="M157.5,286.2h-3.1v-5c0-0.4-0.1-0.7-0.2-0.8c-0.1-0.1-0.3-0.2-0.5-0.2c-0.6,0-0.9,0.4-0.9,1.2v4.8h-3.1v-7.9
		h2.9v1.1c0.4-0.9,1.2-1.3,2.3-1.3c0.6,0,1.1,0.1,1.5,0.3s0.7,0.5,0.9,0.9s0.3,1,0.3,1.8V286.2z"/>
	<path class="st135" d="M164.4,283.4l2.9,0.2c-0.2,0.8-0.6,1.4-1.3,2c-0.7,0.5-1.7,0.8-2.9,0.8c-1.3,0-2.4-0.4-3.2-1.2
		s-1.2-1.7-1.2-2.9c0-1.2,0.4-2.2,1.2-3c0.8-0.8,1.8-1.2,3.1-1.2c1.3,0,2.3,0.4,3.1,1.2c0.8,0.8,1.2,1.8,1.2,3.1c0,0.1,0,0.3,0,0.5
		H162c0,0.5,0.1,0.9,0.3,1.1c0.2,0.2,0.5,0.4,1,0.4C163.9,284.3,164.3,284,164.4,283.4z M164.2,281.3c0-0.5-0.1-0.9-0.3-1.1
		c-0.2-0.2-0.5-0.3-0.8-0.3c-0.7,0-1.1,0.5-1.1,1.4H164.2z"/>
	<path class="st135" d="M167.8,284l2.5-0.3c0.1,0.6,0.7,0.9,1.7,0.9c0.8,0,1.2-0.2,1.2-0.5c0-0.1-0.1-0.2-0.2-0.3s-0.5-0.2-1.1-0.2
		c-1.6-0.2-2.6-0.6-3-1.1s-0.6-1-0.6-1.6c0-0.8,0.3-1.5,1-2s1.6-0.8,2.7-0.8c1.9,0,3.2,0.7,3.7,2.1l-2.4,0.4
		c-0.2-0.5-0.7-0.7-1.4-0.7c-0.3,0-0.6,0-0.7,0.1s-0.2,0.2-0.2,0.3c0,0.3,0.3,0.4,0.8,0.5c1.3,0.1,2.2,0.3,2.6,0.4
		c0.5,0.2,0.9,0.4,1.2,0.8s0.5,0.9,0.5,1.5c0,0.9-0.4,1.6-1.1,2.1c-0.7,0.5-1.7,0.8-3,0.8C169.7,286.4,168.3,285.6,167.8,284z"/>
	<path class="st135" d="M179.9,283.4v2.6l-1.7,3h-1.2l1.2-2.7h-1.3v-2.8H179.9z"/>
	<path class="st135" d="M194.6,275.6v10.7h-3.3v-4.1h-2.5v4.1h-3.3v-10.7h3.3v3.9h2.5v-3.9H194.6z"/>
	<path class="st135" d="M200.2,286.4c-1.3,0-2.4-0.4-3.1-1.2s-1.2-1.8-1.2-2.9c0-1.2,0.4-2.2,1.2-3s1.9-1.2,3.2-1.2
		c1.3,0,2.4,0.4,3.2,1.2s1.2,1.8,1.2,2.9c0,1.2-0.4,2.2-1.2,3S201.5,286.4,200.2,286.4z M200.2,284.5c0.5,0,0.8-0.3,0.9-0.8
		s0.2-1,0.2-1.6c0-0.7-0.1-1.3-0.2-1.6s-0.4-0.5-0.8-0.5c-0.4,0-0.6,0.2-0.8,0.5s-0.3,0.9-0.3,1.7c0,0.9,0.1,1.5,0.3,1.8
		S199.9,284.5,200.2,284.5z"/>
	<path class="st135" d="M217.8,286.2h-3v-5c0-0.3,0-0.6-0.1-0.7s-0.3-0.2-0.5-0.2c-0.6,0-0.9,0.4-0.9,1.3v4.6h-3v-5
		c0-0.6-0.2-1-0.7-1c-0.5,0-0.8,0.3-0.8,1v5h-3v-7.9h2.8v1.1c0.5-0.8,1.2-1.2,2.2-1.2c1,0,1.8,0.4,2.2,1.2c0.5-0.8,1.3-1.2,2.4-1.2
		c0.5,0,1,0.1,1.3,0.3s0.7,0.5,0.8,0.8s0.3,0.9,0.3,1.6V286.2z"/>
	<path class="st135" d="M224.7,283.4l2.9,0.2c-0.2,0.8-0.6,1.4-1.3,2s-1.7,0.8-2.9,0.8c-1.3,0-2.4-0.4-3.2-1.2s-1.2-1.7-1.2-2.9
		c0-1.2,0.4-2.2,1.2-3s1.8-1.2,3.1-1.2c1.3,0,2.3,0.4,3.1,1.2s1.2,1.8,1.2,3.1c0,0.1,0,0.3,0,0.5h-5.3c0,0.5,0.1,0.9,0.3,1.1
		s0.5,0.4,1,0.4C224.2,284.3,224.6,284,224.7,283.4z M224.5,281.3c0-0.5-0.1-0.9-0.3-1.1s-0.5-0.3-0.8-0.3c-0.7,0-1.1,0.5-1.1,1.4
		H224.5z"/>
	<path class="st135" d="M233,286.2v-10.7h4.1c1.8,0,3.1,0.5,4,1.6s1.3,2.3,1.3,3.7c0,1.6-0.5,2.9-1.4,3.9s-2.2,1.5-3.7,1.5H233z
		 M236.3,283.8h0.9c0.5,0,1-0.3,1.4-0.8s0.6-1.2,0.6-2.1c0-0.8-0.2-1.4-0.5-2s-0.8-0.8-1.4-0.8h-0.9V283.8z"/>
	<path class="st135" d="M249,283.4l2.9,0.2c-0.2,0.8-0.6,1.4-1.3,2s-1.7,0.8-2.9,0.8c-1.3,0-2.4-0.4-3.2-1.2s-1.2-1.7-1.2-2.9
		c0-1.2,0.4-2.2,1.2-3s1.8-1.2,3.1-1.2c1.3,0,2.3,0.4,3.1,1.2s1.2,1.8,1.2,3.1c0,0.1,0,0.3,0,0.5h-5.3c0,0.5,0.1,0.9,0.3,1.1
		s0.5,0.4,1,0.4C248.5,284.3,248.9,284,249,283.4z M248.8,281.3c0-0.5-0.1-0.9-0.3-1.1s-0.5-0.3-0.8-0.3c-0.7,0-1.1,0.5-1.1,1.4
		H248.8z"/>
	<path class="st135" d="M256.2,275.6v10.7h-3.1v-10.7H256.2z"/>
	<path class="st135" d="M261,275.2v2.5h-3.1v-2.5H261z M261,278.3v7.9h-3.1v-7.9H261z"/>
	<path class="st135" d="M269.9,278.3l-2.9,7.9h-2.3l-3-7.9h3.2l1.1,3.4c0.1,0.3,0.2,0.5,0.3,0.8c0-0.1,0.1-0.2,0.1-0.4
		c0,0,0-0.1,0.1-0.3l1.2-3.5H269.9z"/>
	<path class="st135" d="M275.7,283.4l2.9,0.2c-0.2,0.8-0.6,1.4-1.3,2s-1.7,0.8-2.9,0.8c-1.3,0-2.4-0.4-3.2-1.2s-1.2-1.7-1.2-2.9
		c0-1.2,0.4-2.2,1.2-3s1.8-1.2,3.1-1.2c1.3,0,2.3,0.4,3.1,1.2s1.2,1.8,1.2,3.1c0,0.1,0,0.3,0,0.5h-5.3c0,0.5,0.1,0.9,0.3,1.1
		s0.5,0.4,1,0.4C275.2,284.3,275.6,284,275.7,283.4z M275.5,281.3c0-0.5-0.1-0.9-0.3-1.1s-0.5-0.3-0.8-0.3c-0.7,0-1.1,0.5-1.1,1.4
		H275.5z"/>
	<path class="st135" d="M282.8,286.2h-3v-7.9h2.6v1.6c0.3-1.2,1-1.8,2.1-1.8c0.1,0,0.3,0,0.5,0v2.8c-0.2-0.1-0.4-0.1-0.6-0.1
		c-1,0-1.5,0.6-1.5,1.7V286.2z"/>
	<path class="st135" d="M291.2,283.4l2.9,0.2c-0.2,0.8-0.6,1.4-1.3,2s-1.7,0.8-2.9,0.8c-1.3,0-2.4-0.4-3.2-1.2s-1.2-1.7-1.2-2.9
		c0-1.2,0.4-2.2,1.2-3s1.8-1.2,3.1-1.2c1.3,0,2.3,0.4,3.1,1.2s1.2,1.8,1.2,3.1c0,0.1,0,0.3,0,0.5h-5.3c0,0.5,0.1,0.9,0.3,1.1
		s0.5,0.4,1,0.4C290.7,284.3,291.1,284,291.2,283.4z M291,281.3c0-0.5-0.1-0.9-0.3-1.1s-0.5-0.3-0.8-0.3c-0.7,0-1.1,0.5-1.1,1.4H291
		z"/>
	<path class="st135" d="M303.1,286.2h-2.9v-1.1c-0.4,0.8-1.1,1.2-2.1,1.2c-0.9,0-1.7-0.4-2.2-1.1s-0.9-1.8-0.9-3.1
		c0-1.3,0.3-2.3,0.9-3s1.3-1.1,2.3-1.1c0.8,0,1.4,0.3,1.9,0.9v-3.4h3.1V286.2z M300,281.1c0-0.7-0.3-1.1-0.9-1.1
		c-0.4,0-0.7,0.2-0.8,0.7s-0.2,1-0.2,1.7c0,1.3,0.3,1.9,1,1.9c0.3,0,0.5-0.1,0.6-0.3s0.3-0.5,0.3-0.9V281.1z"/>
</g>
<g>
	<path class="st135" d="M91,313.3c0,2-1.3,3.7-3.8,3.7c-2.3,0-3.7-1.6-3.7-3.7c0-2,1.5-3.7,3.8-3.7C89.6,309.7,91,311.4,91,313.3z
		 M84.8,313.3c0,1.5,0.9,2.8,2.5,2.8c1.7,0,2.5-1.3,2.5-2.7c0-1.4-0.9-2.7-2.5-2.7C85.7,310.6,84.8,311.9,84.8,313.3z"/>
	<path class="st135" d="M92.4,313.2c0-0.5,0-0.9,0-1.4h1.1c0,0.2,0,0.7,0,1.1c0.3-0.8,1-1.3,2-1.2v1c-1.2,0-2,0.6-2,2.1v2.1h-1.1
		V313.2z"/>
	<path class="st135" d="M101.5,309.4v6c0,0.5,0,1,0,1.5h-1.1c0-0.2,0-0.5,0-0.7c-0.3,0.4-0.7,0.9-1.8,0.9c-1.5,0-2.5-1.1-2.5-2.6
		c0-1.7,1.3-2.7,2.6-2.7c1.1,0,1.6,0.5,1.7,0.7v-3H101.5z M97.3,314.4c0,0.9,0.5,1.8,1.6,1.8c1.1,0,1.6-0.7,1.6-1.8
		c0-1.1-0.4-1.8-1.6-1.8C97.8,312.6,97.3,313.5,97.3,314.4z"/>
	<path class="st135" d="M103.8,314.6c0.1,0.9,0.7,1.5,1.6,1.5c0.7,0,1.2-0.3,1.4-0.7h1.1c-0.3,0.8-1,1.6-2.6,1.6
		c-1.9,0-2.7-1.3-2.7-2.7c0-1.5,1-2.7,2.7-2.7c1.9,0,2.6,1.4,2.6,2.7c0,0.1,0,0.2,0,0.3H103.8z M106.9,313.9c0-0.6-0.3-1.4-1.5-1.4
		c-1,0-1.5,0.6-1.5,1.4H106.9z"/>
	<path class="st135" d="M109.2,313.2c0-0.5,0-0.9,0-1.4h1.1c0,0.2,0,0.7,0,1.1c0.3-0.8,1-1.3,2-1.2v1c-1.2,0-2,0.6-2,2.1v2.1h-1.1
		V313.2z"/>
	<path class="st135" d="M120.9,315.6c0,0.5,0,1.2,0,1.3h-1.1c0-0.2-0.1-0.5-0.1-0.7c-0.3,0.5-0.8,0.8-1.9,0.8c-1.4,0-2-0.9-2-1.6
		c0-1.3,1.2-1.7,2.6-1.7c0.6,0,1,0,1.2,0v-0.2c0-0.5-0.2-1-1.2-1c-0.9,0-1.1,0.4-1.2,0.8h-1.1c0.1-0.7,0.5-1.6,2.3-1.6
		c1.9,0,2.3,0.9,2.3,1.8V315.6z M119.8,314.5c-0.1,0-0.5,0-1.2,0c-1.1,0-1.6,0.2-1.6,0.9c0,0.5,0.3,0.9,1.1,0.9
		c1.2,0,1.6-0.7,1.6-1.5V314.5z"/>
	<path class="st135" d="M122.5,313.1c0-0.4,0-0.9,0-1.3h1.1c0,0.2,0,0.6,0,0.9c0.2-0.5,0.7-1,1.8-1c1.2,0,2,0.7,2,2.1v3.1h-1.1V314
		c0-0.8-0.3-1.4-1.2-1.4c-1,0-1.5,0.7-1.5,1.9v2.5h-1.1V313.1z"/>
	<path class="st135" d="M129.4,311.8c1,2.4,1.6,3.8,1.7,4.2h0c0.2-0.5,0.7-1.9,1.6-4.2h1.1l-1.9,4.7c-0.9,2.2-1.2,2.7-2.6,2.7
		c-0.2,0-0.5,0-0.7-0.1v-1c0.2,0,0.4,0,0.5,0c0.7,0,0.9-0.3,1.3-1.2l-2.3-5.3H129.4z"/>
	<path class="st135" d="M137.6,313.1c0-0.4,0-0.9,0-1.3h1.1c0,0.2,0,0.5,0,0.7c0.3-0.4,0.7-0.9,1.6-0.9c0.9,0,1.3,0.4,1.6,0.9
		c0.3-0.4,0.7-0.9,1.7-0.9c1,0,1.8,0.6,1.8,2.1v3.1h-1.1v-3.1c0-0.6-0.2-1.2-1-1.2c-0.8,0-1.2,0.5-1.2,1.5v2.8H141v-3.1
		c0-0.6-0.2-1.2-1-1.2c-0.9,0-1.2,0.7-1.2,1.6v2.7h-1.1V313.1z"/>
	<path class="st135" d="M147.8,314.6c0.1,0.9,0.7,1.5,1.6,1.5c0.7,0,1.2-0.3,1.4-0.7h1.1c-0.3,0.8-1,1.6-2.6,1.6
		c-1.9,0-2.7-1.3-2.7-2.7c0-1.5,1-2.7,2.7-2.7c1.9,0,2.6,1.4,2.6,2.7c0,0.1,0,0.2,0,0.3H147.8z M150.9,313.9c0-0.6-0.3-1.4-1.5-1.4
		c-1,0-1.5,0.6-1.5,1.4H150.9z"/>
	<path class="st135" d="M158.3,309.4v6c0,0.5,0,1,0,1.5h-1.1c0-0.2,0-0.5,0-0.7c-0.3,0.4-0.7,0.9-1.8,0.9c-1.5,0-2.5-1.1-2.5-2.6
		c0-1.7,1.3-2.7,2.6-2.7c1.1,0,1.6,0.5,1.7,0.7v-3H158.3z M154,314.4c0,0.9,0.5,1.8,1.6,1.8c1.1,0,1.6-0.7,1.6-1.8
		c0-1.1-0.4-1.8-1.6-1.8C154.6,312.6,154,313.5,154,314.4z"/>
	<path class="st135" d="M159.9,309.4h1.1v1.2h-1.1V309.4z M159.9,311.8h1.1v5.1h-1.1V311.8z"/>
	<path class="st135" d="M167.4,315.3c-0.2,0.9-1,1.8-2.5,1.8c-1.8,0-2.7-1.2-2.7-2.7c0-1.4,1-2.7,2.7-2.7c1.8,0,2.4,1.1,2.5,1.8
		h-1.1c-0.2-0.4-0.5-0.9-1.4-0.9c-1,0-1.6,0.8-1.6,1.8c0,1,0.5,1.8,1.6,1.8c0.8,0,1.2-0.3,1.4-0.9H167.4z"/>
	<path class="st135" d="M168.6,309.4h1.1v1.2h-1.1V309.4z M168.6,311.8h1.1v5.1h-1.1V311.8z"/>
	<path class="st135" d="M171.3,313.1c0-0.4,0-0.9,0-1.3h1.1c0,0.2,0,0.6,0,0.9c0.2-0.5,0.7-1,1.8-1c1.2,0,2,0.7,2,2.1v3.1h-1.1V314
		c0-0.8-0.3-1.4-1.2-1.4c-1,0-1.5,0.7-1.5,1.9v2.5h-1.1V313.1z"/>
	<path class="st135" d="M178.5,314.6c0.1,0.9,0.7,1.5,1.6,1.5c0.7,0,1.2-0.3,1.4-0.7h1.1c-0.3,0.8-1,1.6-2.6,1.6
		c-1.9,0-2.7-1.3-2.7-2.7c0-1.5,1-2.7,2.7-2.7c1.9,0,2.6,1.4,2.6,2.7c0,0.1,0,0.2,0,0.3H178.5z M181.6,313.9c0-0.6-0.3-1.4-1.5-1.4
		c-1,0-1.5,0.6-1.5,1.4H181.6z"/>
	<path class="st135" d="M191.4,315.6c0,0.5,0,1.2,0,1.3h-1.1c0-0.2-0.1-0.5-0.1-0.7c-0.3,0.5-0.8,0.8-1.9,0.8c-1.4,0-2-0.9-2-1.6
		c0-1.3,1.2-1.7,2.6-1.7c0.6,0,1,0,1.2,0v-0.2c0-0.5-0.2-1-1.2-1c-0.9,0-1.1,0.4-1.2,0.8h-1.1c0.1-0.7,0.5-1.6,2.3-1.6
		c1.9,0,2.3,0.9,2.3,1.8V315.6z M190.3,314.5c-0.1,0-0.5,0-1.2,0c-1.1,0-1.6,0.2-1.6,0.9c0,0.5,0.3,0.9,1.1,0.9
		c1.2,0,1.6-0.7,1.6-1.5V314.5z"/>
	<path class="st135" d="M193,313.1c0-0.4,0-0.9,0-1.3h1.1c0,0.2,0,0.6,0,0.9c0.2-0.5,0.7-1,1.8-1c1.2,0,2,0.7,2,2.1v3.1h-1.1V314
		c0-0.8-0.3-1.4-1.2-1.4c-1,0-1.5,0.7-1.5,1.9v2.5H193V313.1z"/>
	<path class="st135" d="M204.5,309.4v6c0,0.5,0,1,0,1.5h-1.1c0-0.2,0-0.5,0-0.7c-0.3,0.4-0.7,0.9-1.8,0.9c-1.5,0-2.5-1.1-2.5-2.6
		c0-1.7,1.3-2.7,2.6-2.7c1.1,0,1.6,0.5,1.7,0.7v-3H204.5z M200.2,314.4c0,0.9,0.5,1.8,1.6,1.8c1.1,0,1.6-0.7,1.6-1.8
		c0-1.1-0.4-1.8-1.6-1.8C200.8,312.6,200.2,313.5,200.2,314.4z"/>
	<path class="st135" d="M209.5,311.8c0.8,2.9,1,3.6,1.2,4.1h0c0.1-0.5,0.3-1.2,1.3-4.1h1.1c1,2.9,1.2,3.7,1.3,4.1h0
		c0.1-0.5,0.4-1.5,1.2-4.1h1.1l-1.7,5.1h-1.2c-0.6-1.8-1.1-3.2-1.2-3.8h0c-0.1,0.5-0.6,2-1.3,3.8H210l-1.6-5.1H209.5z"/>
	<path class="st135" d="M218.3,314.6c0.1,0.9,0.7,1.5,1.6,1.5c0.7,0,1.2-0.3,1.4-0.7h1.1c-0.3,0.8-1,1.6-2.6,1.6
		c-1.9,0-2.7-1.3-2.7-2.7c0-1.5,1-2.7,2.7-2.7c1.9,0,2.6,1.4,2.6,2.7c0,0.1,0,0.2,0,0.3H218.3z M221.4,313.9c0-0.6-0.3-1.4-1.5-1.4
		c-1,0-1.5,0.6-1.5,1.4H221.4z"/>
	<path class="st135" d="M223.3,312.4c0.3-0.8,0.5-2,0.5-3h1.1c-0.1,0.9-0.5,2.3-0.8,3H223.3z"/>
	<path class="st135" d="M226.2,316.9v-7.5h1.1v7.5H226.2z"/>
	<path class="st135" d="M228.9,316.9v-7.5h1.1v7.5H228.9z"/>
	<path class="st135" d="M239.5,309.4v6c0,0.5,0,1,0,1.5h-1.1c0-0.2,0-0.5,0-0.7c-0.3,0.4-0.7,0.9-1.8,0.9c-1.5,0-2.5-1.1-2.5-2.6
		c0-1.7,1.3-2.7,2.6-2.7c1.1,0,1.6,0.5,1.7,0.7v-3H239.5z M235.3,314.4c0,0.9,0.5,1.8,1.6,1.8c1.1,0,1.6-0.7,1.6-1.8
		c0-1.1-0.4-1.8-1.6-1.8C235.8,312.6,235.3,313.5,235.3,314.4z"/>
	<path class="st135" d="M241.9,314.6c0.1,0.9,0.7,1.5,1.6,1.5c0.7,0,1.2-0.3,1.4-0.7h1.1c-0.3,0.8-1,1.6-2.6,1.6
		c-1.9,0-2.7-1.3-2.7-2.7c0-1.5,1-2.7,2.7-2.7c1.9,0,2.6,1.4,2.6,2.7c0,0.1,0,0.2,0,0.3H241.9z M244.9,313.9c0-0.6-0.3-1.4-1.5-1.4
		c-1,0-1.5,0.6-1.5,1.4H244.9z"/>
	<path class="st135" d="M247.2,316.9v-7.5h1.1v7.5H247.2z"/>
	<path class="st135" d="M249.9,309.4h1.1v1.2h-1.1V309.4z M249.9,311.8h1.1v5.1h-1.1V311.8z"/>
	<path class="st135" d="M253.2,311.8c0.5,1.4,1.5,3.5,1.6,4.1h0c0.2-0.5,0.5-1.4,1.6-4.1h1.1l-2.2,5.1h-1.2l-2.2-5.1H253.2z"/>
	<path class="st135" d="M259.2,314.6c0.1,0.9,0.7,1.5,1.6,1.5c0.7,0,1.2-0.3,1.4-0.7h1.1c-0.3,0.8-1,1.6-2.6,1.6
		c-1.9,0-2.7-1.3-2.7-2.7c0-1.5,1-2.7,2.7-2.7c1.9,0,2.6,1.4,2.6,2.7c0,0.1,0,0.2,0,0.3H259.2z M262.3,313.9c0-0.6-0.3-1.4-1.5-1.4
		c-1,0-1.5,0.6-1.5,1.4H262.3z"/>
	<path class="st135" d="M264.6,313.2c0-0.5,0-0.9,0-1.4h1.1c0,0.2,0,0.7,0,1.1c0.3-0.8,1-1.3,2-1.2v1c-1.2,0-2,0.6-2,2.1v2.1h-1.1
		V313.2z"/>
	<path class="st135" d="M271.6,309.4h1.1v1.2h-1.1V309.4z M271.6,311.8h1.1v5.1h-1.1V311.8z"/>
	<path class="st135" d="M273.8,311.8h1v-1.6h1.1v1.6h1.3v0.9h-1.3v2.6c0,0.5,0.1,0.8,0.7,0.8c0.1,0,0.3,0,0.5,0v0.8
		c-0.2,0.1-0.5,0.1-0.8,0.1c-1.1,0-1.4-0.5-1.4-1.5v-2.8h-1V311.8z"/>
	<path class="st135" d="M281.5,316.9v-4.2h-0.9v-0.9h0.9v-0.6c0-1.2,0.5-1.9,1.8-1.9c0.3,0,0.5,0,0.6,0.1v0.9c-0.1,0-0.3,0-0.4,0
		c-0.6,0-0.8,0.3-0.8,1v0.6h1.2v0.9h-1.2v4.2H281.5z"/>
	<path class="st135" d="M289.8,314.3c0,1.4-1,2.7-2.8,2.7c-1.8,0-2.7-1.3-2.7-2.7c0-1.4,1-2.7,2.8-2.7
		C288.9,311.7,289.8,313,289.8,314.3z M285.4,314.3c0,0.9,0.6,1.8,1.6,1.8c1.1,0,1.6-0.8,1.6-1.8s-0.6-1.8-1.6-1.8
		C285.9,312.6,285.4,313.4,285.4,314.3z"/>
	<path class="st135" d="M291,313.2c0-0.5,0-0.9,0-1.4h1.1c0,0.2,0,0.7,0,1.1c0.3-0.8,1-1.3,2-1.2v1c-1.2,0-2,0.6-2,2.1v2.1H291
		V313.2z"/>
	<path class="st135" d="M298.3,316.9v-4.2h-0.9v-0.9h0.9v-0.6c0-1.2,0.5-1.9,1.8-1.9c0.3,0,0.5,0,0.6,0.1v0.9c-0.1,0-0.3,0-0.4,0
		c-0.6,0-0.8,0.3-0.8,1v0.6h1.2v0.9h-1.2v4.2H298.3z"/>
	<path class="st135" d="M301.5,313.2c0-0.5,0-0.9,0-1.4h1.1c0,0.2,0,0.7,0,1.1c0.3-0.8,1-1.3,2-1.2v1c-1.2,0-2,0.6-2,2.1v2.1h-1.1
		V313.2z"/>
	<path class="st135" d="M306.4,314.6c0.1,0.9,0.7,1.5,1.6,1.5c0.7,0,1.2-0.3,1.4-0.7h1.1c-0.3,0.8-1,1.6-2.6,1.6
		c-1.9,0-2.7-1.3-2.7-2.7c0-1.5,1-2.7,2.7-2.7c1.9,0,2.7,1.4,2.7,2.7c0,0.1,0,0.2,0,0.3H306.4z M309.4,313.9c0-0.6-0.3-1.4-1.5-1.4
		c-1,0-1.5,0.6-1.5,1.4H309.4z"/>
	<path class="st135" d="M312.6,314.6c0.1,0.9,0.7,1.5,1.6,1.5c0.7,0,1.2-0.3,1.4-0.7h1.1c-0.3,0.8-1,1.6-2.6,1.6
		c-1.9,0-2.7-1.3-2.7-2.7c0-1.5,1-2.7,2.7-2.7c1.9,0,2.7,1.4,2.7,2.7c0,0.1,0,0.2,0,0.3H312.6z M315.6,313.9c0-0.6-0.3-1.4-1.5-1.4
		c-1,0-1.5,0.6-1.5,1.4H315.6z"/>
	<path class="st135" d="M318,316.9v-1.7h1.3v1.7H318z"/>
	<path class="st135" d="M179.8,325.3c0,2-1.3,3.7-3.8,3.7c-2.3,0-3.7-1.6-3.7-3.7c0-2,1.5-3.7,3.8-3.7
		C178.4,321.7,179.8,323.4,179.8,325.3z M173.6,325.3c0,1.5,0.9,2.8,2.5,2.8c1.7,0,2.5-1.3,2.5-2.7c0-1.4-0.9-2.7-2.5-2.7
		C174.5,322.6,173.6,323.9,173.6,325.3z"/>
	<path class="st135" d="M181.2,325.2c0-0.5,0-0.9,0-1.4h1.1c0,0.2,0,0.7,0,1.1c0.3-0.8,1-1.3,2-1.2v1c-1.2,0-2,0.6-2,2.1v2.1h-1.1
		V325.2z"/>
	<path class="st135" d="M190.3,321.4v6c0,0.5,0,1,0,1.5h-1.1c0-0.2,0-0.5,0-0.7c-0.3,0.4-0.7,0.9-1.8,0.9c-1.5,0-2.5-1.1-2.5-2.6
		c0-1.7,1.3-2.7,2.6-2.7c1.1,0,1.6,0.5,1.7,0.7v-3H190.3z M186.1,326.4c0,0.9,0.5,1.8,1.6,1.8c1.1,0,1.6-0.7,1.6-1.8
		c0-1.1-0.4-1.8-1.6-1.8C186.6,324.6,186.1,325.5,186.1,326.4z"/>
	<path class="st135" d="M192.6,326.6c0.1,0.9,0.7,1.5,1.6,1.5c0.7,0,1.2-0.3,1.4-0.7h1.1c-0.3,0.8-1,1.6-2.6,1.6
		c-1.9,0-2.7-1.3-2.7-2.7c0-1.5,1-2.7,2.7-2.7c1.9,0,2.6,1.4,2.6,2.7c0,0.1,0,0.2,0,0.3H192.6z M195.7,325.9c0-0.6-0.3-1.4-1.5-1.4
		c-1,0-1.5,0.6-1.5,1.4H195.7z"/>
	<path class="st135" d="M198,325.2c0-0.5,0-0.9,0-1.4h1.1c0,0.2,0,0.7,0,1.1c0.3-0.8,1-1.3,2-1.2v1c-1.2,0-2,0.6-2,2.1v2.1H198
		V325.2z"/>
	<path class="st135" d="M205.3,328.9v-7.1h1.4c1.7,2.4,3.6,4.9,4,5.7h0c-0.1-0.9-0.1-2-0.1-3.2v-2.4h1.1v7.1h-1.3
		c-1-1.3-3.6-5.1-4.1-5.9h0c0.1,0.9,0.1,1.9,0.1,3.2v2.7H205.3z"/>
	<path class="st135" d="M218.6,326.3c0,1.4-1,2.7-2.8,2.7c-1.8,0-2.7-1.3-2.7-2.7c0-1.4,1-2.7,2.8-2.7
		C217.7,323.7,218.6,325,218.6,326.3z M214.2,326.3c0,0.9,0.6,1.8,1.6,1.8c1.1,0,1.6-0.8,1.6-1.8s-0.6-1.8-1.6-1.8
		C214.7,324.6,214.2,325.4,214.2,326.3z"/>
	<path class="st135" d="M220.4,323.8c0.8,2.9,1,3.6,1.2,4.1h0c0.1-0.5,0.3-1.2,1.3-4.1h1.1c1,2.9,1.2,3.7,1.3,4.1h0
		c0.1-0.5,0.4-1.5,1.2-4.1h1.1l-1.7,5.1h-1.2c-0.6-1.8-1.1-3.2-1.2-3.8h0c-0.1,0.5-0.6,2-1.3,3.8h-1.2l-1.6-5.1H220.4z"/>
	<path class="st135" d="M229,326.4l-0.1-3.4v-1.2h1.2v1.2l-0.1,3.4H229z M228.9,328.9v-1.6h1.1v1.6H228.9z"/>
</g>
</svg>
