<?xml version="1.0" encoding="utf-8"?>
<!-- Generator: Adobe Illustrator 23.1.0, SVG Export Plug-In . SVG Version: 6.00 Build 0)  -->
<svg version="1.1" id="Layer_1" xmlns="http://www.w3.org/2000/svg" xmlns:xlink="http://www.w3.org/1999/xlink" x="0px" y="0px"
	 width="398px" height="389.1px" viewBox="0 0 398 389.1" style="enable-background:new 0 0 398 389.1;" xml:space="preserve">
<style type="text/css">
	.st0{fill:#29A9E0;stroke:#000000;stroke-width:0.2;stroke-miterlimit:10;}
	.st1{fill:#C1272D;stroke:#000000;stroke-width:0.2;stroke-miterlimit:10;}
	.st2{fill:#189BC9;stroke:#000000;stroke-width:0.2;stroke-miterlimit:10;}
	.st3{fill:#E20707;stroke:#000000;stroke-width:0.2;stroke-miterlimit:10;}
	.st4{fill:#ED1C24;stroke:#000000;stroke-width:0.2;stroke-miterlimit:10;}
	.st5{opacity:0.4;fill:#FFFFFF;stroke:#000000;stroke-width:0.2;stroke-miterlimit:10;enable-background:new    ;}
	.st6{fill:#53CAEA;stroke:#000000;stroke-width:0.2;stroke-miterlimit:10;}
	.st7{fill:#BBBDBF;stroke:#000000;stroke-width:0.2;stroke-miterlimit:10;}
	.st8{fill:#A6A8AB;stroke:#000000;stroke-width:0.2;stroke-miterlimit:10;}
	.st9{fill:#BF0000;stroke:#000000;stroke-width:0.2;stroke-miterlimit:10;}
	.st10{fill:#3E4768;stroke:#000000;stroke-width:0.2;stroke-miterlimit:10;}
	.st11{fill:#343D56;stroke:#000000;stroke-width:0.2;stroke-miterlimit:10;}
	.st12{fill:#D8EDEE;stroke:#000000;stroke-width:0.2;stroke-miterlimit:10;}
	.st13{fill:#BDD1D0;stroke:#000000;stroke-width:0.2;stroke-miterlimit:10;}
	.st14{fill:#B3B3B3;stroke:#000000;stroke-width:0.2;stroke-miterlimit:10;}
	.st15{fill:#808080;stroke:#000000;stroke-width:0.2;stroke-miterlimit:10;}
	.st16{fill:#B7E25A;stroke:#000000;stroke-width:0.2;stroke-miterlimit:10;}
	.st17{fill:#7BAD2D;stroke:#000000;stroke-width:0.2;stroke-miterlimit:10;}
	.st18{fill:#8BC543;stroke:#000000;stroke-width:0.2;stroke-miterlimit:10;}
	.st19{fill:#333333;}
	.st20{fill-rule:evenodd;clip-rule:evenodd;fill:url(#SVGID_1_);stroke:#000000;stroke-width:0.3;stroke-miterlimit:10;}
	.st21{fill-rule:evenodd;clip-rule:evenodd;fill:url(#SVGID_2_);stroke:#000000;stroke-width:0.3;stroke-miterlimit:10;}
	.st22{fill-rule:evenodd;clip-rule:evenodd;fill:url(#SVGID_3_);stroke:#000000;stroke-width:0.3;stroke-miterlimit:10;}
	
		.st23{opacity:0.5;fill-rule:evenodd;clip-rule:evenodd;fill:url(#SVGID_4_);stroke:#000000;stroke-width:0.3;stroke-miterlimit:10;}
	
		.st24{opacity:0.5;fill-rule:evenodd;clip-rule:evenodd;fill:url(#SVGID_5_);stroke:#000000;stroke-width:0.3;stroke-miterlimit:10;}
	.st25{opacity:0.5;fill-rule:evenodd;clip-rule:evenodd;fill:#7E6DA5;stroke:#000000;stroke-width:0.3;stroke-miterlimit:10;}
	.st26{fill-rule:evenodd;clip-rule:evenodd;fill:url(#SVGID_6_);stroke:#000000;stroke-width:0.3;stroke-miterlimit:10;}
	
		.st27{opacity:0.5;fill-rule:evenodd;clip-rule:evenodd;fill:url(#SVGID_7_);stroke:#000000;stroke-width:0.3;stroke-miterlimit:10;}
	.st28{fill-rule:evenodd;clip-rule:evenodd;fill:url(#SVGID_8_);stroke:#000000;stroke-width:0.3;stroke-miterlimit:10;}
	
		.st29{opacity:0.5;fill-rule:evenodd;clip-rule:evenodd;fill:url(#SVGID_9_);stroke:#000000;stroke-width:0.3;stroke-miterlimit:10;}
	.st30{fill-rule:evenodd;clip-rule:evenodd;fill:url(#SVGID_10_);stroke:#000000;stroke-width:0.3;stroke-miterlimit:10;}
	
		.st31{opacity:0.5;fill-rule:evenodd;clip-rule:evenodd;fill:url(#SVGID_11_);stroke:#000000;stroke-width:0.3;stroke-miterlimit:10;}
	.st32{fill-rule:evenodd;clip-rule:evenodd;fill:url(#SVGID_12_);stroke:#000000;stroke-width:0.3;stroke-miterlimit:10;}
	
		.st33{opacity:0.5;fill-rule:evenodd;clip-rule:evenodd;fill:url(#SVGID_13_);stroke:#000000;stroke-width:0.3;stroke-miterlimit:10;}
	.st34{fill-rule:evenodd;clip-rule:evenodd;fill:url(#SVGID_14_);stroke:#000000;stroke-width:0.3;stroke-miterlimit:10;}
	
		.st35{opacity:0.5;fill-rule:evenodd;clip-rule:evenodd;fill:url(#SVGID_15_);stroke:#000000;stroke-width:0.3;stroke-miterlimit:10;}
	.st36{fill-rule:evenodd;clip-rule:evenodd;fill:url(#SVGID_16_);stroke:#000000;stroke-width:0.3;stroke-miterlimit:10;}
	
		.st37{opacity:0.5;fill-rule:evenodd;clip-rule:evenodd;fill:url(#SVGID_17_);stroke:#000000;stroke-width:0.3;stroke-miterlimit:10;}
	.st38{fill-rule:evenodd;clip-rule:evenodd;fill:url(#SVGID_18_);stroke:#000000;stroke-width:0.3;stroke-miterlimit:10;}
	
		.st39{opacity:0.5;fill-rule:evenodd;clip-rule:evenodd;fill:url(#SVGID_19_);stroke:#000000;stroke-width:0.3;stroke-miterlimit:10;}
	.st40{fill-rule:evenodd;clip-rule:evenodd;fill:url(#SVGID_20_);stroke:#000000;stroke-width:0.3;stroke-miterlimit:10;}
	.st41{fill-rule:evenodd;clip-rule:evenodd;fill:url(#SVGID_21_);stroke:#000000;stroke-width:0.3;stroke-miterlimit:10;}
	.st42{fill-rule:evenodd;clip-rule:evenodd;fill:url(#SVGID_22_);stroke:#000000;stroke-width:0.3;stroke-miterlimit:10;}
	.st43{fill-rule:evenodd;clip-rule:evenodd;fill:url(#SVGID_23_);stroke:#000000;stroke-width:0.3;stroke-miterlimit:10;}
	.st44{fill-rule:evenodd;clip-rule:evenodd;fill:url(#SVGID_24_);stroke:#000000;stroke-width:0.3;stroke-miterlimit:10;}
	.st45{fill-rule:evenodd;clip-rule:evenodd;fill:url(#SVGID_25_);stroke:#000000;stroke-width:0.3;stroke-miterlimit:10;}
	.st46{fill-rule:evenodd;clip-rule:evenodd;fill:url(#SVGID_26_);stroke:#000000;stroke-width:0.3;stroke-miterlimit:10;}
	.st47{fill-rule:evenodd;clip-rule:evenodd;fill:url(#SVGID_27_);stroke:#000000;stroke-width:0.3;stroke-miterlimit:10;}
	.st48{fill-rule:evenodd;clip-rule:evenodd;fill:url(#SVGID_28_);stroke:#000000;stroke-width:0.3;stroke-miterlimit:10;}
	.st49{fill-rule:evenodd;clip-rule:evenodd;fill:url(#SVGID_29_);stroke:#000000;stroke-width:0.3;stroke-miterlimit:10;}
	.st50{fill-rule:evenodd;clip-rule:evenodd;fill:url(#SVGID_30_);stroke:#000000;stroke-width:0.3;stroke-miterlimit:10;}
	.st51{fill-rule:evenodd;clip-rule:evenodd;fill:url(#SVGID_31_);stroke:#000000;stroke-width:0.3;stroke-miterlimit:10;}
	.st52{fill-rule:evenodd;clip-rule:evenodd;fill:url(#SVGID_32_);stroke:#000000;stroke-width:0.3;stroke-miterlimit:10;}
	.st53{fill-rule:evenodd;clip-rule:evenodd;fill:url(#SVGID_33_);stroke:#000000;stroke-width:0.3;stroke-miterlimit:10;}
	.st54{fill-rule:evenodd;clip-rule:evenodd;fill:url(#SVGID_34_);stroke:#000000;stroke-width:0.3;stroke-miterlimit:10;}
	.st55{fill-rule:evenodd;clip-rule:evenodd;fill:url(#SVGID_35_);stroke:#000000;stroke-width:0.3;stroke-miterlimit:10;}
	.st56{fill-rule:evenodd;clip-rule:evenodd;fill:url(#SVGID_36_);stroke:#000000;stroke-width:0.3;stroke-miterlimit:10;}
	.st57{fill-rule:evenodd;clip-rule:evenodd;fill:url(#SVGID_37_);stroke:#000000;stroke-width:0.3;stroke-miterlimit:10;}
	.st58{fill-rule:evenodd;clip-rule:evenodd;fill:url(#SVGID_38_);stroke:#000000;stroke-width:0.3;stroke-miterlimit:10;}
	.st59{fill-rule:evenodd;clip-rule:evenodd;fill:url(#SVGID_39_);stroke:#000000;stroke-width:0.3;stroke-miterlimit:10;}
	.st60{fill-rule:evenodd;clip-rule:evenodd;fill:#5CE5FF;stroke:#000000;stroke-width:0.3;stroke-miterlimit:10;}
	.st61{fill-rule:evenodd;clip-rule:evenodd;fill:url(#SVGID_40_);stroke:#000000;stroke-width:0.3;stroke-miterlimit:10;}
	.st62{opacity:0.3;fill-rule:evenodd;clip-rule:evenodd;fill:#AFA4C6;stroke:#000000;stroke-width:0.3;stroke-miterlimit:10;}
	
		.st63{opacity:0.5;fill-rule:evenodd;clip-rule:evenodd;fill:url(#SVGID_41_);stroke:#000000;stroke-width:0.3;stroke-miterlimit:10;}
	.st64{opacity:0.6;fill-rule:evenodd;clip-rule:evenodd;fill:#FBF9FA;stroke:#000000;stroke-width:0.3;stroke-miterlimit:10;}
	.st65{fill-rule:evenodd;clip-rule:evenodd;fill:url(#SVGID_42_);stroke:#000000;stroke-width:0.3;stroke-miterlimit:10;}
	
		.st66{opacity:0.5;fill-rule:evenodd;clip-rule:evenodd;fill:url(#SVGID_43_);stroke:#000000;stroke-width:0.3;stroke-miterlimit:10;}
	.st67{fill-rule:evenodd;clip-rule:evenodd;fill:url(#SVGID_44_);stroke:#000000;stroke-width:0.3;stroke-miterlimit:10;}
	.st68{fill-rule:evenodd;clip-rule:evenodd;fill:url(#SVGID_45_);stroke:#000000;stroke-width:0.3;stroke-miterlimit:10;}
	.st69{fill-rule:evenodd;clip-rule:evenodd;fill:url(#SVGID_46_);stroke:#000000;stroke-width:0.3;stroke-miterlimit:10;}
	.st70{fill-rule:evenodd;clip-rule:evenodd;fill:url(#SVGID_47_);stroke:#000000;stroke-width:0.3;stroke-miterlimit:10;}
	.st71{fill-rule:evenodd;clip-rule:evenodd;fill:url(#SVGID_48_);stroke:#000000;stroke-width:0.3;stroke-miterlimit:10;}
	.st72{fill-rule:evenodd;clip-rule:evenodd;fill:url(#SVGID_49_);stroke:#000000;stroke-width:0.3;stroke-miterlimit:10;}
	.st73{fill-rule:evenodd;clip-rule:evenodd;fill:url(#SVGID_50_);stroke:#000000;stroke-width:0.3;stroke-miterlimit:10;}
	.st74{fill-rule:evenodd;clip-rule:evenodd;fill:url(#SVGID_51_);stroke:#000000;stroke-width:0.3;stroke-miterlimit:10;}
	.st75{fill-rule:evenodd;clip-rule:evenodd;fill:url(#SVGID_52_);stroke:#000000;stroke-width:0.3;stroke-miterlimit:10;}
	.st76{fill-rule:evenodd;clip-rule:evenodd;fill:url(#SVGID_53_);stroke:#000000;stroke-width:0.3;stroke-miterlimit:10;}
	.st77{fill-rule:evenodd;clip-rule:evenodd;fill:url(#SVGID_54_);stroke:#000000;stroke-width:0.3;stroke-miterlimit:10;}
	.st78{fill-rule:evenodd;clip-rule:evenodd;fill:url(#SVGID_55_);stroke:#000000;stroke-width:0.3;stroke-miterlimit:10;}
	.st79{fill-rule:evenodd;clip-rule:evenodd;fill:url(#SVGID_56_);stroke:#000000;stroke-width:0.3;stroke-miterlimit:10;}
	.st80{fill-rule:evenodd;clip-rule:evenodd;fill:url(#SVGID_57_);stroke:#000000;stroke-width:0.3;stroke-miterlimit:10;}
	.st81{fill:#E20707;stroke:#000000;stroke-width:0.3;stroke-miterlimit:10;}
	.st82{fill:#F0F1F1;stroke:#000000;stroke-width:0.3;stroke-miterlimit:10;}
	.st83{fill:#C90D0D;stroke:#000000;stroke-width:0.3;stroke-miterlimit:10;}
	.st84{fill:#E6E6E7;stroke:#000000;stroke-width:0.3;stroke-miterlimit:10;}
	.st85{opacity:0.4;fill:#FFFFFF;stroke:#000000;stroke-width:0.3;stroke-miterlimit:10;}
	.st86{fill:#FFA69F;stroke:#000000;stroke-width:0.3;stroke-miterlimit:10;}
	.st87{fill:#EA786A;stroke:#000000;stroke-width:0.3;stroke-miterlimit:10;}
	.st88{fill:#F88976;stroke:#000000;stroke-width:0.3;stroke-miterlimit:10;}
	.st89{fill:#22B573;stroke:#000000;stroke-width:0.3;stroke-miterlimit:10;}
	.st90{fill:#FFFFFF;stroke:#000000;stroke-width:0.3;stroke-miterlimit:10;}
</style>
<g>
	<g>
		<path d="M25.9,15.2v10h-2.8v-7.1l-1.8,7.1h-1.9l-1.9-7.1v7.1h-2.3v-10h4l1.4,5.3l1.4-5.3H25.9z"/>
		<path d="M32.4,22.5l2.7,0.2c-0.2,0.7-0.6,1.4-1.2,1.8c-0.6,0.5-1.6,0.8-2.7,0.8c-1.2,0-2.2-0.4-3-1.1c-0.7-0.7-1.1-1.6-1.1-2.7
			c0-1.1,0.4-2,1.1-2.8c0.7-0.8,1.7-1.1,3-1.1c1.2,0,2.1,0.4,2.9,1.1c0.7,0.7,1.1,1.7,1.1,3c0,0.1,0,0.2,0,0.4h-5
			c0,0.5,0.1,0.8,0.3,1c0.2,0.2,0.5,0.3,0.9,0.3C31.9,23.4,32.3,23.1,32.4,22.5z M32.2,20.6c0-0.5-0.1-0.8-0.3-1
			c-0.2-0.2-0.5-0.3-0.7-0.3c-0.7,0-1,0.4-1,1.3L32.2,20.6L32.2,20.6z"/>
		<path d="M43.5,25.2h-2.7v-1c-0.4,0.7-1.1,1.1-2,1.1c-0.8,0-1.6-0.3-2.1-1c-0.5-0.7-0.8-1.6-0.8-2.9c0-1.2,0.3-2.1,0.8-2.8
			c0.5-0.7,1.2-1,2.1-1c0.7,0,1.3,0.3,1.8,0.8v-3.1h2.9L43.5,25.2L43.5,25.2z M40.7,20.4c0-0.7-0.3-1-0.8-1c-0.4,0-0.6,0.2-0.7,0.6
			c-0.1,0.4-0.2,0.9-0.2,1.6c0,1.2,0.3,1.8,0.9,1.8c0.2,0,0.4-0.1,0.6-0.3c0.2-0.2,0.3-0.5,0.3-0.9V20.4z"/>
	</g>
	<g>
		<path d="M50.7,22.3l2.8-0.5c0.2,0.8,0.8,1.2,1.8,1.2c0.8,0,1.1-0.2,1.1-0.6c0-0.2-0.1-0.4-0.3-0.5c-0.2-0.1-0.5-0.2-0.9-0.3
			c-1.8-0.3-2.9-0.8-3.4-1.3c-0.5-0.6-0.7-1.2-0.7-1.9c0-0.9,0.4-1.7,1.1-2.3C53,15.4,54,15,55.3,15c2,0,3.4,0.8,4,2.4l-2.5,0.8
			c-0.3-0.7-0.8-1-1.6-1c-0.7,0-1,0.2-1,0.6c0,0.2,0.1,0.3,0.2,0.4s0.5,0.2,0.9,0.3c1.2,0.3,2,0.5,2.5,0.7c0.5,0.2,0.9,0.5,1.3,1
			c0.3,0.5,0.5,1,0.5,1.7c0,1-0.4,1.8-1.2,2.4c-0.8,0.6-1.9,0.9-3.2,0.9C52.7,25.3,51.2,24.3,50.7,22.3z"/>
	</g>
	<g>
		<path d="M76.3,27.5h-2.9v-9.8H76v1c0.4-0.8,1.1-1.2,2.1-1.2c0.9,0,1.6,0.4,2.1,1c0.5,0.7,0.7,1.6,0.7,2.8s-0.3,2.1-0.8,2.8
			c-0.5,0.7-1.2,1-2,1c-0.8,0-1.5-0.3-1.9-0.9L76.3,27.5L76.3,27.5L76.3,27.5z M76.3,22.4c0,0.3,0.1,0.6,0.2,0.8
			c0.2,0.2,0.3,0.3,0.6,0.3c0.4,0,0.6-0.2,0.7-0.5c0.1-0.3,0.2-0.8,0.2-1.5c0-0.8-0.1-1.3-0.2-1.6c-0.2-0.3-0.4-0.5-0.7-0.5
			c-0.2,0-0.4,0.1-0.6,0.2c-0.2,0.1-0.3,0.4-0.3,0.7L76.3,22.4L76.3,22.4z"/>
	</g>
	<g>
		<g>
			<path class="st0" d="M44.7,16.2c0-1.2,1-2.1,2.1-2.1h0.3c1.2,0,2.1,1,2.1,2.1v7c0,1.2-1,2.1-2.1,2.1h-0.3c-1.2,0-2.1-1-2.1-2.1
				V16.2z"/>
			<g>
				<path class="st1" d="M44.7,23.2c0,1.2,1,2.1,2.1,2.1h0.3c1.2,0,2.1-1,2.1-2.1v-3.5h-4.6L44.7,23.2L44.7,23.2z"/>
			</g>
			<g>
				<path class="st2" d="M45.8,16.2c0-1,0.7-1.9,1.8-2.1c-0.1,0-0.3,0-0.4,0h-0.3c-1.2,0-2.1,1-2.1,2.1v3.5h1.1L45.8,16.2L45.8,16.2
					z"/>
				<path class="st3" d="M47.4,25.3c-0.1,0-0.1,0-0.2,0C47.2,25.3,47.3,25.3,47.4,25.3z"/>
				<path class="st4" d="M46.9,25.3h0.3c0.1,0,0.1,0,0.2,0c0.1,0,0.1,0,0.2,0c-1-0.2-1.8-1.1-1.8-2.1v-3.5h-1.1v3.5
					C44.7,24.3,45.7,25.3,46.9,25.3z"/>
			</g>
			<path class="st5" d="M47.4,16.1c0-0.3,0.2-0.5,0.5-0.5H48c0.3,0,0.5,0.2,0.5,0.5v7.1c0,0.3-0.2,0.5-0.5,0.5h-0.1
				c-0.3,0-0.5-0.2-0.5-0.5V16.1z"/>
		</g>
		<g>
			<path class="st6" d="M48.5,11.8c0.9-0.9,0.9-2.4,0-3.3l-3.3,3.3C46.1,12.7,47.6,12.7,48.5,11.8z"/>
			<path class="st2" d="M45.2,8.5c-0.9,0.9-0.9,2.4,0,3.3l3.3-3.3C47.6,7.6,46.1,7.6,45.2,8.5z"/>
			<path class="st0" d="M48.3,11.6c0.8-0.8,0.8-2.1,0-2.9l-2.9,2.9C46.2,12.4,47.5,12.4,48.3,11.6z"/>
			<path class="st0" d="M45.4,8.7c-0.8,0.8-0.8,2.1,0,2.9l2.9-2.9C47.5,7.9,46.2,7.9,45.4,8.7z"/>
			<polygon class="st2" points="45.2,11.8 45.6,11.8 48.5,8.9 48.5,8.5 			"/>
			<polygon class="st6" points="45.2,11.8 45.2,11.4 48.1,8.5 48.5,8.5 			"/>
		</g>
	</g>
	<g>
		<rect x="62.9" y="9.6" class="st7" width="1.5" height="0.8"/>
		<rect x="61.4" y="9.6" class="st8" width="1.5" height="0.8"/>
		<polygon class="st7" points="63.1,32.6 63.1,26 62.9,26 62.9,32.8 		"/>
		<polygon class="st8" points="62.6,33 62.7,33 62.9,32.8 62.9,26 62.6,26 		"/>
		<polygon class="st3" points="63.4,26.5 64.4,25.7 64.4,20.3 62.9,20.3 62.9,26.5 		"/>
		<polygon class="st9" points="61.4,25.7 62.3,26.5 62.9,26.5 62.9,20.3 61.4,20.3 		"/>
		<rect x="62.9" y="9.8" class="st7" width="0.7" height="10.5"/>
		<rect x="62.2" y="9.8" class="st8" width="0.7" height="10.5"/>
		<rect x="62.9" y="19.3" class="st10" width="1.5" height="1"/>
		<rect x="61.4" y="19.3" class="st11" width="1.5" height="1"/>
		<rect x="62.9" y="26.6" class="st10" width="0.5" height="1"/>
		<rect x="62.4" y="26.6" class="st11" width="0.5" height="1"/>
		<g>
			<polygon class="st12" points="64.3,13.3 64.3,25.7 63.4,26.4 62.9,26.4 62.9,26.6 63.5,26.6 64.5,25.9 64.5,13.1 62.9,13.1 
				62.9,13.3 			"/>
			<polygon class="st13" points="61.2,25.9 62.3,26.6 62.9,26.6 62.9,26.4 62.4,26.4 61.5,25.7 61.5,13.3 62.9,13.3 62.9,13.1 
				61.2,13.1 			"/>
		</g>
		<rect x="63.1" y="12.7" class="st14" width="5.9" height="0.7"/>
		<rect x="57.2" y="12.7" class="st15" width="5.9" height="0.7"/>
		<rect x="62.9" y="24.5" class="st12" width="1.7" height="0.3"/>
		<rect x="63.6" y="23.3" class="st12" width="0.9" height="0.3"/>
		<rect x="62.9" y="22.1" class="st12" width="1.7" height="0.3"/>
		<rect x="63.7" y="20.8" class="st12" width="0.8" height="0.3"/>
		<rect x="62.9" y="19.6" class="st12" width="1.7" height="0.3"/>
		<rect x="63.6" y="18.4" class="st12" width="0.9" height="0.3"/>
		<rect x="62.9" y="17.2" class="st12" width="1.7" height="0.3"/>
		<rect x="63.7" y="15.9" class="st12" width="0.8" height="0.3"/>
		<rect x="62.9" y="14.7" class="st12" width="1.7" height="0.3"/>
	</g>
	<g>
		<path class="st16" d="M66.5,18.6c-1.4,1.4-1.4,3.8,0,5.2l5.2-5.2C70.3,17.2,68,17.2,66.5,18.6z"/>
		<path class="st17" d="M71.7,23.8c1.4-1.4,1.4-3.8,0-5.2l-5.2,5.2C68,25.3,70.3,25.3,71.7,23.8z"/>
		<path class="st18" d="M66.9,18.9c-1.3,1.3-1.3,3.3,0,4.6l4.6-4.6C70.2,17.7,68.1,17.7,66.9,18.9z"/>
		<path class="st18" d="M71.4,23.5c1.3-1.3,1.3-3.3,0-4.6l-4.6,4.6C68.1,24.8,70.2,24.8,71.4,23.5z"/>
		<polygon class="st17" points="71.7,18.6 71.1,18.7 66.6,23.2 66.5,23.8 		"/>
		<polygon class="st16" points="71.7,18.6 71.7,19.3 67.2,23.8 66.5,23.8 		"/>
	</g>
</g>
<g>
	<path class="st19" d="M90.8,261.9h-3.6l-1.8-4l-1.1,1.6v2.5h-3.1v-10.7h3.1v4.4l2.9-4.4h2.9l-2.7,3.9L90.8,261.9z"/>
	<path class="st19" d="M99.3,261.9h-3.1v-5c0-0.4-0.1-0.7-0.2-0.8c-0.1-0.1-0.3-0.2-0.5-0.2c-0.6,0-0.9,0.4-0.9,1.2v4.8h-3.1v-7.9
		h2.9v1.1c0.4-0.9,1.2-1.3,2.3-1.3c0.6,0,1.1,0.1,1.5,0.3s0.7,0.5,0.9,0.9s0.3,1,0.3,1.8V261.9z"/>
	<path class="st19" d="M104.8,262c-1.3,0-2.4-0.4-3.1-1.2c-0.8-0.8-1.2-1.8-1.2-2.9c0-1.2,0.4-2.2,1.2-3c0.8-0.8,1.9-1.2,3.2-1.2
		c1.3,0,2.4,0.4,3.2,1.2c0.8,0.8,1.2,1.8,1.2,2.9c0,1.2-0.4,2.2-1.2,3S106.2,262,104.8,262z M104.9,260.1c0.5,0,0.8-0.3,0.9-0.8
		c0.1-0.5,0.2-1,0.2-1.6c0-0.7-0.1-1.3-0.2-1.6c-0.2-0.3-0.4-0.5-0.8-0.5c-0.4,0-0.6,0.2-0.8,0.5c-0.2,0.3-0.3,0.9-0.3,1.7
		c0,0.9,0.1,1.5,0.3,1.8S104.5,260.1,104.9,260.1z"/>
	<path class="st19" d="M121.2,253.9l-2.5,7.9h-2.2l-1-4.3l-1.1,4.3h-2.2l-2.6-7.9h3.1l1,3.9l1-3.9h2.3l1,3.9l1.1-3.9H121.2z"/>
	<path class="st19" d="M133.5,253.9l-3.1,8.6c-0.2,0.7-0.6,1.2-1,1.5c-0.4,0.4-1.1,0.6-2.1,0.6c-0.2,0-0.7,0-1.6-0.1v-2.2
		c0.4,0.1,0.8,0.1,1.1,0.1c0.9,0,1.3-0.2,1.3-0.6c0-0.1,0-0.3-0.1-0.5l-2.9-7.4h3.3l1.3,4.2l1.4-4.2H133.5z"/>
	<path class="st19" d="M137.9,262c-1.3,0-2.4-0.4-3.1-1.2c-0.8-0.8-1.2-1.8-1.2-2.9c0-1.2,0.4-2.2,1.2-3c0.8-0.8,1.9-1.2,3.2-1.2
		c1.3,0,2.4,0.4,3.2,1.2c0.8,0.8,1.2,1.8,1.2,2.9c0,1.2-0.4,2.2-1.2,3S139.3,262,137.9,262z M138,260.1c0.5,0,0.8-0.3,0.9-0.8
		c0.1-0.5,0.2-1,0.2-1.6c0-0.7-0.1-1.3-0.2-1.6c-0.2-0.3-0.4-0.5-0.8-0.5c-0.4,0-0.6,0.2-0.8,0.5c-0.2,0.3-0.3,0.9-0.3,1.7
		c0,0.9,0.1,1.5,0.3,1.8S137.6,260.1,138,260.1z"/>
	<path class="st19" d="M151.3,253.9v7.9h-2.9v-1.3c-0.4,1-1.2,1.5-2.5,1.5c-0.8,0-1.3-0.2-1.8-0.6s-0.6-1-0.6-1.8v-5.7h3.1v5
		c0,0.3,0,0.5,0.1,0.7s0.3,0.2,0.5,0.2c0.3,0,0.5-0.1,0.6-0.3c0.2-0.2,0.3-0.5,0.3-0.8v-4.8H151.3z"/>
	<path class="st19" d="M155.9,261.9h-3v-7.9h2.6v1.6c0.3-1.2,1-1.8,2.1-1.8c0.1,0,0.3,0,0.5,0v2.8c-0.2-0.1-0.4-0.1-0.6-0.1
		c-1,0-1.5,0.6-1.5,1.7V261.9z"/>
	<path class="st19" d="M174.7,251.2v10.7h-3v-7.6l-2,7.6h-2.1l-2.1-7.6v7.6h-2.5v-10.7h4.3l1.5,5.7l1.5-5.7H174.7z"/>
	<path class="st19" d="M181.7,259l2.9,0.2c-0.2,0.8-0.6,1.4-1.3,2s-1.7,0.8-2.9,0.8c-1.3,0-2.4-0.4-3.2-1.2s-1.2-1.7-1.2-2.9
		c0-1.2,0.4-2.2,1.2-3s1.8-1.2,3.1-1.2c1.3,0,2.3,0.4,3.1,1.2s1.2,1.8,1.2,3.1c0,0.1,0,0.3,0,0.5h-5.3c0,0.5,0.1,0.9,0.3,1.1
		s0.5,0.4,1,0.4C181.2,260,181.6,259.7,181.7,259z M181.5,257c0-0.5-0.1-0.9-0.3-1.1s-0.5-0.3-0.8-0.3c-0.7,0-1.1,0.5-1.1,1.4H181.5
		z"/>
	<path class="st19" d="M193.6,261.9h-2.9v-1.1c-0.4,0.8-1.1,1.2-2.1,1.2c-0.9,0-1.7-0.4-2.2-1.1s-0.9-1.8-0.9-3.1
		c0-1.3,0.3-2.3,0.9-3s1.3-1.1,2.3-1.1c0.8,0,1.4,0.3,1.9,0.9v-3.4h3.1V261.9z M190.5,256.8c0-0.7-0.3-1.1-0.9-1.1
		c-0.4,0-0.7,0.2-0.8,0.7s-0.2,1-0.2,1.7c0,1.3,0.3,1.9,1,1.9c0.3,0,0.5-0.1,0.6-0.3s0.3-0.5,0.3-0.9V256.8z"/>
	<path class="st19" d="M198.4,250.9v2.5h-3.1v-2.5H198.4z M198.4,253.9v7.9h-3.1v-7.9H198.4z"/>
	<path class="st19" d="M204.8,258.7l2.7,0.2c-0.1,0.9-0.5,1.7-1.2,2.3s-1.5,0.9-2.6,0.9c-1.2,0-2.2-0.4-3-1.1
		c-0.8-0.8-1.1-1.7-1.1-2.9c0-1.2,0.4-2.2,1.1-3c0.8-0.8,1.7-1.2,2.9-1.2c1.1,0,1.9,0.3,2.6,0.9s1.1,1.4,1.2,2.3l-2.7,0.2
		c-0.1-0.8-0.4-1.3-1-1.3c-0.3,0-0.6,0.2-0.7,0.5s-0.2,0.8-0.2,1.6c0,0.7,0.1,1.1,0.2,1.4s0.4,0.5,0.8,0.5
		C204.4,259.8,204.7,259.5,204.8,258.7z"/>
	<path class="st19" d="M211.5,250.9v2.5h-3.1v-2.5H211.5z M211.5,253.9v7.9h-3.1v-7.9H211.5z"/>
	<path class="st19" d="M220.9,261.9h-3.1v-5c0-0.4-0.1-0.7-0.2-0.8s-0.3-0.2-0.5-0.2c-0.6,0-0.9,0.4-0.9,1.2v4.8h-3.1v-7.9h2.9v1.1
		c0.4-0.9,1.2-1.3,2.3-1.3c0.6,0,1.1,0.1,1.5,0.3s0.7,0.5,0.9,0.9s0.3,1,0.3,1.8V261.9z"/>
	<path class="st19" d="M227.8,259l2.9,0.2c-0.2,0.8-0.6,1.4-1.3,2s-1.7,0.8-2.9,0.8c-1.3,0-2.4-0.4-3.2-1.2s-1.2-1.7-1.2-2.9
		c0-1.2,0.4-2.2,1.2-3s1.8-1.2,3.1-1.2c1.3,0,2.3,0.4,3.1,1.2s1.2,1.8,1.2,3.1c0,0.1,0,0.3,0,0.5h-5.3c0,0.5,0.1,0.9,0.3,1.1
		s0.5,0.4,1,0.4C227.3,260,227.7,259.7,227.8,259z M227.6,257c0-0.5-0.1-0.9-0.3-1.1s-0.5-0.3-0.8-0.3c-0.7,0-1.1,0.5-1.1,1.4H227.6
		z"/>
	<path class="st19" d="M231.2,259.6l2.5-0.3c0.1,0.6,0.7,0.9,1.7,0.9c0.8,0,1.2-0.2,1.2-0.5c0-0.1-0.1-0.2-0.2-0.3s-0.5-0.2-1.1-0.2
		c-1.6-0.2-2.6-0.6-3-1.1s-0.6-1-0.6-1.6c0-0.8,0.3-1.5,1-2s1.6-0.8,2.7-0.8c1.9,0,3.2,0.7,3.7,2.1l-2.4,0.4
		c-0.2-0.5-0.7-0.7-1.4-0.7c-0.3,0-0.6,0-0.7,0.1s-0.2,0.2-0.2,0.3c0,0.3,0.3,0.4,0.8,0.5c1.3,0.1,2.2,0.3,2.6,0.4
		c0.5,0.2,0.9,0.4,1.2,0.8s0.5,0.9,0.5,1.5c0,0.9-0.4,1.6-1.1,2.1c-0.7,0.5-1.7,0.8-3,0.8C233,262,231.7,261.2,231.2,259.6z"/>
	<path class="st19" d="M247.5,250.9v2.5h-3.1v-2.5H247.5z M247.5,253.9v7.9h-3.1v-7.9H247.5z"/>
	<path class="st19" d="M256.9,261.9h-3.1v-5c0-0.4-0.1-0.7-0.2-0.8s-0.3-0.2-0.5-0.2c-0.6,0-0.9,0.4-0.9,1.2v4.8h-3.1v-7.9h2.9v1.1
		c0.4-0.9,1.2-1.3,2.3-1.3c0.6,0,1.1,0.1,1.5,0.3s0.7,0.5,0.9,0.9s0.3,1,0.3,1.8V261.9z"/>
	<path class="st19" d="M270.6,261.9h-3c-0.1-0.3-0.1-0.7-0.1-1.1c-0.6,0.8-1.4,1.3-2.6,1.3c-0.9,0-1.6-0.2-2.1-0.7s-0.7-1-0.7-1.6
		c0-0.8,0.4-1.5,1.1-2s2.1-0.8,4.1-0.9v-0.2c0-0.3-0.1-0.6-0.2-0.7s-0.4-0.2-0.7-0.2c-0.7,0-1.1,0.3-1.2,0.9l-2.8-0.3
		c0.4-1.7,1.8-2.5,4.1-2.5c0.6,0,1.2,0.1,1.8,0.2s1,0.3,1.3,0.6s0.5,0.6,0.6,0.9s0.2,0.9,0.2,1.7v3.2
		C270.3,260.9,270.4,261.4,270.6,261.9z M267.3,258.2c-1.3,0.1-2,0.6-2,1.3c0,0.5,0.3,0.7,0.8,0.7c0.3,0,0.6-0.1,0.9-0.3
		s0.4-0.6,0.4-1.3V258.2z"/>
	<path class="st19" d="M279.7,261.9h-3.1v-5c0-0.4-0.1-0.7-0.2-0.8s-0.3-0.2-0.5-0.2c-0.6,0-0.9,0.4-0.9,1.2v4.8h-3.1v-7.9h2.9v1.1
		c0.4-0.9,1.2-1.3,2.3-1.3c0.6,0,1.1,0.1,1.5,0.3s0.7,0.5,0.9,0.9s0.3,1,0.3,1.8V261.9z"/>
	<path class="st19" d="M289.1,261.9h-2.9v-1.1c-0.4,0.8-1.1,1.2-2.1,1.2c-0.9,0-1.7-0.4-2.2-1.1s-0.9-1.8-0.9-3.1
		c0-1.3,0.3-2.3,0.9-3s1.3-1.1,2.3-1.1c0.8,0,1.4,0.3,1.9,0.9v-3.4h3.1V261.9z M286,256.8c0-0.7-0.3-1.1-0.9-1.1
		c-0.4,0-0.7,0.2-0.8,0.7s-0.2,1-0.2,1.7c0,1.3,0.3,1.9,1,1.9c0.3,0,0.5-0.1,0.6-0.3s0.3-0.5,0.3-0.9V256.8z"/>
	<path class="st19" d="M298.6,262c-1.3,0-2.4-0.4-3.1-1.2s-1.2-1.8-1.2-2.9c0-1.2,0.4-2.2,1.2-3s1.9-1.2,3.2-1.2
		c1.3,0,2.4,0.4,3.2,1.2s1.2,1.8,1.2,2.9c0,1.2-0.4,2.2-1.2,3S299.9,262,298.6,262z M298.7,260.1c0.5,0,0.8-0.3,0.9-0.8
		s0.2-1,0.2-1.6c0-0.7-0.1-1.3-0.2-1.6s-0.4-0.5-0.8-0.5c-0.4,0-0.6,0.2-0.8,0.5s-0.3,0.9-0.3,1.7c0,0.9,0.1,1.5,0.3,1.8
		S298.3,260.1,298.7,260.1z"/>
	<path class="st19" d="M312,253.9v7.9h-2.9v-1.3c-0.4,1-1.2,1.5-2.5,1.5c-0.8,0-1.3-0.2-1.8-0.6s-0.6-1-0.6-1.8v-5.7h3.1v5
		c0,0.3,0,0.5,0.1,0.7s0.3,0.2,0.5,0.2c0.3,0,0.5-0.1,0.6-0.3s0.3-0.5,0.3-0.8v-4.8H312z"/>
	<path class="st19" d="M318.5,253.9v2h-1.6v2.9c0,0.4,0.1,0.6,0.2,0.7s0.3,0.1,0.5,0.1c0.3,0,0.5,0,0.9-0.1v2.2
		c-0.6,0.1-1.2,0.2-1.8,0.2c-1,0-1.7-0.2-2.1-0.6s-0.7-1.1-0.7-2l0-0.9v-2.5h-1.2v-2h1.2l0-2.6l3,0v2.6H318.5z"/>
</g>
<g>
	<path class="st19" d="M36.6,296.9c-0.4,1.2-1.3,2.3-3.4,2.3c-2.4,0-3.7-1.7-3.7-3.7c0-2,1.4-3.7,3.7-3.7c2.1,0,3.1,1.1,3.3,2.3
		h-1.2c-0.3-0.7-0.8-1.3-2.1-1.3c-1.6,0-2.5,1.2-2.5,2.7c0,1.5,0.9,2.8,2.5,2.8c1.3,0,1.8-0.5,2.1-1.3H36.6z"/>
	<path class="st19" d="M38.9,291.5v3.3c0.2-0.4,0.6-1,1.8-1c1.2,0,1.9,0.7,1.9,2.2v3.1h-1.1v-2.9c0-0.8-0.3-1.4-1.2-1.4
		c-1,0-1.5,0.8-1.5,1.8v2.5h-1.1v-7.5H38.9z"/>
	<path class="st19" d="M45,296.7c0.1,0.9,0.7,1.5,1.6,1.5c0.7,0,1.2-0.3,1.4-0.7h1.1c-0.3,0.8-1,1.6-2.6,1.6c-1.9,0-2.7-1.3-2.7-2.7
		c0-1.5,1-2.7,2.7-2.7c1.9,0,2.6,1.4,2.6,2.7c0,0.1,0,0.2,0,0.3H45z M48,295.9c0-0.6-0.3-1.4-1.5-1.4c-1,0-1.5,0.6-1.5,1.4H48z"/>
	<path class="st19" d="M55.3,297.4c-0.2,0.9-1,1.8-2.5,1.8c-1.8,0-2.7-1.2-2.7-2.7c0-1.4,1-2.7,2.7-2.7c1.8,0,2.4,1.1,2.5,1.8h-1.1
		c-0.2-0.4-0.5-0.9-1.4-0.9c-1,0-1.6,0.8-1.6,1.8c0,1,0.5,1.8,1.6,1.8c0.8,0,1.2-0.3,1.4-0.9H55.3z"/>
	<path class="st19" d="M57.6,296.3c0.5-0.5,1.9-1.7,2.7-2.4h1.4l-2.3,2l2.5,3.1h-1.4l-2-2.5l-0.9,0.7v1.7h-1.1v-7.5h1.1V296.3z"/>
	<path class="st19" d="M71.1,295.8h-4.2v2.3h4.6l-0.1,1h-5.6v-7.1h5.6v1h-4.4v1.9h4.2V295.8z"/>
	<path class="st19" d="M77.4,297.7c0,0.5,0,1.2,0,1.3h-1.1c0-0.2-0.1-0.5-0.1-0.7c-0.3,0.5-0.8,0.8-1.9,0.8c-1.4,0-2-0.9-2-1.6
		c0-1.3,1.2-1.7,2.6-1.7c0.6,0,1,0,1.2,0v-0.2c0-0.5-0.2-1-1.2-1c-0.9,0-1.1,0.4-1.2,0.8h-1.1c0.1-0.7,0.5-1.6,2.3-1.6
		c1.9,0,2.3,0.9,2.3,1.8V297.7z M76.3,296.6c-0.1,0-0.5,0-1.2,0c-1.1,0-1.6,0.2-1.6,0.9c0,0.5,0.3,0.9,1.1,0.9
		c1.2,0,1.6-0.7,1.6-1.5V296.6z"/>
	<path class="st19" d="M83.9,297.4c-0.2,0.9-1,1.8-2.5,1.8c-1.8,0-2.7-1.2-2.7-2.7c0-1.4,1-2.7,2.7-2.7c1.8,0,2.4,1.1,2.5,1.8h-1.1
		c-0.2-0.4-0.5-0.9-1.4-0.9c-1,0-1.6,0.8-1.6,1.8c0,1,0.5,1.8,1.6,1.8c0.8,0,1.2-0.3,1.4-0.9H83.9z"/>
	<path class="st19" d="M86.2,291.5v3.3c0.2-0.4,0.6-1,1.8-1c1.2,0,1.9,0.7,1.9,2.2v3.1h-1.1v-2.9c0-0.8-0.3-1.4-1.2-1.4
		c-1,0-1.5,0.8-1.5,1.8v2.5h-1.1v-7.5H86.2z"/>
	<path class="st19" d="M98.9,297.7c0,0.5,0,1.2,0,1.3h-1.1c0-0.2-0.1-0.5-0.1-0.7c-0.3,0.5-0.8,0.8-1.9,0.8c-1.4,0-2-0.9-2-1.6
		c0-1.3,1.2-1.7,2.6-1.7c0.6,0,1,0,1.2,0v-0.2c0-0.5-0.2-1-1.2-1c-0.9,0-1.1,0.4-1.2,0.8h-1.1c0.1-0.7,0.5-1.6,2.3-1.6
		c1.9,0,2.3,0.9,2.3,1.8V297.7z M97.8,296.6c-0.1,0-0.5,0-1.2,0c-1.1,0-1.6,0.2-1.6,0.9c0,0.5,0.3,0.9,1.1,0.9
		c1.2,0,1.6-0.7,1.6-1.5V296.6z"/>
	<path class="st19" d="M100.5,295.2c0-0.4,0-0.9,0-1.3h1.1c0,0.2,0,0.6,0,0.9c0.2-0.5,0.7-1,1.8-1c1.2,0,2,0.7,2,2.1v3.1h-1.1v-2.9
		c0-0.8-0.3-1.4-1.2-1.4c-1,0-1.5,0.7-1.5,1.9v2.5h-1.1V295.2z"/>
	<path class="st19" d="M112,291.5v6c0,0.5,0,1,0,1.5h-1.1c0-0.2,0-0.5,0-0.7c-0.3,0.4-0.7,0.9-1.8,0.9c-1.5,0-2.5-1.1-2.5-2.6
		c0-1.7,1.3-2.7,2.6-2.7c1.1,0,1.6,0.5,1.7,0.7v-3H112z M107.8,296.5c0,0.9,0.5,1.8,1.6,1.8c1.1,0,1.6-0.7,1.6-1.8
		c0-1.1-0.4-1.8-1.6-1.8C108.3,294.7,107.8,295.5,107.8,296.5z"/>
	<path class="st19" d="M117.2,296.7c0.1,0.9,0.7,1.5,1.6,1.5c0.7,0,1.2-0.3,1.4-0.7h1.1c-0.3,0.8-1,1.6-2.6,1.6
		c-1.9,0-2.7-1.3-2.7-2.7c0-1.5,1-2.7,2.7-2.7c1.9,0,2.6,1.4,2.6,2.7c0,0.1,0,0.2,0,0.3H117.2z M120.3,295.9c0-0.6-0.3-1.4-1.5-1.4
		c-1,0-1.5,0.6-1.5,1.4H120.3z"/>
	<path class="st19" d="M123.1,293.9c0.5,1.4,1.5,3.5,1.6,4.1h0c0.2-0.5,0.5-1.4,1.6-4.1h1.1l-2.2,5.1h-1.2l-2.2-5.1H123.1z"/>
	<path class="st19" d="M129.1,296.7c0.1,0.9,0.7,1.5,1.6,1.5c0.7,0,1.2-0.3,1.4-0.7h1.1c-0.3,0.8-1,1.6-2.6,1.6
		c-1.9,0-2.7-1.3-2.7-2.7c0-1.5,1-2.7,2.7-2.7c1.9,0,2.6,1.4,2.6,2.7c0,0.1,0,0.2,0,0.3H129.1z M132.1,295.9c0-0.6-0.3-1.4-1.5-1.4
		c-1,0-1.5,0.6-1.5,1.4H132.1z"/>
	<path class="st19" d="M134.5,295.3c0-0.5,0-0.9,0-1.4h1.1c0,0.2,0,0.7,0,1.1c0.3-0.8,1-1.3,2-1.2v1c-1.2,0-2,0.6-2,2.1v2.1h-1.1
		V295.3z"/>
	<path class="st19" d="M139.6,293.9c1,2.4,1.6,3.8,1.7,4.2h0c0.2-0.5,0.7-1.9,1.6-4.2h1.1l-1.9,4.7c-0.9,2.2-1.2,2.7-2.6,2.7
		c-0.2,0-0.5,0-0.7-0.1v-1c0.2,0,0.4,0,0.5,0c0.7,0,0.9-0.3,1.3-1.2l-2.3-5.3H139.6z"/>
	<path class="st19" d="M152.9,291.5v6c0,0.5,0,1,0,1.5h-1.1c0-0.2,0-0.5,0-0.7c-0.3,0.4-0.7,0.9-1.8,0.9c-1.5,0-2.5-1.1-2.5-2.6
		c0-1.7,1.3-2.7,2.6-2.7c1.1,0,1.6,0.5,1.7,0.7v-3H152.9z M148.6,296.5c0,0.9,0.5,1.8,1.6,1.8c1.1,0,1.6-0.7,1.6-1.8
		c0-1.1-0.4-1.8-1.6-1.8C149.2,294.7,148.6,295.5,148.6,296.5z"/>
	<path class="st19" d="M155.2,296.7c0.1,0.9,0.7,1.5,1.6,1.5c0.7,0,1.2-0.3,1.4-0.7h1.1c-0.3,0.8-1,1.6-2.6,1.6
		c-1.9,0-2.7-1.3-2.7-2.7c0-1.5,1-2.7,2.7-2.7c1.9,0,2.6,1.4,2.6,2.7c0,0.1,0,0.2,0,0.3H155.2z M158.3,295.9c0-0.6-0.3-1.4-1.5-1.4
		c-1,0-1.5,0.6-1.5,1.4H158.3z"/>
	<path class="st19" d="M160,293.9h1v-1.6h1.1v1.6h1.3v0.9h-1.3v2.6c0,0.5,0.1,0.8,0.7,0.8c0.1,0,0.3,0,0.5,0v0.8
		c-0.2,0.1-0.5,0.1-0.8,0.1c-1.1,0-1.4-0.5-1.4-1.5v-2.8h-1V293.9z"/>
	<path class="st19" d="M169,297.7c0,0.5,0,1.2,0,1.3H168c0-0.2-0.1-0.5-0.1-0.7c-0.3,0.5-0.8,0.8-1.9,0.8c-1.4,0-2-0.9-2-1.6
		c0-1.3,1.2-1.7,2.6-1.7c0.6,0,1,0,1.2,0v-0.2c0-0.5-0.2-1-1.2-1c-0.9,0-1.1,0.4-1.2,0.8h-1.1c0.1-0.7,0.5-1.6,2.3-1.6
		c1.9,0,2.3,0.9,2.3,1.8V297.7z M167.9,296.6c-0.1,0-0.5,0-1.2,0c-1.1,0-1.6,0.2-1.6,0.9c0,0.5,0.3,0.9,1.1,0.9
		c1.2,0,1.6-0.7,1.6-1.5V296.6z"/>
	<path class="st19" d="M170.5,291.5h1.1v1.2h-1.1V291.5z M170.5,293.9h1.1v5.1h-1.1V293.9z"/>
	<path class="st19" d="M173.3,299v-7.5h1.1v7.5H173.3z"/>
	<path class="st19" d="M178.9,299v-7.5h1.1v7.5H178.9z"/>
	<path class="st19" d="M181.5,291.5h1.1v1.2h-1.1V291.5z M181.5,293.9h1.1v5.1h-1.1V293.9z"/>
	<path class="st19" d="M185.4,296.3c0.5-0.5,1.9-1.7,2.7-2.4h1.4l-2.3,2l2.5,3.1h-1.4l-2-2.5l-0.9,0.7v1.7h-1.1v-7.5h1.1V296.3z"/>
	<path class="st19" d="M191,296.7c0.1,0.9,0.7,1.5,1.6,1.5c0.7,0,1.2-0.3,1.4-0.7h1.1c-0.3,0.8-1,1.6-2.6,1.6
		c-1.9,0-2.7-1.3-2.7-2.7c0-1.5,1-2.7,2.7-2.7c1.9,0,2.6,1.4,2.6,2.7c0,0.1,0,0.2,0,0.3H191z M194,295.9c0-0.6-0.3-1.4-1.5-1.4
		c-1,0-1.5,0.6-1.5,1.4H194z"/>
	<path class="st19" d="M200,296.9c0.2,0.8,0.8,1.3,2.2,1.3c1.3,0,1.8-0.5,1.8-1.1c0-0.6-0.4-1-2.1-1.3c-2.2-0.4-2.7-1.1-2.7-2
		c0-1.3,1.2-2,2.8-2c2.3,0,2.9,1.2,3,2h-1.2c-0.1-0.5-0.4-1-1.8-1c-1,0-1.6,0.3-1.6,1c0,0.5,0.3,0.9,1.8,1.1c2.6,0.4,3,1.2,3,2.2
		c0,1.2-0.9,2.1-3.1,2.1c-2,0-3-0.9-3.3-2.2H200z"/>
	<path class="st19" d="M206.6,291.5h1.1v1.2h-1.1V291.5z M206.6,293.9h1.1v5.1h-1.1V293.9z"/>
	<path class="st19" d="M214.3,291.5v6c0,0.5,0,1,0,1.5h-1.1c0-0.2,0-0.5,0-0.7c-0.3,0.4-0.7,0.9-1.8,0.9c-1.5,0-2.5-1.1-2.5-2.6
		c0-1.7,1.3-2.7,2.6-2.7c1.1,0,1.6,0.5,1.7,0.7v-3H214.3z M210.1,296.5c0,0.9,0.5,1.8,1.6,1.8c1.1,0,1.6-0.7,1.6-1.8
		c0-1.1-0.4-1.8-1.6-1.8C210.6,294.7,210.1,295.5,210.1,296.5z"/>
	<path class="st19" d="M216.6,296.7c0.1,0.9,0.7,1.5,1.6,1.5c0.7,0,1.2-0.3,1.4-0.7h1.1c-0.3,0.8-1,1.6-2.6,1.6
		c-1.9,0-2.7-1.3-2.7-2.7c0-1.5,1-2.7,2.7-2.7c1.9,0,2.7,1.4,2.7,2.7c0,0.1,0,0.2,0,0.3H216.6z M219.7,295.9c0-0.6-0.3-1.4-1.5-1.4
		c-1,0-1.5,0.6-1.5,1.4H219.7z"/>
	<path class="st19" d="M225.7,296.7c0.1,0.9,0.7,1.5,1.6,1.5c0.7,0,1.2-0.3,1.4-0.7h1.1c-0.3,0.8-1,1.6-2.6,1.6
		c-1.9,0-2.7-1.3-2.7-2.7c0-1.5,1-2.7,2.7-2.7c1.9,0,2.6,1.4,2.6,2.7c0,0.1,0,0.2,0,0.3H225.7z M228.8,295.9c0-0.6-0.3-1.4-1.5-1.4
		c-1,0-1.5,0.6-1.5,1.4H228.8z"/>
	<path class="st19" d="M232.6,294.8v4.2h-1.1v-4.2h-0.9v-0.9h0.9v-0.6c0-1.1,0.5-1.9,1.7-1.9c0.2,0,0.4,0,0.6,0.1v0.9
		c-0.1,0-0.3,0-0.4,0c-0.6,0-0.8,0.3-0.8,1.1v0.6h2v-0.6c0-1.1,0.5-1.9,1.7-1.9c0.3,0,0.4,0,0.6,0.1v0.9c-0.1,0-0.3,0-0.4,0
		c-0.6,0-0.8,0.3-0.8,1.1v0.6h1.2v0.9h-1.2v4.2h-1.1v-4.2H232.6z"/>
	<path class="st19" d="M238.5,296.7c0.1,0.9,0.7,1.5,1.6,1.5c0.7,0,1.2-0.3,1.4-0.7h1.1c-0.3,0.8-1,1.6-2.6,1.6
		c-1.9,0-2.7-1.3-2.7-2.7c0-1.5,1-2.7,2.7-2.7c1.9,0,2.7,1.4,2.7,2.7c0,0.1,0,0.2,0,0.3H238.5z M241.6,295.9c0-0.6-0.3-1.4-1.5-1.4
		c-1,0-1.5,0.6-1.5,1.4H241.6z"/>
	<path class="st19" d="M248.9,297.4c-0.2,0.9-1,1.8-2.5,1.8c-1.8,0-2.7-1.2-2.7-2.7c0-1.4,1-2.7,2.7-2.7c1.8,0,2.4,1.1,2.5,1.8h-1.1
		c-0.2-0.4-0.5-0.9-1.4-0.9c-1,0-1.6,0.8-1.6,1.8c0,1,0.5,1.8,1.6,1.8c0.8,0,1.2-0.3,1.4-0.9H248.9z"/>
	<path class="st19" d="M249.5,293.9h1v-1.6h1.1v1.6h1.3v0.9h-1.3v2.6c0,0.5,0.1,0.8,0.7,0.8c0.1,0,0.3,0,0.5,0v0.8
		c-0.2,0.1-0.5,0.1-0.8,0.1c-1.1,0-1.4-0.5-1.4-1.5v-2.8h-1V293.9z"/>
	<path class="st19" d="M254.7,297.4c0.2,0.5,0.6,0.9,1.5,0.9c0.9,0,1.2-0.3,1.2-0.7c0-0.4-0.2-0.6-1.5-0.8c-1.8-0.2-2.1-0.9-2.1-1.5
		c0-0.7,0.5-1.5,2.2-1.5c1.8,0,2.3,0.9,2.4,1.5h-1.1c-0.1-0.3-0.3-0.7-1.3-0.7c-0.9,0-1,0.4-1,0.6c0,0.3,0.2,0.5,1.3,0.7
		c1.9,0.3,2.3,0.9,2.3,1.6c0,0.9-0.7,1.6-2.4,1.6c-1.5,0-2.4-0.6-2.5-1.7H254.7z"/>
	<path class="st19" d="M259.2,300.3c0.5-1.2,0.7-2.2,0.8-3.1h1.1c-0.1,1-0.5,2.3-1,3.1H259.2z"/>
	<path class="st19" d="M270.3,297.4c-0.2,0.9-1,1.8-2.5,1.8c-1.8,0-2.7-1.2-2.7-2.7c0-1.4,1-2.7,2.7-2.7c1.8,0,2.4,1.1,2.5,1.8h-1.1
		c-0.2-0.4-0.5-0.9-1.4-0.9c-1,0-1.6,0.8-1.6,1.8c0,1,0.5,1.8,1.6,1.8c0.8,0,1.2-0.3,1.4-0.9H270.3z"/>
	<path class="st19" d="M276.6,296.4c0,1.4-1,2.7-2.8,2.7c-1.8,0-2.7-1.3-2.7-2.7c0-1.4,1-2.7,2.8-2.7
		C275.7,293.8,276.6,295.1,276.6,296.4z M272.2,296.4c0,0.9,0.6,1.8,1.6,1.8c1.1,0,1.6-0.8,1.6-1.8s-0.6-1.8-1.6-1.8
		C272.7,294.6,272.2,295.5,272.2,296.4z"/>
	<path class="st19" d="M277.8,295.2c0-0.4,0-0.9,0-1.3h1.1c0,0.2,0,0.6,0,0.9c0.2-0.5,0.7-1,1.8-1c1.2,0,2,0.7,2,2.1v3.1h-1.1v-2.9
		c0-0.8-0.3-1.4-1.2-1.4c-1,0-1.5,0.7-1.5,1.9v2.5h-1.1V295.2z"/>
	<path class="st19" d="M284.8,297.4c0.2,0.5,0.6,0.9,1.5,0.9c0.9,0,1.2-0.3,1.2-0.7c0-0.4-0.2-0.6-1.5-0.8c-1.8-0.2-2.1-0.9-2.1-1.5
		c0-0.7,0.5-1.5,2.2-1.5c1.8,0,2.3,0.9,2.4,1.5h-1.1c-0.1-0.3-0.3-0.7-1.3-0.7c-0.9,0-1,0.4-1,0.6c0,0.3,0.2,0.5,1.3,0.7
		c1.9,0.3,2.3,0.9,2.3,1.6c0,0.9-0.7,1.6-2.4,1.6c-1.5,0-2.4-0.6-2.5-1.7H284.8z"/>
	<path class="st19" d="M289.2,293.9h1v-1.6h1.1v1.6h1.3v0.9h-1.3v2.6c0,0.5,0.1,0.8,0.7,0.8c0.1,0,0.3,0,0.5,0v0.8
		c-0.2,0.1-0.5,0.1-0.8,0.1c-1.1,0-1.4-0.5-1.4-1.5v-2.8h-1V293.9z"/>
	<path class="st19" d="M293.6,291.5h1.1v1.2h-1.1V291.5z M293.6,293.9h1.1v5.1h-1.1V293.9z"/>
	<path class="st19" d="M295.8,293.9h1v-1.6h1.1v1.6h1.3v0.9h-1.3v2.6c0,0.5,0.1,0.8,0.7,0.8c0.1,0,0.3,0,0.5,0v0.8
		c-0.2,0.1-0.5,0.1-0.8,0.1c-1.1,0-1.4-0.5-1.4-1.5v-2.8h-1V293.9z"/>
	<path class="st19" d="M305,297.5c0,0.5,0,1,0,1.5h-1.1c0-0.1,0-0.5,0-0.8c-0.3,0.5-0.7,0.9-1.8,0.9c-1.1,0-1.9-0.6-1.9-2.1v-3.1
		h1.1v2.9c0,0.7,0.3,1.4,1.1,1.4c1,0,1.4-0.6,1.4-2v-2.3h1.1V297.5z"/>
	<path class="st19" d="M307.3,296.7c0.1,0.9,0.7,1.5,1.6,1.5c0.7,0,1.2-0.3,1.4-0.7h1.1c-0.3,0.8-1,1.6-2.6,1.6
		c-1.9,0-2.7-1.3-2.7-2.7c0-1.5,1-2.7,2.7-2.7c1.9,0,2.7,1.4,2.7,2.7c0,0.1,0,0.2,0,0.3H307.3z M310.4,295.9c0-0.6-0.3-1.4-1.5-1.4
		c-1,0-1.5,0.6-1.5,1.4H310.4z"/>
	<path class="st19" d="M312.7,295.2c0-0.4,0-0.9,0-1.3h1.1c0,0.2,0,0.6,0,0.9c0.2-0.5,0.7-1,1.8-1c1.2,0,2,0.7,2,2.1v3.1h-1.1v-2.9
		c0-0.8-0.3-1.4-1.2-1.4c-1,0-1.5,0.7-1.5,1.9v2.5h-1.1V295.2z"/>
	<path class="st19" d="M318.4,293.9h1v-1.6h1.1v1.6h1.3v0.9h-1.3v2.6c0,0.5,0.1,0.8,0.7,0.8c0.1,0,0.3,0,0.5,0v0.8
		c-0.2,0.1-0.5,0.1-0.8,0.1c-1.1,0-1.4-0.5-1.4-1.5v-2.8h-1V293.9z"/>
	<path class="st19" d="M323.7,297.4c0.2,0.5,0.6,0.9,1.5,0.9c0.9,0,1.2-0.3,1.2-0.7c0-0.4-0.2-0.6-1.5-0.8c-1.8-0.2-2.1-0.9-2.1-1.5
		c0-0.7,0.5-1.5,2.2-1.5c1.8,0,2.3,0.9,2.4,1.5h-1.1c-0.1-0.3-0.3-0.7-1.3-0.7c-0.9,0-1,0.4-1,0.6c0,0.3,0.2,0.5,1.3,0.7
		c1.9,0.3,2.3,0.9,2.3,1.6c0,0.9-0.7,1.6-2.4,1.6c-1.5,0-2.4-0.6-2.5-1.7H323.7z"/>
	<path class="st19" d="M328.2,300.3c0.5-1.2,0.7-2.2,0.8-3.1h1.1c-0.1,1-0.5,2.3-1,3.1H328.2z"/>
	<path class="st19" d="M339.1,297.5c0,0.5,0,1,0,1.5H338c0-0.1,0-0.5,0-0.8c-0.3,0.5-0.7,0.9-1.8,0.9c-1.1,0-1.9-0.6-1.9-2.1v-3.1
		h1.1v2.9c0,0.7,0.3,1.4,1.1,1.4c1,0,1.4-0.6,1.4-2v-2.3h1.1V297.5z"/>
	<path class="st19" d="M341.3,297.4c0.2,0.5,0.6,0.9,1.5,0.9c0.9,0,1.2-0.3,1.2-0.7c0-0.4-0.2-0.6-1.5-0.8c-1.8-0.2-2.1-0.9-2.1-1.5
		c0-0.7,0.5-1.5,2.2-1.5c1.8,0,2.3,0.9,2.4,1.5h-1.1c-0.1-0.3-0.3-0.7-1.3-0.7c-0.9,0-1,0.4-1,0.6c0,0.3,0.2,0.5,1.3,0.7
		c1.9,0.3,2.3,0.9,2.3,1.6c0,0.9-0.7,1.6-2.4,1.6c-1.5,0-2.4-0.6-2.5-1.7H341.3z"/>
	<path class="st19" d="M350.9,297.7c0,0.5,0,1.2,0,1.3h-1.1c0-0.2-0.1-0.5-0.1-0.7c-0.3,0.5-0.8,0.8-1.9,0.8c-1.4,0-2-0.9-2-1.6
		c0-1.3,1.2-1.7,2.6-1.7c0.6,0,1,0,1.2,0v-0.2c0-0.5-0.2-1-1.2-1c-0.9,0-1.1,0.4-1.2,0.8h-1.1c0.1-0.7,0.5-1.6,2.3-1.6
		c1.9,0,2.3,0.9,2.3,1.8V297.7z M349.9,296.6c-0.1,0-0.5,0-1.2,0c-1.1,0-1.6,0.2-1.6,0.9c0,0.5,0.3,0.9,1.1,0.9
		c1.2,0,1.6-0.7,1.6-1.5V296.6z"/>
	<path class="st19" d="M357.6,298.3c0,1.9-0.7,3-2.8,3c-2.1,0-2.5-1.2-2.6-1.8h1.1c0.1,0.5,0.5,0.9,1.5,0.9c1.4,0,1.6-0.9,1.6-2.1
		v-0.3c-0.3,0.5-0.8,0.9-1.9,0.9c-1.4,0-2.4-1.1-2.4-2.6c0-1.6,1.2-2.7,2.6-2.7c1.1,0,1.6,0.5,1.7,0.9c0-0.2,0-0.6,0-0.7h1.1
		c0,0.5,0,1,0,1.5V298.3z M353.3,296.5c0,1,0.6,1.7,1.6,1.7c1,0,1.6-0.6,1.6-1.8c0-1.1-0.6-1.7-1.5-1.7
		C353.8,294.7,353.3,295.5,353.3,296.5z"/>
	<path class="st19" d="M359.9,296.7c0.1,0.9,0.7,1.5,1.6,1.5c0.7,0,1.2-0.3,1.4-0.7h1.1c-0.3,0.8-1,1.6-2.6,1.6
		c-1.9,0-2.7-1.3-2.7-2.7c0-1.5,1-2.7,2.7-2.7c1.9,0,2.7,1.4,2.7,2.7c0,0.1,0,0.2,0,0.3H359.9z M362.9,295.9c0-0.6-0.3-1.4-1.5-1.4
		c-1,0-1.5,0.6-1.5,1.4H362.9z"/>
	<path class="st19" d="M364.6,300.3c0.5-1.2,0.7-2.2,0.8-3.1h1.1c-0.1,1-0.5,2.3-1,3.1H364.6z"/>
	<path class="st19" d="M93.1,308.4c0,1.4-1,2.7-2.8,2.7c-1.8,0-2.7-1.3-2.7-2.7c0-1.4,1-2.7,2.8-2.7
		C92.1,305.8,93.1,307.1,93.1,308.4z M88.7,308.4c0,0.9,0.6,1.8,1.6,1.8c1.1,0,1.6-0.8,1.6-1.8s-0.6-1.8-1.6-1.8
		C89.2,306.6,88.7,307.5,88.7,308.4z"/>
	<path class="st19" d="M93.6,305.9h1v-1.6h1.1v1.6H97v0.9h-1.3v2.6c0,0.5,0.1,0.8,0.7,0.8c0.1,0,0.3,0,0.5,0v0.8
		c-0.2,0.1-0.5,0.1-0.8,0.1c-1.1,0-1.4-0.5-1.4-1.5v-2.8h-1V305.9z"/>
	<path class="st19" d="M99.1,303.5v3.3c0.2-0.4,0.6-1,1.8-1c1.2,0,1.9,0.7,1.9,2.2v3.1h-1.1v-2.9c0-0.8-0.3-1.4-1.2-1.4
		c-1,0-1.5,0.8-1.5,1.8v2.5H98v-7.5H99.1z"/>
	<path class="st19" d="M105.2,308.7c0.1,0.9,0.7,1.5,1.6,1.5c0.7,0,1.2-0.3,1.4-0.7h1.1c-0.3,0.8-1,1.6-2.6,1.6
		c-1.9,0-2.7-1.3-2.7-2.7c0-1.5,1-2.7,2.7-2.7c1.9,0,2.6,1.4,2.6,2.7c0,0.1,0,0.2,0,0.3H105.2z M108.3,307.9c0-0.6-0.3-1.4-1.5-1.4
		c-1,0-1.5,0.6-1.5,1.4H108.3z"/>
	<path class="st19" d="M110.6,307.3c0-0.5,0-0.9,0-1.4h1.1c0,0.2,0,0.7,0,1.1c0.3-0.8,1-1.3,2-1.2v1c-1.2,0-2,0.6-2,2.1v2.1h-1.1
		V307.3z"/>
	<path class="st19" d="M118.4,308.9c0.2,0.8,0.8,1.3,2.2,1.3c1.3,0,1.8-0.5,1.8-1.1c0-0.6-0.4-1-2.1-1.3c-2.2-0.4-2.7-1.1-2.7-2
		c0-1.3,1.2-2,2.8-2c2.3,0,2.9,1.2,3,2h-1.2c-0.1-0.5-0.4-1-1.8-1c-1,0-1.6,0.3-1.6,1c0,0.5,0.3,0.9,1.8,1.1c2.6,0.4,3,1.2,3,2.2
		c0,1.2-0.9,2.1-3.1,2.1c-2,0-3-0.9-3.3-2.2H118.4z"/>
	<path class="st19" d="M129.7,309.5c0,0.5,0,1,0,1.5h-1.1c0-0.1,0-0.5,0-0.8c-0.3,0.5-0.7,0.9-1.8,0.9c-1.1,0-1.9-0.6-1.9-2.1v-3.1
		h1.1v2.9c0,0.7,0.3,1.4,1.1,1.4c1,0,1.4-0.6,1.4-2v-2.3h1.1V309.5z"/>
	<path class="st19" d="M131.3,303.5h1.1v3.1c0.3-0.4,0.8-0.9,1.8-0.9c1.4,0,2.5,1.1,2.5,2.6c0,1.7-1.1,2.8-2.5,2.8
		c-1.1,0-1.5-0.4-1.8-0.9c0,0.2,0,0.6,0,0.7h-1.1c0-0.7,0-1.2,0-1.7V303.5z M135.5,308.4c0-0.8-0.5-1.7-1.6-1.7
		c-1.1,0-1.6,0.8-1.6,1.8c0,1.1,0.6,1.8,1.6,1.8C135.1,310.2,135.5,309.3,135.5,308.4z"/>
	<path class="st19" d="M138.6,309.4c0.2,0.5,0.6,0.9,1.5,0.9c0.9,0,1.2-0.3,1.2-0.7c0-0.4-0.2-0.6-1.5-0.8c-1.8-0.2-2.1-0.9-2.1-1.5
		c0-0.7,0.5-1.5,2.2-1.5c1.8,0,2.3,0.9,2.4,1.5h-1.1c-0.1-0.3-0.3-0.7-1.3-0.7c-0.9,0-1,0.4-1,0.6c0,0.3,0.2,0.5,1.3,0.7
		c1.9,0.3,2.3,0.9,2.3,1.6c0,0.9-0.7,1.6-2.4,1.6c-1.5,0-2.4-0.6-2.5-1.7H138.6z"/>
	<path class="st19" d="M142.9,305.9h1v-1.6h1.1v1.6h1.3v0.9H145v2.6c0,0.5,0.1,0.8,0.7,0.8c0.1,0,0.3,0,0.5,0v0.8
		c-0.2,0.1-0.5,0.1-0.8,0.1c-1.1,0-1.4-0.5-1.4-1.5v-2.8h-1V305.9z"/>
	<path class="st19" d="M147.4,303.5h1.1v1.2h-1.1V303.5z M147.4,305.9h1.1v5.1h-1.1V305.9z"/>
	<path class="st19" d="M149.5,305.9h1v-1.6h1.1v1.6h1.3v0.9h-1.3v2.6c0,0.5,0.1,0.8,0.7,0.8c0.1,0,0.3,0,0.5,0v0.8
		c-0.2,0.1-0.5,0.1-0.8,0.1c-1.1,0-1.4-0.5-1.4-1.5v-2.8h-1V305.9z"/>
	<path class="st19" d="M158.7,309.5c0,0.5,0,1,0,1.5h-1.1c0-0.1,0-0.5,0-0.8c-0.3,0.5-0.7,0.9-1.8,0.9c-1.1,0-1.9-0.6-1.9-2.1v-3.1
		h1.1v2.9c0,0.7,0.3,1.4,1.1,1.4c1,0,1.4-0.6,1.4-2v-2.3h1.1V309.5z"/>
	<path class="st19" d="M159.8,305.9h1v-1.6h1.1v1.6h1.3v0.9h-1.3v2.6c0,0.5,0.1,0.8,0.7,0.8c0.1,0,0.3,0,0.5,0v0.8
		c-0.2,0.1-0.5,0.1-0.8,0.1c-1.1,0-1.4-0.5-1.4-1.5v-2.8h-1V305.9z"/>
	<path class="st19" d="M165,308.7c0.1,0.9,0.7,1.5,1.6,1.5c0.7,0,1.2-0.3,1.4-0.7h1.1c-0.3,0.8-1,1.6-2.6,1.6
		c-1.9,0-2.7-1.3-2.7-2.7c0-1.5,1-2.7,2.7-2.7c1.9,0,2.6,1.4,2.6,2.7c0,0.1,0,0.2,0,0.3H165z M168,307.9c0-0.6-0.3-1.4-1.5-1.4
		c-1,0-1.5,0.6-1.5,1.4H168z"/>
	<path class="st19" d="M171.1,309.4c0.2,0.5,0.6,0.9,1.5,0.9c0.9,0,1.2-0.3,1.2-0.7c0-0.4-0.2-0.6-1.5-0.8c-1.8-0.2-2.1-0.9-2.1-1.5
		c0-0.7,0.5-1.5,2.2-1.5c1.8,0,2.3,0.9,2.4,1.5h-1.1c-0.1-0.3-0.3-0.7-1.3-0.7c-0.9,0-1,0.4-1,0.6c0,0.3,0.2,0.5,1.3,0.7
		c1.9,0.3,2.3,0.9,2.3,1.6c0,0.9-0.7,1.6-2.4,1.6c-1.5,0-2.4-0.6-2.5-1.7H171.1z"/>
	<path class="st19" d="M179.8,308.7c0.1,0.9,0.7,1.5,1.6,1.5c0.7,0,1.2-0.3,1.4-0.7h1.1c-0.3,0.8-1,1.6-2.6,1.6
		c-1.9,0-2.7-1.3-2.7-2.7c0-1.5,1-2.7,2.7-2.7c1.9,0,2.6,1.4,2.6,2.7c0,0.1,0,0.2,0,0.3H179.8z M182.8,307.9c0-0.6-0.3-1.4-1.5-1.4
		c-1,0-1.5,0.6-1.5,1.4H182.8z"/>
	<path class="st19" d="M184.5,305.9h1v-1.6h1.1v1.6h1.3v0.9h-1.3v2.6c0,0.5,0.1,0.8,0.7,0.8c0.1,0,0.3,0,0.5,0v0.8
		c-0.2,0.1-0.5,0.1-0.8,0.1c-1.1,0-1.4-0.5-1.4-1.5v-2.8h-1V305.9z"/>
	<path class="st19" d="M193.8,309.4c-0.2,0.9-1,1.8-2.5,1.8c-1.8,0-2.7-1.2-2.7-2.7c0-1.4,1-2.7,2.7-2.7c1.8,0,2.4,1.1,2.5,1.8h-1.1
		c-0.2-0.4-0.5-0.9-1.4-0.9c-1,0-1.6,0.8-1.6,1.8c0,1,0.5,1.8,1.6,1.8c0.8,0,1.2-0.3,1.4-0.9H193.8z"/>
	<path class="st19" d="M195,311v-1.7h1.3v1.7H195z"/>
	<path class="st19" d="M200.5,303.5h1.1v3.1c0.3-0.4,0.8-0.9,1.8-0.9c1.4,0,2.5,1.1,2.5,2.6c0,1.7-1.1,2.8-2.5,2.8
		c-1.1,0-1.5-0.4-1.8-0.9c0,0.2,0,0.6,0,0.7h-1.1c0-0.7,0-1.2,0-1.7V303.5z M204.7,308.4c0-0.8-0.5-1.7-1.6-1.7
		c-1.1,0-1.6,0.8-1.6,1.8c0,1.1,0.6,1.8,1.6,1.8C204.3,310.2,204.7,309.3,204.7,308.4z"/>
	<path class="st19" d="M207.8,308.7c0.1,0.9,0.7,1.5,1.6,1.5c0.7,0,1.2-0.3,1.4-0.7h1.1c-0.3,0.8-1,1.6-2.6,1.6
		c-1.9,0-2.7-1.3-2.7-2.7c0-1.5,1-2.7,2.7-2.7c1.9,0,2.7,1.4,2.7,2.7c0,0.1,0,0.2,0,0.3H207.8z M210.9,307.9c0-0.6-0.3-1.4-1.5-1.4
		c-1,0-1.5,0.6-1.5,1.4H210.9z"/>
	<path class="st19" d="M213.6,311v-4.2h-0.9v-0.9h0.9v-0.6c0-1.2,0.5-1.9,1.8-1.9c0.2,0,0.5,0,0.6,0.1v0.9c-0.1,0-0.3,0-0.4,0
		c-0.6,0-0.8,0.3-0.8,1v0.6h1.2v0.9h-1.2v4.2H213.6z"/>
	<path class="st19" d="M221.9,308.4c0,1.4-1,2.7-2.8,2.7c-1.8,0-2.7-1.3-2.7-2.7c0-1.4,1-2.7,2.8-2.7
		C221,305.8,221.9,307.1,221.9,308.4z M217.5,308.4c0,0.9,0.6,1.8,1.6,1.8c1.1,0,1.6-0.8,1.6-1.8s-0.6-1.8-1.6-1.8
		C218,306.6,217.5,307.5,217.5,308.4z"/>
	<path class="st19" d="M223.1,307.3c0-0.5,0-0.9,0-1.4h1.1c0,0.2,0,0.7,0,1.1c0.3-0.8,1-1.3,2-1.2v1c-1.2,0-2,0.6-2,2.1v2.1h-1.1
		V307.3z"/>
	<path class="st19" d="M228,308.7c0.1,0.9,0.7,1.5,1.6,1.5c0.7,0,1.2-0.3,1.4-0.7h1.1c-0.3,0.8-1,1.6-2.6,1.6
		c-1.9,0-2.7-1.3-2.7-2.7c0-1.5,1-2.7,2.7-2.7c1.9,0,2.6,1.4,2.6,2.7c0,0.1,0,0.2,0,0.3H228z M231,307.9c0-0.6-0.3-1.4-1.5-1.4
		c-1,0-1.5,0.6-1.5,1.4H231z"/>
	<path class="st19" d="M243.5,307.4c0,2-1.3,3.7-3.8,3.7c-2.3,0-3.7-1.6-3.7-3.7c0-2,1.5-3.7,3.8-3.7
		C242.1,303.7,243.5,305.5,243.5,307.4z M237.3,307.4c0,1.5,0.9,2.8,2.5,2.8c1.7,0,2.5-1.3,2.5-2.7c0-1.4-0.9-2.7-2.5-2.7
		C238.2,304.7,237.3,306,237.3,307.4z"/>
	<path class="st19" d="M244.9,307.3c0-0.5,0-0.9,0-1.4h1.1c0,0.2,0,0.7,0,1.1c0.3-0.8,1-1.3,2-1.2v1c-1.2,0-2,0.6-2,2.1v2.1h-1.1
		V307.3z"/>
	<path class="st19" d="M254,303.5v6c0,0.5,0,1,0,1.5H253c0-0.2,0-0.5,0-0.7c-0.3,0.4-0.7,0.9-1.8,0.9c-1.5,0-2.5-1.1-2.5-2.6
		c0-1.7,1.3-2.7,2.6-2.7c1.1,0,1.6,0.5,1.7,0.7v-3H254z M249.8,308.5c0,0.9,0.5,1.8,1.6,1.8c1.1,0,1.6-0.7,1.6-1.8
		c0-1.1-0.4-1.8-1.6-1.8C250.3,306.7,249.8,307.5,249.8,308.5z"/>
	<path class="st19" d="M256.3,308.7c0.1,0.9,0.7,1.5,1.6,1.5c0.7,0,1.2-0.3,1.4-0.7h1.1c-0.3,0.8-1,1.6-2.6,1.6
		c-1.9,0-2.7-1.3-2.7-2.7c0-1.5,1-2.7,2.7-2.7c1.9,0,2.7,1.4,2.7,2.7c0,0.1,0,0.2,0,0.3H256.3z M259.4,307.9c0-0.6-0.3-1.4-1.5-1.4
		c-1,0-1.5,0.6-1.5,1.4H259.4z"/>
	<path class="st19" d="M261.7,307.3c0-0.5,0-0.9,0-1.4h1.1c0,0.2,0,0.7,0,1.1c0.3-0.8,1-1.3,2-1.2v1c-1.2,0-2,0.6-2,2.1v2.1h-1.1
		V307.3z"/>
	<path class="st19" d="M265.8,303.5h1.1v1.2h-1.1V303.5z M265.8,305.9h1.1v5.1h-1.1V305.9z"/>
	<path class="st19" d="M268.5,307.2c0-0.4,0-0.9,0-1.3h1.1c0,0.2,0,0.6,0,0.9c0.2-0.5,0.7-1,1.8-1c1.2,0,2,0.7,2,2.1v3.1h-1.1v-2.9
		c0-0.8-0.3-1.4-1.2-1.4c-1,0-1.5,0.7-1.5,1.9v2.5h-1.1V307.2z"/>
	<path class="st19" d="M280,310.3c0,1.9-0.7,3-2.8,3c-2.1,0-2.5-1.2-2.6-1.8h1.1c0.1,0.5,0.5,0.9,1.5,0.9c1.4,0,1.6-0.9,1.6-2.1
		v-0.3c-0.3,0.5-0.8,0.9-1.9,0.9c-1.4,0-2.4-1.1-2.4-2.6c0-1.6,1.2-2.7,2.6-2.7c1.1,0,1.6,0.5,1.7,0.9c0-0.2,0-0.6,0-0.7h1.1
		c0,0.5,0,1,0,1.5V310.3z M275.7,308.5c0,1,0.6,1.7,1.6,1.7c1,0,1.6-0.6,1.6-1.8c0-1.1-0.6-1.7-1.5-1.7
		C276.3,306.7,275.7,307.5,275.7,308.5z"/>
	<path class="st19" d="M283.9,305.9h1v-1.6h1.1v1.6h1.3v0.9H286v2.6c0,0.5,0.1,0.8,0.7,0.8c0.1,0,0.3,0,0.5,0v0.8
		c-0.2,0.1-0.5,0.1-0.8,0.1c-1.1,0-1.4-0.5-1.4-1.5v-2.8h-1V305.9z"/>
	<path class="st19" d="M289.4,303.5v3.3c0.2-0.4,0.6-1,1.8-1c1.2,0,1.9,0.7,1.9,2.2v3.1h-1.1v-2.9c0-0.8-0.3-1.4-1.2-1.4
		c-1,0-1.5,0.8-1.5,1.8v2.5h-1.1v-7.5H289.4z"/>
	<path class="st19" d="M295.5,308.7c0.1,0.9,0.7,1.5,1.6,1.5c0.7,0,1.2-0.3,1.4-0.7h1.1c-0.3,0.8-1,1.6-2.6,1.6
		c-1.9,0-2.7-1.3-2.7-2.7c0-1.5,1-2.7,2.7-2.7c1.9,0,2.7,1.4,2.7,2.7c0,0.1,0,0.2,0,0.3H295.5z M298.6,307.9c0-0.6-0.3-1.4-1.5-1.4
		c-1,0-1.5,0.6-1.5,1.4H298.6z"/>
	<path class="st19" d="M300.9,307.2c0-0.4,0-0.9,0-1.3h1.1c0,0.2,0,0.5,0,0.7c0.3-0.4,0.7-0.9,1.6-0.9c0.9,0,1.3,0.4,1.6,0.9
		c0.3-0.4,0.7-0.9,1.7-0.9c1,0,1.8,0.6,1.8,2.1v3.1h-1.1v-3.1c0-0.6-0.2-1.2-1-1.2c-0.8,0-1.2,0.5-1.2,1.5v2.8h-1.1v-3.1
		c0-0.6-0.2-1.2-1-1.2c-0.9,0-1.2,0.7-1.2,1.6v2.7h-1.1V307.2z"/>
	<path class="st19" d="M310.1,311v-1.7h1.3v1.7H310.1z"/>
	<path class="st19" d="M178,319.4c0,2-1.3,3.7-3.8,3.7c-2.3,0-3.7-1.6-3.7-3.7c0-2,1.5-3.7,3.8-3.7C176.6,315.7,178,317.5,178,319.4
		z M171.7,319.4c0,1.5,0.9,2.8,2.5,2.8c1.7,0,2.5-1.3,2.5-2.7c0-1.4-0.9-2.7-2.5-2.7C172.6,316.7,171.7,318,171.7,319.4z"/>
	<path class="st19" d="M179.3,319.3c0-0.5,0-0.9,0-1.4h1.1c0,0.2,0,0.7,0,1.1c0.3-0.8,1-1.3,2-1.2v1c-1.2,0-2,0.6-2,2.1v2.1h-1.1
		V319.3z"/>
	<path class="st19" d="M188.5,315.5v6c0,0.5,0,1,0,1.5h-1.1c0-0.2,0-0.5,0-0.7c-0.3,0.4-0.7,0.9-1.8,0.9c-1.5,0-2.5-1.1-2.5-2.6
		c0-1.7,1.3-2.7,2.6-2.7c1.1,0,1.6,0.5,1.7,0.7v-3H188.5z M184.2,320.5c0,0.9,0.5,1.8,1.6,1.8c1.1,0,1.6-0.7,1.6-1.8
		c0-1.1-0.4-1.8-1.6-1.8C184.7,318.7,184.2,319.5,184.2,320.5z"/>
	<path class="st19" d="M190.8,320.7c0.1,0.9,0.7,1.5,1.6,1.5c0.7,0,1.2-0.3,1.4-0.7h1.1c-0.3,0.8-1,1.6-2.6,1.6
		c-1.9,0-2.7-1.3-2.7-2.7c0-1.5,1-2.7,2.7-2.7c1.9,0,2.6,1.4,2.6,2.7c0,0.1,0,0.2,0,0.3H190.8z M193.8,319.9c0-0.6-0.3-1.4-1.5-1.4
		c-1,0-1.5,0.6-1.5,1.4H193.8z"/>
	<path class="st19" d="M196.2,319.3c0-0.5,0-0.9,0-1.4h1.1c0,0.2,0,0.7,0,1.1c0.3-0.8,1-1.3,2-1.2v1c-1.2,0-2,0.6-2,2.1v2.1h-1.1
		V319.3z"/>
	<path class="st19" d="M203.4,323v-7.1h1.4c1.7,2.4,3.6,4.9,4,5.7h0c-0.1-0.9-0.1-2-0.1-3.2v-2.4h1.1v7.1h-1.3
		c-1-1.3-3.6-5.1-4.1-5.9h0c0.1,0.9,0.1,1.9,0.1,3.2v2.7H203.4z"/>
	<path class="st19" d="M216.7,320.4c0,1.4-1,2.7-2.8,2.7c-1.8,0-2.7-1.3-2.7-2.7c0-1.4,1-2.7,2.8-2.7
		C215.8,317.8,216.7,319.1,216.7,320.4z M212.4,320.4c0,0.9,0.6,1.8,1.6,1.8c1.1,0,1.6-0.8,1.6-1.8s-0.6-1.8-1.6-1.8
		C212.9,318.6,212.4,319.5,212.4,320.4z"/>
	<path class="st19" d="M218.5,317.9c0.8,2.9,1,3.6,1.2,4.1h0c0.1-0.5,0.3-1.2,1.3-4.1h1.1c1,2.9,1.2,3.7,1.3,4.1h0
		c0.1-0.5,0.4-1.5,1.2-4.1h1.1l-1.7,5.1h-1.2c-0.6-1.8-1.1-3.2-1.2-3.8h0c-0.1,0.5-0.6,2-1.3,3.8H219l-1.6-5.1H218.5z"/>
	<path class="st19" d="M227.1,320.5L227,317v-1.2h1.2v1.2l-0.1,3.4H227.1z M227.1,323v-1.6h1.1v1.6H227.1z"/>
</g>
<g>
	<g>
		
			<radialGradient id="SVGID_1_" cx="234.6264" cy="196.4507" r="50.7576" gradientTransform="matrix(0.9752 -0.2212 0.2212 0.9752 -59.6124 1.166)" gradientUnits="userSpaceOnUse">
			<stop  offset="0" style="stop-color:#B3819D"/>
			<stop  offset="1" style="stop-color:#785CA6"/>
		</radialGradient>
		<path class="st20" d="M183.2,200.5l-24.5-101c-0.6-2.6,1-5.3,3.6-5.9l75.3-17.1c2.7-0.6,5.3,1.1,5.8,3.8L263.8,183
			c0.5,2.6-1.1,5.1-3.7,5.7l-71.2,15.4C186.4,204.6,183.8,203.1,183.2,200.5z"/>
		
			<linearGradient id="SVGID_2_" gradientUnits="userSpaceOnUse" x1="250.968" y1="257.8356" x2="219.725" y2="132.5269" gradientTransform="matrix(0.9752 -0.2212 0.2212 0.9752 -59.6124 1.166)">
			<stop  offset="0" style="stop-color:#B2C9FF"/>
			<stop  offset="0.2117" style="stop-color:#8E7BBB"/>
			<stop  offset="1" style="stop-color:#F6ECF2"/>
		</linearGradient>
		<path class="st21" d="M183,199.8l-24.5-101c-0.6-2.6,1-5.3,3.6-5.9l75.3-17.1c2.7-0.6,5.3,1.1,5.8,3.8l20.3,102.6
			c0.5,2.6-1.1,5.1-3.7,5.7l-71.2,15.4C186.2,203.9,183.6,202.3,183,199.8z"/>
		
			<linearGradient id="SVGID_3_" gradientUnits="userSpaceOnUse" x1="232.2434" y1="194.2701" x2="237.1071" y2="194.44" gradientTransform="matrix(0.9752 -0.2212 0.2212 0.9752 -59.6124 1.166)">
			<stop  offset="0" style="stop-color:#F6ECF2"/>
			<stop  offset="1" style="stop-color:#AA9CCC"/>
		</linearGradient>
		<polygon class="st22" points="222.7,191 199.9,87 202,86.5 224.6,190.6 		"/>
		
			<linearGradient id="SVGID_4_" gradientUnits="userSpaceOnUse" x1="233.1879" y1="192.2327" x2="235.4764" y2="192.3126" gradientTransform="matrix(0.9752 -0.2212 0.2212 0.9752 -59.6124 1.166)">
			<stop  offset="0.3568" style="stop-color:#000000"/>
			<stop  offset="1" style="stop-color:#E5EFE5"/>
		</linearGradient>
		<path class="st23" d="M220,175.6c0,0-14.7-62.6-17-77.6C202.9,98,217.3,160.2,220,175.6z"/>
		<g>
			
				<linearGradient id="SVGID_5_" gradientUnits="userSpaceOnUse" x1="197.5833" y1="156.2632" x2="226.828" y2="156.2632" gradientTransform="matrix(0.9752 -0.2212 0.2212 0.9752 -59.6124 1.166)">
				<stop  offset="0" style="stop-color:#E5EFE5"/>
				<stop  offset="1" style="stop-color:#603157"/>
			</linearGradient>
			<path class="st24" d="M171.5,102.9l18.1-4.1c2.8-0.6,5.7-1.3,6.4,4.6l0,0c0.7,3.2-1,6.3-3.8,6.9l-18.1,4.1
				c-2.8,0.6-5.7-1.4-6.4-4.6l0,0C166.1,105.4,168.7,103.6,171.5,102.9z"/>
			<path class="st25" d="M173.4,104.8l15.4-3.5c2.4-0.5,4.9-1.1,5.4,3.4l0,0c0.5,2.4-1,4.8-3.4,5.4l-15.4,3.5
				c-2.4,0.5-4.8-1-5.4-3.4l0,0C168.7,106.8,170.9,105.4,173.4,104.8z"/>
			<radialGradient id="SVGID_6_" cx="171.9529" cy="106.149" r="9.7079" gradientUnits="userSpaceOnUse">
				<stop  offset="0" style="stop-color:#00FFFF"/>
				<stop  offset="0.9944" style="stop-color:#26A9FF"/>
			</radialGradient>
			<path class="st26" d="M193.9,102.4c0,2.1-1.4,3.9-3.5,4.4l-9.2,2.1l-6.3,1.4c-2.4,0.5-4.8-1-5.4-3.4c-0.1-0.3-0.1-0.7-0.1-1
				c0-2,1.4-3.9,3.5-4.4l6.8-1.5l8.7-2c2.4-0.6,4.8,1,5.4,3.4C193.9,101.7,193.9,102,193.9,102.4z"/>
		</g>
		<g>
			
				<linearGradient id="SVGID_7_" gradientUnits="userSpaceOnUse" x1="197.584" y1="181.782" x2="226.8286" y2="181.782" gradientTransform="matrix(0.9752 -0.2212 0.2212 0.9752 -59.6124 1.166)">
				<stop  offset="0" style="stop-color:#E5EFE5"/>
				<stop  offset="1" style="stop-color:#603157"/>
			</linearGradient>
			<path class="st27" d="M177.2,127.8l18.1-4.1c2.8-0.6,5.7-1.3,6.4,4.6v0c0.7,3.2-1,6.3-3.8,6.9l-18.1,4.1
				c-2.8,0.6-5.7-1.4-6.4-4.6l0,0C171.8,130.3,174.3,128.5,177.2,127.8z"/>
			<path class="st25" d="M179,129.7l15.4-3.5c2.4-0.5,4.9-1.1,5.4,3.4l0,0c0.5,2.4-1,4.8-3.4,5.4l-15.4,3.5c-2.4,0.5-4.8-1-5.4-3.4
				l0,0C174.4,131.7,176.6,130.3,179,129.7z"/>
			<radialGradient id="SVGID_8_" cx="177.9077" cy="130.72" r="9.7088" gradientUnits="userSpaceOnUse">
				<stop  offset="0" style="stop-color:#00FFFF"/>
				<stop  offset="0.9944" style="stop-color:#26A9FF"/>
			</radialGradient>
			<path class="st28" d="M199.5,127.3c0,2-1.4,3.9-3.5,4.4l-8.7,2l-6.7,1.5c-2.4,0.5-4.8-1-5.4-3.4c-0.1-0.3-0.1-0.7-0.1-1
				c0-2,1.4-3.9,3.5-4.4l6.6-1.5l8.9-2c2.4-0.5,4.8,1,5.4,3.4C199.5,126.6,199.5,126.9,199.5,127.3z"/>
		</g>
		<g>
			
				<linearGradient id="SVGID_9_" gradientUnits="userSpaceOnUse" x1="197.5845" y1="206.9721" x2="226.8292" y2="206.9721" gradientTransform="matrix(0.9752 -0.2212 0.2212 0.9752 -59.6124 1.166)">
				<stop  offset="0" style="stop-color:#E5EFE5"/>
				<stop  offset="1" style="stop-color:#603157"/>
			</linearGradient>
			<path class="st29" d="M182.8,152.4l18.1-4.1c2.8-0.6,5.7-1.3,6.4,4.6l0,0c0.7,3.2-1,6.3-3.8,6.9l-18.1,4.1
				c-2.8,0.6-5.7-1.4-6.4-4.6l0,0C177.4,154.8,179.9,153,182.8,152.4z"/>
			<path class="st25" d="M184.6,154.3l15.4-3.5c2.4-0.5,4.9-1.1,5.4,3.4l0,0c0.5,2.4-1,4.8-3.4,5.4l-15.4,3.5
				c-2.4,0.5-4.8-1-5.4-3.4l0,0C180,156.3,182.2,154.8,184.6,154.3z"/>
			<radialGradient id="SVGID_10_" cx="182.3861" cy="156.0677" r="9.7079" gradientUnits="userSpaceOnUse">
				<stop  offset="0" style="stop-color:#00FFFF"/>
				<stop  offset="0.9944" style="stop-color:#26A9FF"/>
			</radialGradient>
			<path class="st30" d="M205.1,151.8c0,2.1-1.4,3.9-3.5,4.4l-8.3,1.9l-7.1,1.6c-2.4,0.6-4.8-1-5.4-3.4c-0.1-0.3-0.1-0.7-0.1-1
				c0-2,1.4-3.9,3.5-4.4l7-1.6l8.5-1.9c2.4-0.5,4.8,1,5.4,3.4C205.1,151.2,205.1,151.5,205.1,151.8z"/>
		</g>
		<g>
			
				<linearGradient id="SVGID_11_" gradientUnits="userSpaceOnUse" x1="197.5853" y1="234.4308" x2="226.83" y2="234.4308" gradientTransform="matrix(0.9752 -0.2212 0.2212 0.9752 -59.6124 1.166)">
				<stop  offset="0" style="stop-color:#E5EFE5"/>
				<stop  offset="1" style="stop-color:#603157"/>
			</linearGradient>
			<path class="st31" d="M188.8,179.2l18.1-4.1c2.8-0.6,5.7-1.3,6.4,4.6l0,0c0.7,3.2-1,6.3-3.8,6.9l-18.1,4.1
				c-2.8,0.6-5.7-1.4-6.4-4.6l0,0C183.4,181.6,186,179.8,188.8,179.2z"/>
			<path class="st25" d="M190.7,181.1l15.4-3.5c2.4-0.5,4.9-1.1,5.4,3.4l0,0c0.5,2.4-1,4.8-3.4,5.4l-15.4,3.5
				c-2.4,0.5-4.8-1-5.4-3.4l0,0C186,183.1,188.2,181.6,190.7,181.1z"/>
			<radialGradient id="SVGID_12_" cx="189.5569" cy="181.748" r="9.7079" gradientUnits="userSpaceOnUse">
				<stop  offset="0" style="stop-color:#00FFFF"/>
				<stop  offset="0.9944" style="stop-color:#26A9FF"/>
			</radialGradient>
			<path class="st32" d="M211.2,178.6c0,2-1.4,3.9-3.5,4.4l-7.9,1.8l-7.6,1.7c-2.4,0.6-4.8-1-5.4-3.4c-0.1-0.3-0.1-0.7-0.1-1
				c0-2.1,1.4-3.9,3.5-4.4l7.4-1.7l8-1.8c2.4-0.5,4.8,1,5.4,3.4C211.1,177.9,211.2,178.3,211.2,178.6z"/>
		</g>
		<g>
			
				<linearGradient id="SVGID_13_" gradientUnits="userSpaceOnUse" x1="240.0331" y1="156.2621" x2="269.2778" y2="156.2621" gradientTransform="matrix(0.9752 -0.2212 0.2212 0.9752 -59.6124 1.166)">
				<stop  offset="0" style="stop-color:#E5EFE5"/>
				<stop  offset="1" style="stop-color:#603157"/>
			</linearGradient>
			<path class="st33" d="M212.9,93.5l18.1-4.1c2.8-0.6,5.7-1.3,6.4,4.6l0,0c0.7,3.2-1,6.3-3.8,6.9l-18.1,4.1
				c-2.8,0.6-5.7-1.4-6.4-4.6l0,0C207.5,96,210.1,94.2,212.9,93.5z"/>
			<path class="st25" d="M214.8,95.5l15.4-3.5c2.4-0.5,4.9-1.1,5.4,3.4l0,0c0.5,2.4-1,4.8-3.4,5.4l-15.4,3.5c-2.4,0.5-4.8-1-5.4-3.4
				l0,0C210.1,97.5,212.3,96,214.8,95.5z"/>
			<radialGradient id="SVGID_14_" cx="213.3457" cy="96.443" r="9.7108" gradientUnits="userSpaceOnUse">
				<stop  offset="0" style="stop-color:#00FFFF"/>
				<stop  offset="0.9944" style="stop-color:#26A9FF"/>
			</radialGradient>
			<path class="st34" d="M235.3,93c0,2-1.4,3.9-3.5,4.4l-8.5,1.9l-6.9,1.6c-2.4,0.5-4.8-1-5.4-3.4c-0.1-0.3-0.1-0.7-0.1-1
				c0-2.1,1.4-3.9,3.5-4.4l6.8-1.6l8.6-1.9c2.4-0.6,4.8,1,5.4,3.4C235.3,92.3,235.3,92.6,235.3,93z"/>
		</g>
		<g>
			
				<linearGradient id="SVGID_15_" gradientUnits="userSpaceOnUse" x1="240.0338" y1="181.781" x2="269.2784" y2="181.781" gradientTransform="matrix(0.9752 -0.2212 0.2212 0.9752 -59.6124 1.166)">
				<stop  offset="0" style="stop-color:#E5EFE5"/>
				<stop  offset="1" style="stop-color:#603157"/>
			</linearGradient>
			<path class="st35" d="M218.6,118.4l18.1-4.1c2.8-0.6,5.7-1.3,6.4,4.6l0,0c0.7,3.2-1,6.3-3.8,6.9l-18.1,4.1
				c-2.8,0.6-5.7-1.4-6.4-4.6l0,0C213.2,120.9,215.7,119.1,218.6,118.4z"/>
			<path class="st25" d="M220.4,120.3l15.4-3.5c2.4-0.5,4.9-1.1,5.4,3.4l0,0c0.5,2.4-1,4.8-3.4,5.4l-15.4,3.5
				c-2.4,0.5-4.8-1-5.4-3.4v0C215.8,122.3,218,120.9,220.4,120.3z"/>
			<radialGradient id="SVGID_16_" cx="219.7751" cy="121.252" r="9.7079" gradientUnits="userSpaceOnUse">
				<stop  offset="0" style="stop-color:#00FFFF"/>
				<stop  offset="0.9944" style="stop-color:#26A9FF"/>
			</radialGradient>
			<path class="st36" d="M240.9,117.9c0,2.1-1.4,3.9-3.5,4.4l-8.3,1.9l-7.1,1.6c-2.4,0.5-4.8-1-5.4-3.4c-0.1-0.3-0.1-0.7-0.1-1
				c0-2,1.4-3.9,3.5-4.4l7.1-1.6l8.4-1.9c2.4-0.6,4.8,1,5.4,3.4C240.9,117.2,240.9,117.5,240.9,117.9z"/>
		</g>
		<g>
			
				<linearGradient id="SVGID_17_" gradientUnits="userSpaceOnUse" x1="240.0344" y1="206.971" x2="269.2791" y2="206.971" gradientTransform="matrix(0.9752 -0.2212 0.2212 0.9752 -59.6124 1.166)">
				<stop  offset="0" style="stop-color:#E5EFE5"/>
				<stop  offset="0.4811" style="stop-color:#603157"/>
				<stop  offset="0.9757" style="stop-color:#91708A"/>
			</linearGradient>
			<path class="st37" d="M224.2,143l18.1-4.1c2.8-0.6,5.7-1.3,6.4,4.6l0,0c0.7,3.2-1,6.3-3.8,6.9l-18.1,4.1
				c-2.8,0.6-5.7-1.4-6.4-4.6l0,0C218.8,145.5,221.3,143.6,224.2,143z"/>
			<path class="st25" d="M226,144.9l15.4-3.5c2.4-0.5,4.9-1.1,5.4,3.4v0c0.5,2.4-1,4.8-3.4,5.4l-15.4,3.5c-2.4,0.5-4.8-1-5.4-3.4
				l0,0C221.4,146.9,223.6,145.5,226,144.9z"/>
			<radialGradient id="SVGID_18_" cx="223.9403" cy="146.2079" r="9.7088" gradientUnits="userSpaceOnUse">
				<stop  offset="0" style="stop-color:#00FFFF"/>
				<stop  offset="0.9944" style="stop-color:#26A9FF"/>
			</radialGradient>
			<path class="st38" d="M246.5,142.4c0,2.1-1.4,3.9-3.5,4.4l-8.1,1.8l-7.3,1.7c-2.4,0.5-4.8-1-5.4-3.4c-0.1-0.3-0.1-0.7-0.1-1
				c0-2,1.4-3.9,3.5-4.4l7.3-1.7l8.2-1.9c2.4-0.5,4.8,1,5.4,3.4C246.5,141.8,246.5,142.1,246.5,142.4z"/>
		</g>
		<g>
			
				<linearGradient id="SVGID_19_" gradientUnits="userSpaceOnUse" x1="240.0351" y1="234.4296" x2="269.2798" y2="234.4296" gradientTransform="matrix(0.9752 -0.2212 0.2212 0.9752 -59.6124 1.166)">
				<stop  offset="0" style="stop-color:#E5EFE5"/>
				<stop  offset="0.4811" style="stop-color:#603157"/>
				<stop  offset="0.9757" style="stop-color:#91708A"/>
			</linearGradient>
			<path class="st39" d="M230.2,169.8l18.1-4.1c2.8-0.6,5.7-1.3,6.4,4.6v0c0.7,3.2-1,6.3-3.8,6.9l-18.1,4.1
				c-2.8,0.6-5.7-1.4-6.4-4.6l0,0C224.8,172.2,227.4,170.4,230.2,169.8z"/>
			<path class="st25" d="M232.1,171.7l15.4-3.5c2.4-0.5,4.9-1.1,5.4,3.4l0,0c0.5,2.4-1,4.8-3.4,5.4l-15.4,3.5
				c-2.4,0.5-4.8-1-5.4-3.4h0C227.4,173.7,229.6,172.2,232.1,171.7z"/>
			<radialGradient id="SVGID_20_" cx="230.3275" cy="173.1418" r="9.7088" gradientUnits="userSpaceOnUse">
				<stop  offset="0" style="stop-color:#00FFFF"/>
				<stop  offset="0.9944" style="stop-color:#26A9FF"/>
			</radialGradient>
			<path class="st40" d="M252.6,169.2c0,2.1-1.4,3.9-3.5,4.4l-7.9,1.8l-7.6,1.7c-2.4,0.5-4.8-1-5.4-3.4c-0.1-0.3-0.1-0.7-0.1-1
				c0-2,1.4-3.9,3.5-4.4l7.5-1.7l7.9-1.8c2.4-0.5,4.8,1,5.4,3.4C252.5,168.5,252.6,168.9,252.6,169.2z"/>
		</g>
		<radialGradient id="SVGID_21_" cx="186.4871" cy="103.3418" r="6.5144" gradientUnits="userSpaceOnUse">
			<stop  offset="0" style="stop-color:#7C65E0"/>
			<stop  offset="0.9944" style="stop-color:#954CB8"/>
		</radialGradient>
		<path class="st41" d="M190.4,106.7l-9.2,2.1l-2.1-8.7l0.6-0.2l8.7-2c2.4-0.6,4.8,1,5.4,3.4c0.1,0.3,0.1,0.7,0.1,1
			C193.9,104.4,192.5,106.3,190.4,106.7z"/>
		<radialGradient id="SVGID_22_" cx="192.3399" cy="128.1792" r="6.376" gradientUnits="userSpaceOnUse">
			<stop  offset="0" style="stop-color:#7C65E0"/>
			<stop  offset="0.9944" style="stop-color:#954CB8"/>
		</radialGradient>
		<path class="st42" d="M196,131.6l-8.7,2l-2.1-8.7l8.9-2c2.4-0.5,4.8,1,5.4,3.4c0.1,0.3,0.1,0.7,0.1,1
			C199.5,129.3,198.1,131.2,196,131.6z"/>
		<radialGradient id="SVGID_23_" cx="198.1222" cy="152.6949" r="6.2376" gradientUnits="userSpaceOnUse">
			<stop  offset="0" style="stop-color:#7C65E0"/>
			<stop  offset="0.9944" style="stop-color:#954CB8"/>
		</radialGradient>
		<path class="st43" d="M201.6,156.2l-8.3,1.9l-2.1-8.7l8.5-1.9c2.4-0.5,4.8,1,5.4,3.4c0.1,0.3,0.1,0.7,0.1,1
			C205.1,153.9,203.7,155.7,201.6,156.2z"/>
		<radialGradient id="SVGID_24_" cx="204.4263" cy="179.4203" r="6.0867" gradientUnits="userSpaceOnUse">
			<stop  offset="0" style="stop-color:#7C65E0"/>
			<stop  offset="0.9944" style="stop-color:#954CB8"/>
		</radialGradient>
		<path class="st44" d="M211.2,178.6c0,2-1.4,3.9-3.5,4.4l-7.9,1.8l-2.1-8.7l8-1.8c2.4-0.5,4.8,1,5.4,3.4
			C211.1,177.9,211.2,178.3,211.2,178.6z"/>
		<radialGradient id="SVGID_25_" cx="228.2371" cy="93.8786" r="6.2853" gradientUnits="userSpaceOnUse">
			<stop  offset="0" style="stop-color:#7C65E0"/>
			<stop  offset="0.9944" style="stop-color:#954CB8"/>
		</radialGradient>
		<path class="st45" d="M231.8,97.4l-8.5,1.9l-2.1-8.8l8.6-1.9c2.4-0.6,4.8,1,5.4,3.4c0.1,0.3,0.1,0.7,0.1,1
			C235.3,95,233.9,96.9,231.8,97.4z"/>
		<radialGradient id="SVGID_26_" cx="233.9865" cy="118.7424" r="6.2146" gradientUnits="userSpaceOnUse">
			<stop  offset="0" style="stop-color:#7C65E0"/>
			<stop  offset="0.9944" style="stop-color:#954CB8"/>
		</radialGradient>
		<path class="st46" d="M237.4,122.2l-8.3,1.9l-2.1-8.8l8.4-1.9c2.4-0.6,4.8,1,5.4,3.4c0.1,0.3,0.1,0.7,0.1,1
			C240.9,119.9,239.5,121.8,237.4,122.2z"/>
		<radialGradient id="SVGID_27_" cx="239.6654" cy="143.2834" r="6.1481" gradientUnits="userSpaceOnUse">
			<stop  offset="0" style="stop-color:#7C65E0"/>
			<stop  offset="0.9944" style="stop-color:#954CB8"/>
		</radialGradient>
		<path class="st47" d="M243,146.8l-8.1,1.8l-2.1-8.8l8.2-1.9c2.4-0.5,4.8,1,5.4,3.4c0.1,0.3,0.1,0.7,0.1,1
			C246.5,144.5,245.1,146.3,243,146.8z"/>
		<radialGradient id="SVGID_28_" cx="245.8566" cy="170.0323" r="6.0705" gradientUnits="userSpaceOnUse">
			<stop  offset="0" style="stop-color:#7C65E0"/>
			<stop  offset="0.9944" style="stop-color:#954CB8"/>
		</radialGradient>
		<path class="st48" d="M252.6,169.2c0,2.1-1.4,3.9-3.5,4.4l-7.9,1.8l-2.1-8.8l7.9-1.8c2.4-0.5,4.8,1,5.4,3.4
			C252.5,168.5,252.6,168.9,252.6,169.2z"/>
		
			<linearGradient id="SVGID_29_" gradientUnits="userSpaceOnUse" x1="198.2883" y1="151.5453" x2="222.2035" y2="151.5453" gradientTransform="matrix(0.9752 -0.2212 0.2212 0.9752 -59.6124 1.166)">
			<stop  offset="0" style="stop-color:#FFFFFF"/>
			<stop  offset="1" style="stop-color:#000000"/>
		</linearGradient>
		<path class="st49" d="M168,107.2c0,0,1.4-1.8,3.5-2.4s19.1-4.3,19.1-4.3s0.1-1.6-0.8-2.6c0,0-15.8,3.2-18.2,4.1s-4,3.6-4,3.6
			S167.4,106.7,168,107.2z"/>
		
			<linearGradient id="SVGID_30_" gradientUnits="userSpaceOnUse" x1="240.7388" y1="177.0631" x2="264.654" y2="177.0631" gradientTransform="matrix(0.9752 -0.2212 0.2212 0.9752 -59.6124 1.166)">
			<stop  offset="0" style="stop-color:#FFFFFF"/>
			<stop  offset="1" style="stop-color:#000000"/>
		</linearGradient>
		<path class="st50" d="M215,122.7c0,0,1.4-1.8,3.5-2.4c2.1-0.7,19.1-4.3,19.1-4.3s0.1-1.6-0.8-2.6c0,0-15.8,3.2-18.2,4.1
			c-2.4,0.9-4,3.6-4,3.6S214.4,122.2,215,122.7z"/>
		
			<linearGradient id="SVGID_31_" gradientUnits="userSpaceOnUse" x1="241.1136" y1="151.2374" x2="265.0288" y2="151.2374" gradientTransform="matrix(0.9752 -0.2212 0.2212 0.9752 -59.6124 1.166)">
			<stop  offset="0" style="stop-color:#FFFFFF"/>
			<stop  offset="1" style="stop-color:#000000"/>
		</linearGradient>
		<path class="st51" d="M209.7,97.4c0,0,1.4-1.8,3.5-2.4c2.1-0.7,19.1-4.3,19.1-4.3s0.1-1.6-0.8-2.6c0,0-15.8,3.2-18.2,4.1
			s-4,3.6-4,3.6S209.1,96.9,209.7,97.4z"/>
		
			<linearGradient id="SVGID_32_" gradientUnits="userSpaceOnUse" x1="198.2889" y1="177.0642" x2="222.2041" y2="177.0642" gradientTransform="matrix(0.9752 -0.2212 0.2212 0.9752 -59.6124 1.166)">
			<stop  offset="0" style="stop-color:#FFFFFF"/>
			<stop  offset="1" style="stop-color:#000000"/>
		</linearGradient>
		<path class="st52" d="M173.6,132.1c0,0,1.4-1.8,3.5-2.4c2.1-0.7,19.1-4.3,19.1-4.3s0.1-1.6-0.8-2.6c0,0-15.8,3.2-18.2,4.1
			s-4,3.6-4,3.6S173,131.6,173.6,132.1z"/>
		
			<linearGradient id="SVGID_33_" gradientUnits="userSpaceOnUse" x1="198.2896" y1="202.2543" x2="222.2048" y2="202.2543" gradientTransform="matrix(0.9752 -0.2212 0.2212 0.9752 -59.6124 1.166)">
			<stop  offset="0" style="stop-color:#FFFFFF"/>
			<stop  offset="1" style="stop-color:#000000"/>
		</linearGradient>
		<path class="st53" d="M179.2,156.7c0,0,1.4-1.8,3.5-2.4c2.1-0.7,19.1-4.3,19.1-4.3s0.1-1.6-0.8-2.6c0,0-15.8,3.2-18.2,4.1
			c-2.4,0.9-4,3.6-4,3.6S178.6,156.1,179.2,156.7z"/>
		
			<linearGradient id="SVGID_34_" gradientUnits="userSpaceOnUse" x1="198.2903" y1="229.7129" x2="222.2055" y2="229.7129" gradientTransform="matrix(0.9752 -0.2212 0.2212 0.9752 -59.6124 1.166)">
			<stop  offset="0" style="stop-color:#FFFFFF"/>
			<stop  offset="1" style="stop-color:#000000"/>
		</linearGradient>
		<path class="st54" d="M185.3,183.4c0,0,1.4-1.8,3.5-2.4c2.1-0.7,19.1-4.3,19.1-4.3s0.1-1.6-0.8-2.6c0,0-15.8,3.2-18.2,4.1
			c-2.4,0.9-4,3.6-4,3.6S184.7,182.9,185.3,183.4z"/>
		
			<linearGradient id="SVGID_35_" gradientUnits="userSpaceOnUse" x1="240.7106" y1="229.2717" x2="264.6258" y2="229.2717" gradientTransform="matrix(0.9752 -0.2212 0.2212 0.9752 -59.6124 1.166)">
			<stop  offset="0" style="stop-color:#FFFFFF"/>
			<stop  offset="1" style="stop-color:#000000"/>
		</linearGradient>
		<path class="st55" d="M226.5,173.6c0,0,1.4-1.8,3.5-2.4s19.1-4.3,19.1-4.3s0.1-1.6-0.8-2.6c0,0-15.8,3.2-18.2,4.1s-4,3.6-4,3.6
			S225.9,173.1,226.5,173.6z"/>
		
			<linearGradient id="SVGID_36_" gradientUnits="userSpaceOnUse" x1="240.8155" y1="202.246" x2="264.7307" y2="202.246" gradientTransform="matrix(0.9752 -0.2212 0.2212 0.9752 -59.6124 1.166)">
			<stop  offset="0" style="stop-color:#FFFFFF"/>
			<stop  offset="1" style="stop-color:#000000"/>
		</linearGradient>
		<path class="st56" d="M220.7,147.3c0,0,1.4-1.8,3.5-2.4c2.1-0.7,19.1-4.3,19.1-4.3s0.1-1.6-0.8-2.6c0,0-15.8,3.2-18.2,4.1
			c-2.4,0.9-4,3.6-4,3.6S220.1,146.7,220.7,147.3z"/>
	</g>
	<g>
		
			<linearGradient id="SVGID_37_" gradientUnits="userSpaceOnUse" x1="224.205" y1="346.5497" x2="218.9906" y2="267.3439" gradientTransform="matrix(1 -1.035296e-02 1.035296e-02 1 -50.0947 -136.1765)">
			<stop  offset="0" style="stop-color:#FF5C1B"/>
			<stop  offset="0.998" style="stop-color:#E03347"/>
		</linearGradient>
		<path class="st57" d="M188.8,133.3l0-3.8l-14.8,0.2l-14.8,0.2l0,3.8c-5.6,4.4-6.6,10.7-6.6,10.7l2,60.3c0,0,6,3.6,19.8,3.4
			c15-0.2,20.2-3.8,20.2-3.8l0.9-60.4C195.6,143.9,194.5,137.6,188.8,133.3z"/>
		
			<linearGradient id="SVGID_38_" gradientUnits="userSpaceOnUse" x1="206.4994" y1="271.7204" x2="236.0809" y2="271.7204" gradientTransform="matrix(1 -1.035296e-02 1.035296e-02 1 -50.0947 -136.1765)">
			<stop  offset="1.711450e-02" style="stop-color:#D697E3"/>
			<stop  offset="1" style="stop-color:#EDE5F3"/>
		</linearGradient>
		<path class="st58" d="M159.2,133.6c0,0,6,1.7,15.2,1.6s14.3-1.9,14.3-1.9l0-2.1l-29.6,0.1L159.2,133.6z"/>
		<g>
			
				<radialGradient id="SVGID_39_" cx="221.7218" cy="266.1449" r="13.6284" gradientTransform="matrix(1 -1.035296e-02 1.035296e-02 1 -50.0947 -136.1765)" gradientUnits="userSpaceOnUse">
				<stop  offset="0" style="stop-color:#00E0FF"/>
				<stop  offset="0.9944" style="stop-color:#1F84FF"/>
			</radialGradient>
			<path class="st59" d="M155.7,123.1l0.8,7.7c0,0,4.1,1.8,17.5,1.7c13.4-0.1,18.1-2,18.1-2l0.9-7.7c0,0-6.5,1.3-19.8,1.4
				C159.9,124.2,155.7,123.1,155.7,123.1z"/>
			<path class="st60" d="M155.7,123.1c0,0,17.6-4.6,37.3-0.4c0,0-6.3,1.3-19.8,1.4C159.6,124.2,155.7,123.1,155.7,123.1z"/>
			<path class="st60" d="M158.6,122.4l-0.7-1.9c0,0,15.9-3.2,33.2-0.5l-0.5,2.7c0,0-5.9,0.5-16.8,0.6
				C163.1,123.4,158.6,122.4,158.6,122.4z"/>
			
				<radialGradient id="SVGID_40_" cx="221.9684" cy="260.3406" r="11.7823" gradientTransform="matrix(1 -1.035296e-02 1.035296e-02 1 -50.0947 -136.1765)" gradientUnits="userSpaceOnUse">
				<stop  offset="0" style="stop-color:#00E0FF"/>
				<stop  offset="0.9944" style="stop-color:#1F84FF"/>
			</radialGradient>
			<path class="st61" d="M158,120.5c0,0,6.2,0.9,16.3,0.8c10.2-0.1,16.8-1.3,16.8-1.3l-0.4,2.3c0,0-5.4,1.1-16.8,1.2
				c-10.1,0.1-15.2-0.9-15.2-0.9L158,120.5z"/>
			<polygon class="st62" points="157.1,130.4 156.6,123.7 157.1,123.7 157.5,130.4 			"/>
			<polygon class="st62" points="160.2,131.2 159.7,124.5 160.2,124.5 160.6,131.1 			"/>
			<polygon class="st62" points="163.7,131.5 163.1,124.8 163.6,124.8 164,131.5 			"/>
			<polygon class="st62" points="167.3,131.7 166.7,125 167.2,125 167.7,131.7 			"/>
			<polygon class="st62" points="186.4,131.1 186.5,124.4 187,124.4 186.8,131.1 			"/>
			<polygon class="st62" points="171.5,131.7 171.2,125 171.7,125 171.9,131.6 			"/>
			<polygon class="st62" points="177,131.6 176.8,124.9 177.3,124.9 177.4,131.6 			"/>
			<polygon class="st62" points="190.2,130.3 190.5,123.6 191,123.6 190.6,130.3 			"/>
			<polygon class="st62" points="182.1,131.5 181.9,124.9 182.4,124.9 182.4,131.5 			"/>
		</g>
		
			<linearGradient id="SVGID_41_" gradientUnits="userSpaceOnUse" x1="208.7641" y1="343.6708" x2="208.7641" y2="273.1432" gradientTransform="matrix(1 -1.035296e-02 1.035296e-02 1 -50.0947 -136.1765)">
			<stop  offset="0" style="stop-color:#000000"/>
			<stop  offset="1" style="stop-color:#C7AC75"/>
		</linearGradient>
		<path class="st63" d="M159.2,134.8c0,0-4.3,4.1-5.4,8.7l2.5,60.3c0,0,3.6,1.7,10.9,1.4l0.1-61.9c0,0,0.4-4.9,1.9-7.5
			C169.2,135.9,163.2,135.3,159.2,134.8z"/>
		<path class="st64" d="M153.9,143.5c0,0,4.9,1.5,13.5,1.6c0,0-0.4-5,1.9-9.3l-10-1.1C159.2,134.8,154.9,139.1,153.9,143.5z"/>
		
			<linearGradient id="SVGID_42_" gradientUnits="userSpaceOnUse" x1="189.1425" y1="210.0451" x2="228.9496" y2="198.6967" gradientTransform="matrix(0.9983 5.751478e-02 -5.751478e-02 0.9983 -19.5913 -39.7868)">
			<stop  offset="0" style="stop-color:#EDEDFF"/>
			<stop  offset="0.9829" style="stop-color:#D1D1EB"/>
		</linearGradient>
		<path class="st65" d="M163,150.7c4.8,0.5,17.1,1.3,27.9-0.8c1.1-0.2,2.2,0.7,2.2,1.8l-0.8,48.6c0,0.8-0.5,1.5-1.3,1.7
			c-3.4,1-13.5,3.3-27.7,1c-0.9-0.1-1.5-0.9-1.5-1.7l-0.8-48.8C161,151.4,161.9,150.6,163,150.7z"/>
		
			<linearGradient id="SVGID_43_" gradientUnits="userSpaceOnUse" x1="236.1965" y1="314.1546" x2="241.7195" y2="314.1546" gradientTransform="matrix(1 -1.035296e-02 1.035296e-02 1 -50.0947 -136.1765)">
			<stop  offset="0" style="stop-color:#000000"/>
			<stop  offset="1" style="stop-color:#C7AC75"/>
		</linearGradient>
		<polygon class="st66" points="189.7,205 190.4,147.3 194.6,146 193.4,203.7 		"/>
	</g>
	<g>
		
			<linearGradient id="SVGID_44_" gradientUnits="userSpaceOnUse" x1="139.2003" y1="153.2768" x2="159.1066" y2="153.2768" gradientTransform="matrix(0.9567 0.2909 -0.2909 0.9567 141.2243 -15.9313)">
			<stop  offset="0" style="stop-color:#E3E3FF"/>
			<stop  offset="0.9829" style="stop-color:#E0D1EB"/>
		</linearGradient>
		<path class="st67" d="M218.9,207.1l22.1-72.6c0,0,9.5,5,18.8,6.7L234.8,212C234.8,212,226.6,211.4,218.9,207.1z"/>
		
			<linearGradient id="SVGID_45_" gradientUnits="userSpaceOnUse" x1="139.2031" y1="195.086" x2="155.8649" y2="195.086" gradientTransform="matrix(0.9567 0.2909 -0.2909 0.9567 141.2243 -15.9313)">
			<stop  offset="0" style="stop-color:#E3E3FF"/>
			<stop  offset="0.9829" style="stop-color:#E0D1EB"/>
		</linearGradient>
		<path class="st68" d="M218.9,207.1c0,0,1.7,3.1,4.2,5.5l-1.3,4.3l4.5,1.4l1.2-4.1c0,0,4.7,0,7.3-2.2
			C234.8,212,225.3,210.3,218.9,207.1z"/>
		
			<linearGradient id="SVGID_46_" gradientUnits="userSpaceOnUse" x1="149.3759" y1="167.7535" x2="149.3759" y2="115.2298" gradientTransform="matrix(0.9567 0.2909 -0.2909 0.9567 141.2243 -15.9313)">
			<stop  offset="0" style="stop-color:#FFF3FF"/>
			<stop  offset="0.9829" style="stop-color:#E7E2EE"/>
		</linearGradient>
		<polygon class="st69" points="227.2,185.5 241,189.7 258.8,140.2 242.3,135.7 		"/>
		
			<radialGradient id="SVGID_47_" cx="85.6147" cy="169.1359" r="5.8651" gradientTransform="matrix(0.8201 0.2493 -0.2909 0.9567 217.2262 6.8231)" gradientUnits="userSpaceOnUse">
			<stop  offset="0" style="stop-color:#7C65E0"/>
			<stop  offset="0.9944" style="stop-color:#954CB8"/>
		</radialGradient>
		<path class="st70" d="M227.2,185.5l-0.6,2c0,0,1.8,4.4,5.8,5.7c4,1.2,7.8-1,7.8-1l0.7-2.5C241,189.7,234.8,187.8,227.2,185.5z"/>
		
			<linearGradient id="SVGID_48_" gradientUnits="userSpaceOnUse" x1="133.6276" y1="116.6304" x2="165.3787" y2="116.6304" gradientTransform="matrix(0.9567 0.2909 -0.2909 0.9567 141.2243 -15.9313)">
			<stop  offset="0" style="stop-color:#E3E3FF"/>
			<stop  offset="0.9829" style="stop-color:#E0D1EB"/>
		</linearGradient>
		<path class="st71" d="M235.9,132.1l-0.2,2.1c0,0,3.8,4.4,13.6,7.3c11,3.3,15.6,2.7,15.6,2.7l1.2-2.1L235.9,132.1z"/>
		
			<linearGradient id="SVGID_49_" gradientUnits="userSpaceOnUse" x1="133.6276" y1="114.9568" x2="165.3787" y2="114.9568" gradientTransform="matrix(0.9567 0.2909 -0.2909 0.9567 141.2243 -15.9313)">
			<stop  offset="0" style="stop-color:#FFF3FF"/>
			<stop  offset="0.9829" style="stop-color:#E7E2EE"/>
		</linearGradient>
		<path class="st72" d="M235.9,132.1c0,0,16.3,0.9,30.1,10c0,0-5,1.6-17-2.8C237.7,135.2,235.9,132.1,235.9,132.1z"/>
		
			<linearGradient id="SVGID_50_" gradientUnits="userSpaceOnUse" x1="139.3998" y1="114.5181" x2="159.6064" y2="114.5181" gradientTransform="matrix(0.9567 0.2909 -0.2909 0.9567 141.2243 -15.9313)">
			<stop  offset="0" style="stop-color:#C2C9F3"/>
			<stop  offset="0.9829" style="stop-color:#C7B5E3"/>
		</linearGradient>
		<path class="st73" d="M241.4,133.9c0,0,3.3-0.2,9.5,1.7c6.8,2.1,9.7,4.7,9.7,4.7s-3.5,0.2-10.1-1.9
			C244.5,136.5,241.4,133.9,241.4,133.9z"/>
		
			<linearGradient id="SVGID_51_" gradientUnits="userSpaceOnUse" x1="149.3752" y1="115.7524" x2="149.3752" y2="72.6782" gradientTransform="matrix(0.9567 0.2909 -0.2909 0.9567 141.2243 -15.9313)">
			<stop  offset="0" style="stop-color:#FFF3FF"/>
			<stop  offset="0.9829" style="stop-color:#E7E2EE"/>
		</linearGradient>
		<path class="st74" d="M242.6,134.8l10.5-32l6.2-6.8l8.5,2.6l0.8,9l-10.4,32.6C258.3,140.1,249.6,139,242.6,134.8z"/>
		
			<linearGradient id="SVGID_52_" gradientUnits="userSpaceOnUse" x1="139.3406" y1="125.6641" x2="158.9878" y2="125.6641" gradientTransform="matrix(0.9567 0.2909 -0.2909 0.9567 141.2243 -15.9313)">
			<stop  offset="1.711450e-02" style="stop-color:#D697E3"/>
			<stop  offset="1" style="stop-color:#EDE5F3"/>
		</linearGradient>
		<path class="st75" d="M240.2,137.6l-0.7,1.9c0,0,14.2,5.5,14.4,18.1l4.9-13.8C258.8,143.8,247.8,142,240.2,137.6z"/>
		<path class="st64" d="M219.7,206.9l18.8-61.9c0,0,3.8,1.2,4.8,3.2l-18.6,61.3C224.8,209.4,220.9,207.7,219.7,206.9z"/>
		
			<linearGradient id="SVGID_53_" gradientUnits="userSpaceOnUse" x1="147.5976" y1="115.6514" x2="147.5976" y2="75.7933" gradientTransform="matrix(0.9567 0.2909 -0.2909 0.9567 141.2243 -15.9313)">
			<stop  offset="0" style="stop-color:#FFF3FF"/>
			<stop  offset="0.9829" style="stop-color:#F6F4F9"/>
		</linearGradient>
		<polygon class="st76" points="247.3,137.1 257.4,105.8 260.7,99.6 261.9,100 258.7,106.2 248.8,137.7 		"/>
		
			<linearGradient id="SVGID_54_" gradientUnits="userSpaceOnUse" x1="149.5261" y1="115.8962" x2="149.5261" y2="75.7932" gradientTransform="matrix(0.9567 0.2909 -0.2909 0.9567 141.2243 -15.9313)">
			<stop  offset="0" style="stop-color:#EDE5F3"/>
			<stop  offset="0.9882" style="stop-color:#D6ACE3"/>
		</linearGradient>
		<polygon class="st77" points="264.1,100.6 251.8,138.8 248.8,137.7 258.7,106.2 261.9,100 		"/>
		
			<linearGradient id="SVGID_55_" gradientUnits="userSpaceOnUse" x1="150.056" y1="87.9005" x2="150.056" y2="75.4876" gradientTransform="matrix(0.9567 0.2909 -0.2909 0.9567 141.2243 -15.9313)">
			<stop  offset="0" style="stop-color:#EDE5F3"/>
			<stop  offset="0.9882" style="stop-color:#D6ACE3"/>
		</linearGradient>
		<polygon class="st78" points="254.1,101.8 257.1,107 257.4,105.8 259.1,102.7 260.3,103.1 260.6,111.3 266.6,114.1 268.7,107.5 
			268.2,101.9 257.3,98.3 		"/>
		
			<linearGradient id="SVGID_56_" gradientUnits="userSpaceOnUse" x1="134.4865" y1="73.2948" x2="166.2374" y2="73.2948" gradientTransform="matrix(0.9567 0.2909 -0.2909 0.9567 141.2243 -15.9313)">
			<stop  offset="0" style="stop-color:#E3E3FF"/>
			<stop  offset="0.9829" style="stop-color:#E0D1EB"/>
		</linearGradient>
		<path class="st79" d="M249.3,90.9l-0.2,2.1c0,0,3.8,4.4,13.6,7.3c11,3.3,15.6,2.7,15.6,2.7l1.2-2.1L249.3,90.9z"/>
		
			<linearGradient id="SVGID_57_" gradientUnits="userSpaceOnUse" x1="134.4865" y1="71.6212" x2="166.2374" y2="71.6212" gradientTransform="matrix(0.9567 0.2909 -0.2909 0.9567 141.2243 -15.9313)">
			<stop  offset="0" style="stop-color:#FFF3FF"/>
			<stop  offset="0.9829" style="stop-color:#E7E2EE"/>
		</linearGradient>
		<path class="st80" d="M249.3,90.9c0,0,16.3,0.9,30.1,10c0,0-5,1.6-17-2.8C251.1,94,249.3,90.9,249.3,90.9z"/>
	</g>
	<g>
		<path class="st81" d="M227.8,221.8c-4.2,4.2-11,4.2-15.3,0l-0.9-0.9c-4.2-4.2-4.2-11,0-15.3l24.7-24.7c4.2-4.2,11-4.2,15.3,0
			l0.9,0.9c4.2,4.2,4.2,11,0,15.3L227.8,221.8z"/>
		<g>
			<path class="st82" d="M252.5,197.1c4.2-4.2,4.2-11,0-15.3l-0.9-0.9c-4.2-4.2-11-4.2-15.3,0L224,193.3l16.1,16.1L252.5,197.1z"/>
		</g>
		<g>
			<path class="st83" d="M224,218c-3.7,3.7-9.5,4.1-13.7,1.3c0.4,0.6,0.8,1.1,1.3,1.6l0.9,0.9c4.2,4.2,11,4.2,15.3,0l12.4-12.4
				l-3.8-3.8L224,218z"/>
			<path class="st81" d="M250.8,180.2c0.3,0.2,0.5,0.4,0.8,0.7C251.4,180.7,251.1,180.4,250.8,180.2z"/>
			<path class="st84" d="M252.5,181.8l-0.9-0.9c-0.2-0.2-0.5-0.5-0.8-0.7c-0.3-0.2-0.5-0.4-0.8-0.6c2.8,4.2,2.4,9.9-1.3,13.7
				l-12.4,12.4l3.8,3.8l12.4-12.4C256.7,192.9,256.7,186,252.5,181.8z"/>
		</g>
		<path class="st85" d="M218.1,212.6c-1,1-2.7,1-3.7,0l-0.2-0.2c-1-1-1-2.7,0-3.7l25.2-25.2c1-1,2.7-1,3.7,0l0.2,0.2
			c1,1,1,2.7,0,3.7L218.1,212.6z"/>
	</g>
	<g>
		<path class="st86" d="M179.2,186.4c-8.1,8.1-8.1,21.3,0,29.5l29.5-29.5C200.5,178.3,187.3,178.3,179.2,186.4z"/>
		<path class="st87" d="M208.6,215.9c8.1-8.1,8.1-21.3,0-29.5l-29.5,29.5C187.3,224,200.5,224,208.6,215.9z"/>
		<path class="st88" d="M180.9,188.2c-7.2,7.2-7.2,18.8,0,26l26-26C199.7,181,188.1,181,180.9,188.2z"/>
		<path class="st88" d="M206.9,214.2c7.2-7.2,7.2-18.8,0-26l-26,26C188.1,221.3,199.7,221.3,206.9,214.2z"/>
		<polygon class="st87" points="208.6,186.4 205.1,186.6 179.4,212.4 179.2,215.9 		"/>
		<polygon class="st86" points="208.6,186.4 208.4,190 182.7,215.7 179.2,215.9 		"/>
	</g>
	<g>
		<circle class="st89" cx="147.5" cy="91.6" r="28"/>
		<g>
			<path class="st90" d="M143.3,98.2c-0.1-0.4-0.2-0.8-0.3-1.3s-0.1-1-0.1-1.4c0-0.7,0.1-1.3,0.3-1.9s0.4-1.1,0.7-1.6
				c0.3-0.5,0.6-1,1.1-1.4c0.4-0.4,0.9-0.9,1.5-1.3c0.6-0.5,1.1-0.9,1.5-1.3c0.4-0.4,0.8-0.8,1.1-1.2c0.3-0.4,0.6-0.8,0.7-1.3
				c0.2-0.4,0.3-0.9,0.3-1.5c0-0.5,0-0.9-0.2-1.3c-0.1-0.4-0.4-0.8-0.7-1c-0.3-0.3-0.7-0.5-1.1-0.7c-0.4-0.2-0.9-0.3-1.5-0.3
				c-1.2,0-2.4,0.1-3.7,0.6c-1.3,0.4-2.5,1.1-3.7,2.1l0.3-6.8c1.2-0.6,2.5-1.1,3.8-1.4c1.4-0.3,2.8-0.4,4.2-0.3
				c1.4,0.1,2.7,0.3,3.9,0.6c1.2,0.4,2.2,0.9,3.1,1.6c0.9,0.7,1.5,1.6,2,2.6c0.5,1,0.7,2.3,0.6,3.7c0,0.9-0.2,1.7-0.4,2.5
				c-0.2,0.7-0.6,1.4-1,2.1c-0.4,0.6-1,1.3-1.6,1.8c-0.6,0.6-1.3,1.2-2.1,1.8c-0.5,0.4-1,0.8-1.4,1.2c-0.4,0.4-0.8,0.7-1,1.1
				c-0.3,0.4-0.5,0.7-0.6,1.1s-0.2,0.9-0.3,1.4c0,0.4,0,0.7,0.1,1.1c0.1,0.4,0.2,0.7,0.4,1L143.3,98.2z M146.2,108.1
				c-1.2,0-2.2-0.4-2.9-1.2c-0.8-0.8-1.1-1.7-1.1-2.7c0-1,0.5-1.9,1.3-2.6c0.8-0.7,1.8-1,3-0.9c1.2,0,2.1,0.4,2.9,1.2
				c0.8,0.7,1.1,1.6,1.1,2.7c0,1.1-0.5,2-1.3,2.6C148.4,107.9,147.4,108.2,146.2,108.1z"/>
		</g>
	</g>
</g>
</svg>
